G04 #@! TF.GenerationSoftware,KiCad,Pcbnew,(5.1.2-1)-1*
G04 #@! TF.CreationDate,2019-06-15T18:23:21+02:00*
G04 #@! TF.ProjectId,laser_control,6c617365-725f-4636-9f6e-74726f6c2e6b,rev?*
G04 #@! TF.SameCoordinates,Original*
G04 #@! TF.FileFunction,Soldermask,Bot*
G04 #@! TF.FilePolarity,Negative*
%FSLAX46Y46*%
G04 Gerber Fmt 4.6, Leading zero omitted, Abs format (unit mm)*
G04 Created by KiCad (PCBNEW (5.1.2-1)-1) date 2019-06-15 18:23:21*
%MOMM*%
%LPD*%
G04 APERTURE LIST*
%ADD10C,0.100000*%
G04 APERTURE END LIST*
D10*
G36*
X153537256Y-119991298D02*
G01*
X153643579Y-120012447D01*
X153944042Y-120136903D01*
X154214451Y-120317585D01*
X154444415Y-120547549D01*
X154625097Y-120817958D01*
X154745392Y-121108375D01*
X154749553Y-121118422D01*
X154813000Y-121437389D01*
X154813000Y-121762611D01*
X154770702Y-121975256D01*
X154749553Y-122081579D01*
X154625097Y-122382042D01*
X154444415Y-122652451D01*
X154214451Y-122882415D01*
X153944042Y-123063097D01*
X153643579Y-123187553D01*
X153537256Y-123208702D01*
X153324611Y-123251000D01*
X152999389Y-123251000D01*
X152786744Y-123208702D01*
X152680421Y-123187553D01*
X152379958Y-123063097D01*
X152109549Y-122882415D01*
X151879585Y-122652451D01*
X151698903Y-122382042D01*
X151574447Y-122081579D01*
X151553298Y-121975256D01*
X151511000Y-121762611D01*
X151511000Y-121437389D01*
X151574447Y-121118422D01*
X151578609Y-121108375D01*
X151698903Y-120817958D01*
X151879585Y-120547549D01*
X152109549Y-120317585D01*
X152379958Y-120136903D01*
X152680421Y-120012447D01*
X152786744Y-119991298D01*
X152999389Y-119949000D01*
X153324611Y-119949000D01*
X153537256Y-119991298D01*
X153537256Y-119991298D01*
G37*
G36*
X103499256Y-119991298D02*
G01*
X103605579Y-120012447D01*
X103906042Y-120136903D01*
X104176451Y-120317585D01*
X104406415Y-120547549D01*
X104587097Y-120817958D01*
X104707392Y-121108375D01*
X104711553Y-121118422D01*
X104775000Y-121437389D01*
X104775000Y-121762611D01*
X104732702Y-121975256D01*
X104711553Y-122081579D01*
X104587097Y-122382042D01*
X104406415Y-122652451D01*
X104176451Y-122882415D01*
X103906042Y-123063097D01*
X103605579Y-123187553D01*
X103499256Y-123208702D01*
X103286611Y-123251000D01*
X102961389Y-123251000D01*
X102748744Y-123208702D01*
X102642421Y-123187553D01*
X102341958Y-123063097D01*
X102071549Y-122882415D01*
X101841585Y-122652451D01*
X101660903Y-122382042D01*
X101536447Y-122081579D01*
X101515298Y-121975256D01*
X101473000Y-121762611D01*
X101473000Y-121437389D01*
X101536447Y-121118422D01*
X101540609Y-121108375D01*
X101660903Y-120817958D01*
X101841585Y-120547549D01*
X102071549Y-120317585D01*
X102341958Y-120136903D01*
X102642421Y-120012447D01*
X102748744Y-119991298D01*
X102961389Y-119949000D01*
X103286611Y-119949000D01*
X103499256Y-119991298D01*
X103499256Y-119991298D01*
G37*
G36*
X112124443Y-120390519D02*
G01*
X112190627Y-120397037D01*
X112360466Y-120448557D01*
X112516991Y-120532222D01*
X112535669Y-120547551D01*
X112654186Y-120644814D01*
X112737448Y-120746271D01*
X112766778Y-120782009D01*
X112850443Y-120938534D01*
X112901963Y-121108373D01*
X112919359Y-121285000D01*
X112901963Y-121461627D01*
X112850443Y-121631466D01*
X112766778Y-121787991D01*
X112737448Y-121823729D01*
X112654186Y-121925186D01*
X112552729Y-122008448D01*
X112516991Y-122037778D01*
X112360466Y-122121443D01*
X112190627Y-122172963D01*
X112124442Y-122179482D01*
X112058260Y-122186000D01*
X111969740Y-122186000D01*
X111903558Y-122179482D01*
X111837373Y-122172963D01*
X111667534Y-122121443D01*
X111511009Y-122037778D01*
X111475271Y-122008448D01*
X111373814Y-121925186D01*
X111290552Y-121823729D01*
X111261222Y-121787991D01*
X111177557Y-121631466D01*
X111126037Y-121461627D01*
X111108641Y-121285000D01*
X111126037Y-121108373D01*
X111177557Y-120938534D01*
X111261222Y-120782009D01*
X111290552Y-120746271D01*
X111373814Y-120644814D01*
X111492331Y-120547551D01*
X111511009Y-120532222D01*
X111667534Y-120448557D01*
X111837373Y-120397037D01*
X111903557Y-120390519D01*
X111969740Y-120384000D01*
X112058260Y-120384000D01*
X112124443Y-120390519D01*
X112124443Y-120390519D01*
G37*
G36*
X110375000Y-122186000D02*
G01*
X108573000Y-122186000D01*
X108573000Y-120384000D01*
X110375000Y-120384000D01*
X110375000Y-122186000D01*
X110375000Y-122186000D01*
G37*
G36*
X117204443Y-120390519D02*
G01*
X117270627Y-120397037D01*
X117440466Y-120448557D01*
X117596991Y-120532222D01*
X117615669Y-120547551D01*
X117734186Y-120644814D01*
X117817448Y-120746271D01*
X117846778Y-120782009D01*
X117930443Y-120938534D01*
X117981963Y-121108373D01*
X117999359Y-121285000D01*
X117981963Y-121461627D01*
X117930443Y-121631466D01*
X117846778Y-121787991D01*
X117817448Y-121823729D01*
X117734186Y-121925186D01*
X117632729Y-122008448D01*
X117596991Y-122037778D01*
X117440466Y-122121443D01*
X117270627Y-122172963D01*
X117204442Y-122179482D01*
X117138260Y-122186000D01*
X117049740Y-122186000D01*
X116983558Y-122179482D01*
X116917373Y-122172963D01*
X116747534Y-122121443D01*
X116591009Y-122037778D01*
X116555271Y-122008448D01*
X116453814Y-121925186D01*
X116370552Y-121823729D01*
X116341222Y-121787991D01*
X116257557Y-121631466D01*
X116206037Y-121461627D01*
X116188641Y-121285000D01*
X116206037Y-121108373D01*
X116257557Y-120938534D01*
X116341222Y-120782009D01*
X116370552Y-120746271D01*
X116453814Y-120644814D01*
X116572331Y-120547551D01*
X116591009Y-120532222D01*
X116747534Y-120448557D01*
X116917373Y-120397037D01*
X116983557Y-120390519D01*
X117049740Y-120384000D01*
X117138260Y-120384000D01*
X117204443Y-120390519D01*
X117204443Y-120390519D01*
G37*
G36*
X114664443Y-120390519D02*
G01*
X114730627Y-120397037D01*
X114900466Y-120448557D01*
X115056991Y-120532222D01*
X115075669Y-120547551D01*
X115194186Y-120644814D01*
X115277448Y-120746271D01*
X115306778Y-120782009D01*
X115390443Y-120938534D01*
X115441963Y-121108373D01*
X115459359Y-121285000D01*
X115441963Y-121461627D01*
X115390443Y-121631466D01*
X115306778Y-121787991D01*
X115277448Y-121823729D01*
X115194186Y-121925186D01*
X115092729Y-122008448D01*
X115056991Y-122037778D01*
X114900466Y-122121443D01*
X114730627Y-122172963D01*
X114664442Y-122179482D01*
X114598260Y-122186000D01*
X114509740Y-122186000D01*
X114443558Y-122179482D01*
X114377373Y-122172963D01*
X114207534Y-122121443D01*
X114051009Y-122037778D01*
X114015271Y-122008448D01*
X113913814Y-121925186D01*
X113830552Y-121823729D01*
X113801222Y-121787991D01*
X113717557Y-121631466D01*
X113666037Y-121461627D01*
X113648641Y-121285000D01*
X113666037Y-121108373D01*
X113717557Y-120938534D01*
X113801222Y-120782009D01*
X113830552Y-120746271D01*
X113913814Y-120644814D01*
X114032331Y-120547551D01*
X114051009Y-120532222D01*
X114207534Y-120448557D01*
X114377373Y-120397037D01*
X114443557Y-120390519D01*
X114509740Y-120384000D01*
X114598260Y-120384000D01*
X114664443Y-120390519D01*
X114664443Y-120390519D01*
G37*
G36*
X128432000Y-119161000D02*
G01*
X126330000Y-119161000D01*
X126330000Y-117059000D01*
X128432000Y-117059000D01*
X128432000Y-119161000D01*
X128432000Y-119161000D01*
G37*
G36*
X127687564Y-114559389D02*
G01*
X127878833Y-114638615D01*
X127878835Y-114638616D01*
X128050973Y-114753635D01*
X128197365Y-114900027D01*
X128312385Y-115072167D01*
X128391611Y-115263436D01*
X128432000Y-115466484D01*
X128432000Y-115673516D01*
X128391611Y-115876564D01*
X128312385Y-116067833D01*
X128312384Y-116067835D01*
X128197365Y-116239973D01*
X128050973Y-116386365D01*
X127878835Y-116501384D01*
X127878834Y-116501385D01*
X127878833Y-116501385D01*
X127687564Y-116580611D01*
X127484516Y-116621000D01*
X127277484Y-116621000D01*
X127074436Y-116580611D01*
X126883167Y-116501385D01*
X126883166Y-116501385D01*
X126883165Y-116501384D01*
X126711027Y-116386365D01*
X126564635Y-116239973D01*
X126449616Y-116067835D01*
X126449615Y-116067833D01*
X126370389Y-115876564D01*
X126330000Y-115673516D01*
X126330000Y-115466484D01*
X126370389Y-115263436D01*
X126449615Y-115072167D01*
X126564635Y-114900027D01*
X126711027Y-114753635D01*
X126883165Y-114638616D01*
X126883167Y-114638615D01*
X127074436Y-114559389D01*
X127277484Y-114519000D01*
X127484516Y-114519000D01*
X127687564Y-114559389D01*
X127687564Y-114559389D01*
G37*
G36*
X117260823Y-104444313D02*
G01*
X117421242Y-104492976D01*
X117553906Y-104563886D01*
X117569078Y-104571996D01*
X117698659Y-104678341D01*
X117805004Y-104807922D01*
X117805005Y-104807924D01*
X117884024Y-104955758D01*
X117932687Y-105116177D01*
X117949117Y-105283000D01*
X117932687Y-105449823D01*
X117884024Y-105610242D01*
X117813114Y-105742906D01*
X117805004Y-105758078D01*
X117698659Y-105887659D01*
X117569078Y-105994004D01*
X117569076Y-105994005D01*
X117421242Y-106073024D01*
X117260823Y-106121687D01*
X117135804Y-106134000D01*
X117052196Y-106134000D01*
X116927177Y-106121687D01*
X116766758Y-106073024D01*
X116618924Y-105994005D01*
X116618922Y-105994004D01*
X116489341Y-105887659D01*
X116382996Y-105758078D01*
X116374886Y-105742906D01*
X116303976Y-105610242D01*
X116255313Y-105449823D01*
X116238883Y-105283000D01*
X116255313Y-105116177D01*
X116303976Y-104955758D01*
X116382995Y-104807924D01*
X116382996Y-104807922D01*
X116489341Y-104678341D01*
X116618922Y-104571996D01*
X116634094Y-104563886D01*
X116766758Y-104492976D01*
X116927177Y-104444313D01*
X117052196Y-104432000D01*
X117135804Y-104432000D01*
X117260823Y-104444313D01*
X117260823Y-104444313D01*
G37*
G36*
X114720823Y-104444313D02*
G01*
X114881242Y-104492976D01*
X115013906Y-104563886D01*
X115029078Y-104571996D01*
X115158659Y-104678341D01*
X115265004Y-104807922D01*
X115265005Y-104807924D01*
X115344024Y-104955758D01*
X115392687Y-105116177D01*
X115409117Y-105283000D01*
X115392687Y-105449823D01*
X115344024Y-105610242D01*
X115273114Y-105742906D01*
X115265004Y-105758078D01*
X115158659Y-105887659D01*
X115029078Y-105994004D01*
X115029076Y-105994005D01*
X114881242Y-106073024D01*
X114720823Y-106121687D01*
X114595804Y-106134000D01*
X114512196Y-106134000D01*
X114387177Y-106121687D01*
X114226758Y-106073024D01*
X114078924Y-105994005D01*
X114078922Y-105994004D01*
X113949341Y-105887659D01*
X113842996Y-105758078D01*
X113834886Y-105742906D01*
X113763976Y-105610242D01*
X113715313Y-105449823D01*
X113698883Y-105283000D01*
X113715313Y-105116177D01*
X113763976Y-104955758D01*
X113842995Y-104807924D01*
X113842996Y-104807922D01*
X113949341Y-104678341D01*
X114078922Y-104571996D01*
X114094094Y-104563886D01*
X114226758Y-104492976D01*
X114387177Y-104444313D01*
X114512196Y-104432000D01*
X114595804Y-104432000D01*
X114720823Y-104444313D01*
X114720823Y-104444313D01*
G37*
G36*
X112180823Y-104444313D02*
G01*
X112341242Y-104492976D01*
X112473906Y-104563886D01*
X112489078Y-104571996D01*
X112618659Y-104678341D01*
X112725004Y-104807922D01*
X112725005Y-104807924D01*
X112804024Y-104955758D01*
X112852687Y-105116177D01*
X112869117Y-105283000D01*
X112852687Y-105449823D01*
X112804024Y-105610242D01*
X112733114Y-105742906D01*
X112725004Y-105758078D01*
X112618659Y-105887659D01*
X112489078Y-105994004D01*
X112489076Y-105994005D01*
X112341242Y-106073024D01*
X112180823Y-106121687D01*
X112055804Y-106134000D01*
X111972196Y-106134000D01*
X111847177Y-106121687D01*
X111686758Y-106073024D01*
X111538924Y-105994005D01*
X111538922Y-105994004D01*
X111409341Y-105887659D01*
X111302996Y-105758078D01*
X111294886Y-105742906D01*
X111223976Y-105610242D01*
X111175313Y-105449823D01*
X111158883Y-105283000D01*
X111175313Y-105116177D01*
X111223976Y-104955758D01*
X111302995Y-104807924D01*
X111302996Y-104807922D01*
X111409341Y-104678341D01*
X111538922Y-104571996D01*
X111554094Y-104563886D01*
X111686758Y-104492976D01*
X111847177Y-104444313D01*
X111972196Y-104432000D01*
X112055804Y-104432000D01*
X112180823Y-104444313D01*
X112180823Y-104444313D01*
G37*
G36*
X109640823Y-104444313D02*
G01*
X109801242Y-104492976D01*
X109933906Y-104563886D01*
X109949078Y-104571996D01*
X110078659Y-104678341D01*
X110185004Y-104807922D01*
X110185005Y-104807924D01*
X110264024Y-104955758D01*
X110312687Y-105116177D01*
X110329117Y-105283000D01*
X110312687Y-105449823D01*
X110264024Y-105610242D01*
X110193114Y-105742906D01*
X110185004Y-105758078D01*
X110078659Y-105887659D01*
X109949078Y-105994004D01*
X109949076Y-105994005D01*
X109801242Y-106073024D01*
X109640823Y-106121687D01*
X109515804Y-106134000D01*
X109432196Y-106134000D01*
X109307177Y-106121687D01*
X109146758Y-106073024D01*
X108998924Y-105994005D01*
X108998922Y-105994004D01*
X108869341Y-105887659D01*
X108762996Y-105758078D01*
X108754886Y-105742906D01*
X108683976Y-105610242D01*
X108635313Y-105449823D01*
X108618883Y-105283000D01*
X108635313Y-105116177D01*
X108683976Y-104955758D01*
X108762995Y-104807924D01*
X108762996Y-104807922D01*
X108869341Y-104678341D01*
X108998922Y-104571996D01*
X109014094Y-104563886D01*
X109146758Y-104492976D01*
X109307177Y-104444313D01*
X109432196Y-104432000D01*
X109515804Y-104432000D01*
X109640823Y-104444313D01*
X109640823Y-104444313D01*
G37*
G36*
X107100823Y-104444313D02*
G01*
X107261242Y-104492976D01*
X107393906Y-104563886D01*
X107409078Y-104571996D01*
X107538659Y-104678341D01*
X107645004Y-104807922D01*
X107645005Y-104807924D01*
X107724024Y-104955758D01*
X107772687Y-105116177D01*
X107789117Y-105283000D01*
X107772687Y-105449823D01*
X107724024Y-105610242D01*
X107653114Y-105742906D01*
X107645004Y-105758078D01*
X107538659Y-105887659D01*
X107409078Y-105994004D01*
X107409076Y-105994005D01*
X107261242Y-106073024D01*
X107100823Y-106121687D01*
X106975804Y-106134000D01*
X106892196Y-106134000D01*
X106767177Y-106121687D01*
X106606758Y-106073024D01*
X106458924Y-105994005D01*
X106458922Y-105994004D01*
X106329341Y-105887659D01*
X106222996Y-105758078D01*
X106214886Y-105742906D01*
X106143976Y-105610242D01*
X106095313Y-105449823D01*
X106078883Y-105283000D01*
X106095313Y-105116177D01*
X106143976Y-104955758D01*
X106222995Y-104807924D01*
X106222996Y-104807922D01*
X106329341Y-104678341D01*
X106458922Y-104571996D01*
X106474094Y-104563886D01*
X106606758Y-104492976D01*
X106767177Y-104444313D01*
X106892196Y-104432000D01*
X106975804Y-104432000D01*
X107100823Y-104444313D01*
X107100823Y-104444313D01*
G37*
G36*
X104560823Y-104444313D02*
G01*
X104721242Y-104492976D01*
X104853906Y-104563886D01*
X104869078Y-104571996D01*
X104998659Y-104678341D01*
X105105004Y-104807922D01*
X105105005Y-104807924D01*
X105184024Y-104955758D01*
X105232687Y-105116177D01*
X105249117Y-105283000D01*
X105232687Y-105449823D01*
X105184024Y-105610242D01*
X105113114Y-105742906D01*
X105105004Y-105758078D01*
X104998659Y-105887659D01*
X104869078Y-105994004D01*
X104869076Y-105994005D01*
X104721242Y-106073024D01*
X104560823Y-106121687D01*
X104435804Y-106134000D01*
X104352196Y-106134000D01*
X104227177Y-106121687D01*
X104066758Y-106073024D01*
X103918924Y-105994005D01*
X103918922Y-105994004D01*
X103789341Y-105887659D01*
X103682996Y-105758078D01*
X103674886Y-105742906D01*
X103603976Y-105610242D01*
X103555313Y-105449823D01*
X103538883Y-105283000D01*
X103555313Y-105116177D01*
X103603976Y-104955758D01*
X103682995Y-104807924D01*
X103682996Y-104807922D01*
X103789341Y-104678341D01*
X103918922Y-104571996D01*
X103934094Y-104563886D01*
X104066758Y-104492976D01*
X104227177Y-104444313D01*
X104352196Y-104432000D01*
X104435804Y-104432000D01*
X104560823Y-104444313D01*
X104560823Y-104444313D01*
G37*
G36*
X102020823Y-104444313D02*
G01*
X102181242Y-104492976D01*
X102313906Y-104563886D01*
X102329078Y-104571996D01*
X102458659Y-104678341D01*
X102565004Y-104807922D01*
X102565005Y-104807924D01*
X102644024Y-104955758D01*
X102692687Y-105116177D01*
X102709117Y-105283000D01*
X102692687Y-105449823D01*
X102644024Y-105610242D01*
X102573114Y-105742906D01*
X102565004Y-105758078D01*
X102458659Y-105887659D01*
X102329078Y-105994004D01*
X102329076Y-105994005D01*
X102181242Y-106073024D01*
X102020823Y-106121687D01*
X101895804Y-106134000D01*
X101812196Y-106134000D01*
X101687177Y-106121687D01*
X101526758Y-106073024D01*
X101378924Y-105994005D01*
X101378922Y-105994004D01*
X101249341Y-105887659D01*
X101142996Y-105758078D01*
X101134886Y-105742906D01*
X101063976Y-105610242D01*
X101015313Y-105449823D01*
X100998883Y-105283000D01*
X101015313Y-105116177D01*
X101063976Y-104955758D01*
X101142995Y-104807924D01*
X101142996Y-104807922D01*
X101249341Y-104678341D01*
X101378922Y-104571996D01*
X101394094Y-104563886D01*
X101526758Y-104492976D01*
X101687177Y-104444313D01*
X101812196Y-104432000D01*
X101895804Y-104432000D01*
X102020823Y-104444313D01*
X102020823Y-104444313D01*
G37*
G36*
X127420823Y-104444313D02*
G01*
X127581242Y-104492976D01*
X127713906Y-104563886D01*
X127729078Y-104571996D01*
X127858659Y-104678341D01*
X127965004Y-104807922D01*
X127965005Y-104807924D01*
X128044024Y-104955758D01*
X128092687Y-105116177D01*
X128109117Y-105283000D01*
X128092687Y-105449823D01*
X128044024Y-105610242D01*
X127973114Y-105742906D01*
X127965004Y-105758078D01*
X127858659Y-105887659D01*
X127729078Y-105994004D01*
X127729076Y-105994005D01*
X127581242Y-106073024D01*
X127420823Y-106121687D01*
X127295804Y-106134000D01*
X127212196Y-106134000D01*
X127087177Y-106121687D01*
X126926758Y-106073024D01*
X126778924Y-105994005D01*
X126778922Y-105994004D01*
X126649341Y-105887659D01*
X126542996Y-105758078D01*
X126534886Y-105742906D01*
X126463976Y-105610242D01*
X126415313Y-105449823D01*
X126398883Y-105283000D01*
X126415313Y-105116177D01*
X126463976Y-104955758D01*
X126542995Y-104807924D01*
X126542996Y-104807922D01*
X126649341Y-104678341D01*
X126778922Y-104571996D01*
X126794094Y-104563886D01*
X126926758Y-104492976D01*
X127087177Y-104444313D01*
X127212196Y-104432000D01*
X127295804Y-104432000D01*
X127420823Y-104444313D01*
X127420823Y-104444313D01*
G37*
G36*
X124880823Y-104444313D02*
G01*
X125041242Y-104492976D01*
X125173906Y-104563886D01*
X125189078Y-104571996D01*
X125318659Y-104678341D01*
X125425004Y-104807922D01*
X125425005Y-104807924D01*
X125504024Y-104955758D01*
X125552687Y-105116177D01*
X125569117Y-105283000D01*
X125552687Y-105449823D01*
X125504024Y-105610242D01*
X125433114Y-105742906D01*
X125425004Y-105758078D01*
X125318659Y-105887659D01*
X125189078Y-105994004D01*
X125189076Y-105994005D01*
X125041242Y-106073024D01*
X124880823Y-106121687D01*
X124755804Y-106134000D01*
X124672196Y-106134000D01*
X124547177Y-106121687D01*
X124386758Y-106073024D01*
X124238924Y-105994005D01*
X124238922Y-105994004D01*
X124109341Y-105887659D01*
X124002996Y-105758078D01*
X123994886Y-105742906D01*
X123923976Y-105610242D01*
X123875313Y-105449823D01*
X123858883Y-105283000D01*
X123875313Y-105116177D01*
X123923976Y-104955758D01*
X124002995Y-104807924D01*
X124002996Y-104807922D01*
X124109341Y-104678341D01*
X124238922Y-104571996D01*
X124254094Y-104563886D01*
X124386758Y-104492976D01*
X124547177Y-104444313D01*
X124672196Y-104432000D01*
X124755804Y-104432000D01*
X124880823Y-104444313D01*
X124880823Y-104444313D01*
G37*
G36*
X129960823Y-104444313D02*
G01*
X130121242Y-104492976D01*
X130253906Y-104563886D01*
X130269078Y-104571996D01*
X130398659Y-104678341D01*
X130505004Y-104807922D01*
X130505005Y-104807924D01*
X130584024Y-104955758D01*
X130632687Y-105116177D01*
X130649117Y-105283000D01*
X130632687Y-105449823D01*
X130584024Y-105610242D01*
X130513114Y-105742906D01*
X130505004Y-105758078D01*
X130398659Y-105887659D01*
X130269078Y-105994004D01*
X130269076Y-105994005D01*
X130121242Y-106073024D01*
X129960823Y-106121687D01*
X129835804Y-106134000D01*
X129752196Y-106134000D01*
X129627177Y-106121687D01*
X129466758Y-106073024D01*
X129318924Y-105994005D01*
X129318922Y-105994004D01*
X129189341Y-105887659D01*
X129082996Y-105758078D01*
X129074886Y-105742906D01*
X129003976Y-105610242D01*
X128955313Y-105449823D01*
X128938883Y-105283000D01*
X128955313Y-105116177D01*
X129003976Y-104955758D01*
X129082995Y-104807924D01*
X129082996Y-104807922D01*
X129189341Y-104678341D01*
X129318922Y-104571996D01*
X129334094Y-104563886D01*
X129466758Y-104492976D01*
X129627177Y-104444313D01*
X129752196Y-104432000D01*
X129835804Y-104432000D01*
X129960823Y-104444313D01*
X129960823Y-104444313D01*
G37*
G36*
X119800823Y-104444313D02*
G01*
X119961242Y-104492976D01*
X120093906Y-104563886D01*
X120109078Y-104571996D01*
X120238659Y-104678341D01*
X120345004Y-104807922D01*
X120345005Y-104807924D01*
X120424024Y-104955758D01*
X120472687Y-105116177D01*
X120489117Y-105283000D01*
X120472687Y-105449823D01*
X120424024Y-105610242D01*
X120353114Y-105742906D01*
X120345004Y-105758078D01*
X120238659Y-105887659D01*
X120109078Y-105994004D01*
X120109076Y-105994005D01*
X119961242Y-106073024D01*
X119800823Y-106121687D01*
X119675804Y-106134000D01*
X119592196Y-106134000D01*
X119467177Y-106121687D01*
X119306758Y-106073024D01*
X119158924Y-105994005D01*
X119158922Y-105994004D01*
X119029341Y-105887659D01*
X118922996Y-105758078D01*
X118914886Y-105742906D01*
X118843976Y-105610242D01*
X118795313Y-105449823D01*
X118778883Y-105283000D01*
X118795313Y-105116177D01*
X118843976Y-104955758D01*
X118922995Y-104807924D01*
X118922996Y-104807922D01*
X119029341Y-104678341D01*
X119158922Y-104571996D01*
X119174094Y-104563886D01*
X119306758Y-104492976D01*
X119467177Y-104444313D01*
X119592196Y-104432000D01*
X119675804Y-104432000D01*
X119800823Y-104444313D01*
X119800823Y-104444313D01*
G37*
G36*
X122340823Y-104444313D02*
G01*
X122501242Y-104492976D01*
X122633906Y-104563886D01*
X122649078Y-104571996D01*
X122778659Y-104678341D01*
X122885004Y-104807922D01*
X122885005Y-104807924D01*
X122964024Y-104955758D01*
X123012687Y-105116177D01*
X123029117Y-105283000D01*
X123012687Y-105449823D01*
X122964024Y-105610242D01*
X122893114Y-105742906D01*
X122885004Y-105758078D01*
X122778659Y-105887659D01*
X122649078Y-105994004D01*
X122649076Y-105994005D01*
X122501242Y-106073024D01*
X122340823Y-106121687D01*
X122215804Y-106134000D01*
X122132196Y-106134000D01*
X122007177Y-106121687D01*
X121846758Y-106073024D01*
X121698924Y-105994005D01*
X121698922Y-105994004D01*
X121569341Y-105887659D01*
X121462996Y-105758078D01*
X121454886Y-105742906D01*
X121383976Y-105610242D01*
X121335313Y-105449823D01*
X121318883Y-105283000D01*
X121335313Y-105116177D01*
X121383976Y-104955758D01*
X121462995Y-104807924D01*
X121462996Y-104807922D01*
X121569341Y-104678341D01*
X121698922Y-104571996D01*
X121714094Y-104563886D01*
X121846758Y-104492976D01*
X122007177Y-104444313D01*
X122132196Y-104432000D01*
X122215804Y-104432000D01*
X122340823Y-104444313D01*
X122340823Y-104444313D01*
G37*
G36*
X132500823Y-104444313D02*
G01*
X132661242Y-104492976D01*
X132793906Y-104563886D01*
X132809078Y-104571996D01*
X132938659Y-104678341D01*
X133045004Y-104807922D01*
X133045005Y-104807924D01*
X133124024Y-104955758D01*
X133172687Y-105116177D01*
X133189117Y-105283000D01*
X133172687Y-105449823D01*
X133124024Y-105610242D01*
X133053114Y-105742906D01*
X133045004Y-105758078D01*
X132938659Y-105887659D01*
X132809078Y-105994004D01*
X132809076Y-105994005D01*
X132661242Y-106073024D01*
X132500823Y-106121687D01*
X132375804Y-106134000D01*
X132292196Y-106134000D01*
X132167177Y-106121687D01*
X132006758Y-106073024D01*
X131858924Y-105994005D01*
X131858922Y-105994004D01*
X131729341Y-105887659D01*
X131622996Y-105758078D01*
X131614886Y-105742906D01*
X131543976Y-105610242D01*
X131495313Y-105449823D01*
X131478883Y-105283000D01*
X131495313Y-105116177D01*
X131543976Y-104955758D01*
X131622995Y-104807924D01*
X131622996Y-104807922D01*
X131729341Y-104678341D01*
X131858922Y-104571996D01*
X131874094Y-104563886D01*
X132006758Y-104492976D01*
X132167177Y-104444313D01*
X132292196Y-104432000D01*
X132375804Y-104432000D01*
X132500823Y-104444313D01*
X132500823Y-104444313D01*
G37*
G36*
X135040823Y-104444313D02*
G01*
X135201242Y-104492976D01*
X135333906Y-104563886D01*
X135349078Y-104571996D01*
X135478659Y-104678341D01*
X135585004Y-104807922D01*
X135585005Y-104807924D01*
X135664024Y-104955758D01*
X135712687Y-105116177D01*
X135729117Y-105283000D01*
X135712687Y-105449823D01*
X135664024Y-105610242D01*
X135593114Y-105742906D01*
X135585004Y-105758078D01*
X135478659Y-105887659D01*
X135349078Y-105994004D01*
X135349076Y-105994005D01*
X135201242Y-106073024D01*
X135040823Y-106121687D01*
X134915804Y-106134000D01*
X134832196Y-106134000D01*
X134707177Y-106121687D01*
X134546758Y-106073024D01*
X134398924Y-105994005D01*
X134398922Y-105994004D01*
X134269341Y-105887659D01*
X134162996Y-105758078D01*
X134154886Y-105742906D01*
X134083976Y-105610242D01*
X134035313Y-105449823D01*
X134018883Y-105283000D01*
X134035313Y-105116177D01*
X134083976Y-104955758D01*
X134162995Y-104807924D01*
X134162996Y-104807922D01*
X134269341Y-104678341D01*
X134398922Y-104571996D01*
X134414094Y-104563886D01*
X134546758Y-104492976D01*
X134707177Y-104444313D01*
X134832196Y-104432000D01*
X134915804Y-104432000D01*
X135040823Y-104444313D01*
X135040823Y-104444313D01*
G37*
G36*
X137580823Y-104444313D02*
G01*
X137741242Y-104492976D01*
X137873906Y-104563886D01*
X137889078Y-104571996D01*
X138018659Y-104678341D01*
X138125004Y-104807922D01*
X138125005Y-104807924D01*
X138204024Y-104955758D01*
X138252687Y-105116177D01*
X138269117Y-105283000D01*
X138252687Y-105449823D01*
X138204024Y-105610242D01*
X138133114Y-105742906D01*
X138125004Y-105758078D01*
X138018659Y-105887659D01*
X137889078Y-105994004D01*
X137889076Y-105994005D01*
X137741242Y-106073024D01*
X137580823Y-106121687D01*
X137455804Y-106134000D01*
X137372196Y-106134000D01*
X137247177Y-106121687D01*
X137086758Y-106073024D01*
X136938924Y-105994005D01*
X136938922Y-105994004D01*
X136809341Y-105887659D01*
X136702996Y-105758078D01*
X136694886Y-105742906D01*
X136623976Y-105610242D01*
X136575313Y-105449823D01*
X136558883Y-105283000D01*
X136575313Y-105116177D01*
X136623976Y-104955758D01*
X136702995Y-104807924D01*
X136702996Y-104807922D01*
X136809341Y-104678341D01*
X136938922Y-104571996D01*
X136954094Y-104563886D01*
X137086758Y-104492976D01*
X137247177Y-104444313D01*
X137372196Y-104432000D01*
X137455804Y-104432000D01*
X137580823Y-104444313D01*
X137580823Y-104444313D01*
G37*
G36*
X150712154Y-99550182D02*
G01*
X150780482Y-99563773D01*
X150877027Y-99603763D01*
X150973573Y-99643754D01*
X151147346Y-99759865D01*
X151295135Y-99907654D01*
X151411246Y-100081427D01*
X151491227Y-100274519D01*
X151532000Y-100479499D01*
X151532000Y-100688501D01*
X151491227Y-100893481D01*
X151411246Y-101086573D01*
X151295135Y-101260346D01*
X151147346Y-101408135D01*
X150973573Y-101524246D01*
X150877027Y-101564236D01*
X150780482Y-101604227D01*
X150712154Y-101617818D01*
X150575501Y-101645000D01*
X150366499Y-101645000D01*
X150229846Y-101617818D01*
X150161518Y-101604227D01*
X150064973Y-101564236D01*
X149968427Y-101524246D01*
X149794654Y-101408135D01*
X149646865Y-101260346D01*
X149530754Y-101086573D01*
X149450773Y-100893481D01*
X149410000Y-100688501D01*
X149410000Y-100479499D01*
X149450773Y-100274519D01*
X149530754Y-100081427D01*
X149646865Y-99907654D01*
X149794654Y-99759865D01*
X149968427Y-99643754D01*
X150064973Y-99603764D01*
X150161518Y-99563773D01*
X150229846Y-99550182D01*
X150366499Y-99523000D01*
X150575501Y-99523000D01*
X150712154Y-99550182D01*
X150712154Y-99550182D01*
G37*
G36*
X150712154Y-97010182D02*
G01*
X150780482Y-97023773D01*
X150877027Y-97063763D01*
X150973573Y-97103754D01*
X151147346Y-97219865D01*
X151295135Y-97367654D01*
X151411246Y-97541427D01*
X151491227Y-97734519D01*
X151532000Y-97939499D01*
X151532000Y-98148501D01*
X151491227Y-98353481D01*
X151411246Y-98546573D01*
X151295135Y-98720346D01*
X151147346Y-98868135D01*
X150973573Y-98984246D01*
X150877027Y-99024236D01*
X150780482Y-99064227D01*
X150712154Y-99077818D01*
X150575501Y-99105000D01*
X150366499Y-99105000D01*
X150229846Y-99077818D01*
X150161518Y-99064227D01*
X150064973Y-99024236D01*
X149968427Y-98984246D01*
X149794654Y-98868135D01*
X149646865Y-98720346D01*
X149530754Y-98546573D01*
X149450773Y-98353481D01*
X149410000Y-98148501D01*
X149410000Y-97939499D01*
X149450773Y-97734519D01*
X149530754Y-97541427D01*
X149646865Y-97367654D01*
X149794654Y-97219865D01*
X149968427Y-97103754D01*
X150064973Y-97063764D01*
X150161518Y-97023773D01*
X150229846Y-97010182D01*
X150366499Y-96983000D01*
X150575501Y-96983000D01*
X150712154Y-97010182D01*
X150712154Y-97010182D01*
G37*
G36*
X150712154Y-94470182D02*
G01*
X150780482Y-94483773D01*
X150877027Y-94523763D01*
X150973573Y-94563754D01*
X151147346Y-94679865D01*
X151295135Y-94827654D01*
X151411246Y-95001427D01*
X151491227Y-95194519D01*
X151532000Y-95399499D01*
X151532000Y-95608501D01*
X151491227Y-95813481D01*
X151411246Y-96006573D01*
X151295135Y-96180346D01*
X151147346Y-96328135D01*
X150973573Y-96444246D01*
X150877027Y-96484236D01*
X150780482Y-96524227D01*
X150712154Y-96537818D01*
X150575501Y-96565000D01*
X150366499Y-96565000D01*
X150229846Y-96537818D01*
X150161518Y-96524227D01*
X150064973Y-96484236D01*
X149968427Y-96444246D01*
X149794654Y-96328135D01*
X149646865Y-96180346D01*
X149530754Y-96006573D01*
X149450773Y-95813481D01*
X149410000Y-95608501D01*
X149410000Y-95399499D01*
X149450773Y-95194519D01*
X149530754Y-95001427D01*
X149646865Y-94827654D01*
X149794654Y-94679865D01*
X149968427Y-94563754D01*
X150064973Y-94523764D01*
X150161518Y-94483773D01*
X150229846Y-94470182D01*
X150366499Y-94443000D01*
X150575501Y-94443000D01*
X150712154Y-94470182D01*
X150712154Y-94470182D01*
G37*
G36*
X138265000Y-90894000D02*
G01*
X136563000Y-90894000D01*
X136563000Y-89192000D01*
X138265000Y-89192000D01*
X138265000Y-90894000D01*
X138265000Y-90894000D01*
G37*
G36*
X109640823Y-89204313D02*
G01*
X109801242Y-89252976D01*
X109933906Y-89323886D01*
X109949078Y-89331996D01*
X110078659Y-89438341D01*
X110185004Y-89567922D01*
X110185005Y-89567924D01*
X110264024Y-89715758D01*
X110312687Y-89876177D01*
X110329117Y-90043000D01*
X110312687Y-90209823D01*
X110264024Y-90370242D01*
X110193114Y-90502906D01*
X110185004Y-90518078D01*
X110078659Y-90647659D01*
X109949078Y-90754004D01*
X109949076Y-90754005D01*
X109801242Y-90833024D01*
X109640823Y-90881687D01*
X109515804Y-90894000D01*
X109432196Y-90894000D01*
X109307177Y-90881687D01*
X109146758Y-90833024D01*
X108998924Y-90754005D01*
X108998922Y-90754004D01*
X108869341Y-90647659D01*
X108762996Y-90518078D01*
X108754886Y-90502906D01*
X108683976Y-90370242D01*
X108635313Y-90209823D01*
X108618883Y-90043000D01*
X108635313Y-89876177D01*
X108683976Y-89715758D01*
X108762995Y-89567924D01*
X108762996Y-89567922D01*
X108869341Y-89438341D01*
X108998922Y-89331996D01*
X109014094Y-89323886D01*
X109146758Y-89252976D01*
X109307177Y-89204313D01*
X109432196Y-89192000D01*
X109515804Y-89192000D01*
X109640823Y-89204313D01*
X109640823Y-89204313D01*
G37*
G36*
X135040823Y-89204313D02*
G01*
X135201242Y-89252976D01*
X135333906Y-89323886D01*
X135349078Y-89331996D01*
X135478659Y-89438341D01*
X135585004Y-89567922D01*
X135585005Y-89567924D01*
X135664024Y-89715758D01*
X135712687Y-89876177D01*
X135729117Y-90043000D01*
X135712687Y-90209823D01*
X135664024Y-90370242D01*
X135593114Y-90502906D01*
X135585004Y-90518078D01*
X135478659Y-90647659D01*
X135349078Y-90754004D01*
X135349076Y-90754005D01*
X135201242Y-90833024D01*
X135040823Y-90881687D01*
X134915804Y-90894000D01*
X134832196Y-90894000D01*
X134707177Y-90881687D01*
X134546758Y-90833024D01*
X134398924Y-90754005D01*
X134398922Y-90754004D01*
X134269341Y-90647659D01*
X134162996Y-90518078D01*
X134154886Y-90502906D01*
X134083976Y-90370242D01*
X134035313Y-90209823D01*
X134018883Y-90043000D01*
X134035313Y-89876177D01*
X134083976Y-89715758D01*
X134162995Y-89567924D01*
X134162996Y-89567922D01*
X134269341Y-89438341D01*
X134398922Y-89331996D01*
X134414094Y-89323886D01*
X134546758Y-89252976D01*
X134707177Y-89204313D01*
X134832196Y-89192000D01*
X134915804Y-89192000D01*
X135040823Y-89204313D01*
X135040823Y-89204313D01*
G37*
G36*
X132500823Y-89204313D02*
G01*
X132661242Y-89252976D01*
X132793906Y-89323886D01*
X132809078Y-89331996D01*
X132938659Y-89438341D01*
X133045004Y-89567922D01*
X133045005Y-89567924D01*
X133124024Y-89715758D01*
X133172687Y-89876177D01*
X133189117Y-90043000D01*
X133172687Y-90209823D01*
X133124024Y-90370242D01*
X133053114Y-90502906D01*
X133045004Y-90518078D01*
X132938659Y-90647659D01*
X132809078Y-90754004D01*
X132809076Y-90754005D01*
X132661242Y-90833024D01*
X132500823Y-90881687D01*
X132375804Y-90894000D01*
X132292196Y-90894000D01*
X132167177Y-90881687D01*
X132006758Y-90833024D01*
X131858924Y-90754005D01*
X131858922Y-90754004D01*
X131729341Y-90647659D01*
X131622996Y-90518078D01*
X131614886Y-90502906D01*
X131543976Y-90370242D01*
X131495313Y-90209823D01*
X131478883Y-90043000D01*
X131495313Y-89876177D01*
X131543976Y-89715758D01*
X131622995Y-89567924D01*
X131622996Y-89567922D01*
X131729341Y-89438341D01*
X131858922Y-89331996D01*
X131874094Y-89323886D01*
X132006758Y-89252976D01*
X132167177Y-89204313D01*
X132292196Y-89192000D01*
X132375804Y-89192000D01*
X132500823Y-89204313D01*
X132500823Y-89204313D01*
G37*
G36*
X129960823Y-89204313D02*
G01*
X130121242Y-89252976D01*
X130253906Y-89323886D01*
X130269078Y-89331996D01*
X130398659Y-89438341D01*
X130505004Y-89567922D01*
X130505005Y-89567924D01*
X130584024Y-89715758D01*
X130632687Y-89876177D01*
X130649117Y-90043000D01*
X130632687Y-90209823D01*
X130584024Y-90370242D01*
X130513114Y-90502906D01*
X130505004Y-90518078D01*
X130398659Y-90647659D01*
X130269078Y-90754004D01*
X130269076Y-90754005D01*
X130121242Y-90833024D01*
X129960823Y-90881687D01*
X129835804Y-90894000D01*
X129752196Y-90894000D01*
X129627177Y-90881687D01*
X129466758Y-90833024D01*
X129318924Y-90754005D01*
X129318922Y-90754004D01*
X129189341Y-90647659D01*
X129082996Y-90518078D01*
X129074886Y-90502906D01*
X129003976Y-90370242D01*
X128955313Y-90209823D01*
X128938883Y-90043000D01*
X128955313Y-89876177D01*
X129003976Y-89715758D01*
X129082995Y-89567924D01*
X129082996Y-89567922D01*
X129189341Y-89438341D01*
X129318922Y-89331996D01*
X129334094Y-89323886D01*
X129466758Y-89252976D01*
X129627177Y-89204313D01*
X129752196Y-89192000D01*
X129835804Y-89192000D01*
X129960823Y-89204313D01*
X129960823Y-89204313D01*
G37*
G36*
X127420823Y-89204313D02*
G01*
X127581242Y-89252976D01*
X127713906Y-89323886D01*
X127729078Y-89331996D01*
X127858659Y-89438341D01*
X127965004Y-89567922D01*
X127965005Y-89567924D01*
X128044024Y-89715758D01*
X128092687Y-89876177D01*
X128109117Y-90043000D01*
X128092687Y-90209823D01*
X128044024Y-90370242D01*
X127973114Y-90502906D01*
X127965004Y-90518078D01*
X127858659Y-90647659D01*
X127729078Y-90754004D01*
X127729076Y-90754005D01*
X127581242Y-90833024D01*
X127420823Y-90881687D01*
X127295804Y-90894000D01*
X127212196Y-90894000D01*
X127087177Y-90881687D01*
X126926758Y-90833024D01*
X126778924Y-90754005D01*
X126778922Y-90754004D01*
X126649341Y-90647659D01*
X126542996Y-90518078D01*
X126534886Y-90502906D01*
X126463976Y-90370242D01*
X126415313Y-90209823D01*
X126398883Y-90043000D01*
X126415313Y-89876177D01*
X126463976Y-89715758D01*
X126542995Y-89567924D01*
X126542996Y-89567922D01*
X126649341Y-89438341D01*
X126778922Y-89331996D01*
X126794094Y-89323886D01*
X126926758Y-89252976D01*
X127087177Y-89204313D01*
X127212196Y-89192000D01*
X127295804Y-89192000D01*
X127420823Y-89204313D01*
X127420823Y-89204313D01*
G37*
G36*
X124880823Y-89204313D02*
G01*
X125041242Y-89252976D01*
X125173906Y-89323886D01*
X125189078Y-89331996D01*
X125318659Y-89438341D01*
X125425004Y-89567922D01*
X125425005Y-89567924D01*
X125504024Y-89715758D01*
X125552687Y-89876177D01*
X125569117Y-90043000D01*
X125552687Y-90209823D01*
X125504024Y-90370242D01*
X125433114Y-90502906D01*
X125425004Y-90518078D01*
X125318659Y-90647659D01*
X125189078Y-90754004D01*
X125189076Y-90754005D01*
X125041242Y-90833024D01*
X124880823Y-90881687D01*
X124755804Y-90894000D01*
X124672196Y-90894000D01*
X124547177Y-90881687D01*
X124386758Y-90833024D01*
X124238924Y-90754005D01*
X124238922Y-90754004D01*
X124109341Y-90647659D01*
X124002996Y-90518078D01*
X123994886Y-90502906D01*
X123923976Y-90370242D01*
X123875313Y-90209823D01*
X123858883Y-90043000D01*
X123875313Y-89876177D01*
X123923976Y-89715758D01*
X124002995Y-89567924D01*
X124002996Y-89567922D01*
X124109341Y-89438341D01*
X124238922Y-89331996D01*
X124254094Y-89323886D01*
X124386758Y-89252976D01*
X124547177Y-89204313D01*
X124672196Y-89192000D01*
X124755804Y-89192000D01*
X124880823Y-89204313D01*
X124880823Y-89204313D01*
G37*
G36*
X122340823Y-89204313D02*
G01*
X122501242Y-89252976D01*
X122633906Y-89323886D01*
X122649078Y-89331996D01*
X122778659Y-89438341D01*
X122885004Y-89567922D01*
X122885005Y-89567924D01*
X122964024Y-89715758D01*
X123012687Y-89876177D01*
X123029117Y-90043000D01*
X123012687Y-90209823D01*
X122964024Y-90370242D01*
X122893114Y-90502906D01*
X122885004Y-90518078D01*
X122778659Y-90647659D01*
X122649078Y-90754004D01*
X122649076Y-90754005D01*
X122501242Y-90833024D01*
X122340823Y-90881687D01*
X122215804Y-90894000D01*
X122132196Y-90894000D01*
X122007177Y-90881687D01*
X121846758Y-90833024D01*
X121698924Y-90754005D01*
X121698922Y-90754004D01*
X121569341Y-90647659D01*
X121462996Y-90518078D01*
X121454886Y-90502906D01*
X121383976Y-90370242D01*
X121335313Y-90209823D01*
X121318883Y-90043000D01*
X121335313Y-89876177D01*
X121383976Y-89715758D01*
X121462995Y-89567924D01*
X121462996Y-89567922D01*
X121569341Y-89438341D01*
X121698922Y-89331996D01*
X121714094Y-89323886D01*
X121846758Y-89252976D01*
X122007177Y-89204313D01*
X122132196Y-89192000D01*
X122215804Y-89192000D01*
X122340823Y-89204313D01*
X122340823Y-89204313D01*
G37*
G36*
X119800823Y-89204313D02*
G01*
X119961242Y-89252976D01*
X120093906Y-89323886D01*
X120109078Y-89331996D01*
X120238659Y-89438341D01*
X120345004Y-89567922D01*
X120345005Y-89567924D01*
X120424024Y-89715758D01*
X120472687Y-89876177D01*
X120489117Y-90043000D01*
X120472687Y-90209823D01*
X120424024Y-90370242D01*
X120353114Y-90502906D01*
X120345004Y-90518078D01*
X120238659Y-90647659D01*
X120109078Y-90754004D01*
X120109076Y-90754005D01*
X119961242Y-90833024D01*
X119800823Y-90881687D01*
X119675804Y-90894000D01*
X119592196Y-90894000D01*
X119467177Y-90881687D01*
X119306758Y-90833024D01*
X119158924Y-90754005D01*
X119158922Y-90754004D01*
X119029341Y-90647659D01*
X118922996Y-90518078D01*
X118914886Y-90502906D01*
X118843976Y-90370242D01*
X118795313Y-90209823D01*
X118778883Y-90043000D01*
X118795313Y-89876177D01*
X118843976Y-89715758D01*
X118922995Y-89567924D01*
X118922996Y-89567922D01*
X119029341Y-89438341D01*
X119158922Y-89331996D01*
X119174094Y-89323886D01*
X119306758Y-89252976D01*
X119467177Y-89204313D01*
X119592196Y-89192000D01*
X119675804Y-89192000D01*
X119800823Y-89204313D01*
X119800823Y-89204313D01*
G37*
G36*
X102020823Y-89204313D02*
G01*
X102181242Y-89252976D01*
X102313906Y-89323886D01*
X102329078Y-89331996D01*
X102458659Y-89438341D01*
X102565004Y-89567922D01*
X102565005Y-89567924D01*
X102644024Y-89715758D01*
X102692687Y-89876177D01*
X102709117Y-90043000D01*
X102692687Y-90209823D01*
X102644024Y-90370242D01*
X102573114Y-90502906D01*
X102565004Y-90518078D01*
X102458659Y-90647659D01*
X102329078Y-90754004D01*
X102329076Y-90754005D01*
X102181242Y-90833024D01*
X102020823Y-90881687D01*
X101895804Y-90894000D01*
X101812196Y-90894000D01*
X101687177Y-90881687D01*
X101526758Y-90833024D01*
X101378924Y-90754005D01*
X101378922Y-90754004D01*
X101249341Y-90647659D01*
X101142996Y-90518078D01*
X101134886Y-90502906D01*
X101063976Y-90370242D01*
X101015313Y-90209823D01*
X100998883Y-90043000D01*
X101015313Y-89876177D01*
X101063976Y-89715758D01*
X101142995Y-89567924D01*
X101142996Y-89567922D01*
X101249341Y-89438341D01*
X101378922Y-89331996D01*
X101394094Y-89323886D01*
X101526758Y-89252976D01*
X101687177Y-89204313D01*
X101812196Y-89192000D01*
X101895804Y-89192000D01*
X102020823Y-89204313D01*
X102020823Y-89204313D01*
G37*
G36*
X104560823Y-89204313D02*
G01*
X104721242Y-89252976D01*
X104853906Y-89323886D01*
X104869078Y-89331996D01*
X104998659Y-89438341D01*
X105105004Y-89567922D01*
X105105005Y-89567924D01*
X105184024Y-89715758D01*
X105232687Y-89876177D01*
X105249117Y-90043000D01*
X105232687Y-90209823D01*
X105184024Y-90370242D01*
X105113114Y-90502906D01*
X105105004Y-90518078D01*
X104998659Y-90647659D01*
X104869078Y-90754004D01*
X104869076Y-90754005D01*
X104721242Y-90833024D01*
X104560823Y-90881687D01*
X104435804Y-90894000D01*
X104352196Y-90894000D01*
X104227177Y-90881687D01*
X104066758Y-90833024D01*
X103918924Y-90754005D01*
X103918922Y-90754004D01*
X103789341Y-90647659D01*
X103682996Y-90518078D01*
X103674886Y-90502906D01*
X103603976Y-90370242D01*
X103555313Y-90209823D01*
X103538883Y-90043000D01*
X103555313Y-89876177D01*
X103603976Y-89715758D01*
X103682995Y-89567924D01*
X103682996Y-89567922D01*
X103789341Y-89438341D01*
X103918922Y-89331996D01*
X103934094Y-89323886D01*
X104066758Y-89252976D01*
X104227177Y-89204313D01*
X104352196Y-89192000D01*
X104435804Y-89192000D01*
X104560823Y-89204313D01*
X104560823Y-89204313D01*
G37*
G36*
X107100823Y-89204313D02*
G01*
X107261242Y-89252976D01*
X107393906Y-89323886D01*
X107409078Y-89331996D01*
X107538659Y-89438341D01*
X107645004Y-89567922D01*
X107645005Y-89567924D01*
X107724024Y-89715758D01*
X107772687Y-89876177D01*
X107789117Y-90043000D01*
X107772687Y-90209823D01*
X107724024Y-90370242D01*
X107653114Y-90502906D01*
X107645004Y-90518078D01*
X107538659Y-90647659D01*
X107409078Y-90754004D01*
X107409076Y-90754005D01*
X107261242Y-90833024D01*
X107100823Y-90881687D01*
X106975804Y-90894000D01*
X106892196Y-90894000D01*
X106767177Y-90881687D01*
X106606758Y-90833024D01*
X106458924Y-90754005D01*
X106458922Y-90754004D01*
X106329341Y-90647659D01*
X106222996Y-90518078D01*
X106214886Y-90502906D01*
X106143976Y-90370242D01*
X106095313Y-90209823D01*
X106078883Y-90043000D01*
X106095313Y-89876177D01*
X106143976Y-89715758D01*
X106222995Y-89567924D01*
X106222996Y-89567922D01*
X106329341Y-89438341D01*
X106458922Y-89331996D01*
X106474094Y-89323886D01*
X106606758Y-89252976D01*
X106767177Y-89204313D01*
X106892196Y-89192000D01*
X106975804Y-89192000D01*
X107100823Y-89204313D01*
X107100823Y-89204313D01*
G37*
G36*
X112180823Y-89204313D02*
G01*
X112341242Y-89252976D01*
X112473906Y-89323886D01*
X112489078Y-89331996D01*
X112618659Y-89438341D01*
X112725004Y-89567922D01*
X112725005Y-89567924D01*
X112804024Y-89715758D01*
X112852687Y-89876177D01*
X112869117Y-90043000D01*
X112852687Y-90209823D01*
X112804024Y-90370242D01*
X112733114Y-90502906D01*
X112725004Y-90518078D01*
X112618659Y-90647659D01*
X112489078Y-90754004D01*
X112489076Y-90754005D01*
X112341242Y-90833024D01*
X112180823Y-90881687D01*
X112055804Y-90894000D01*
X111972196Y-90894000D01*
X111847177Y-90881687D01*
X111686758Y-90833024D01*
X111538924Y-90754005D01*
X111538922Y-90754004D01*
X111409341Y-90647659D01*
X111302996Y-90518078D01*
X111294886Y-90502906D01*
X111223976Y-90370242D01*
X111175313Y-90209823D01*
X111158883Y-90043000D01*
X111175313Y-89876177D01*
X111223976Y-89715758D01*
X111302995Y-89567924D01*
X111302996Y-89567922D01*
X111409341Y-89438341D01*
X111538922Y-89331996D01*
X111554094Y-89323886D01*
X111686758Y-89252976D01*
X111847177Y-89204313D01*
X111972196Y-89192000D01*
X112055804Y-89192000D01*
X112180823Y-89204313D01*
X112180823Y-89204313D01*
G37*
G36*
X114720823Y-89204313D02*
G01*
X114881242Y-89252976D01*
X115013906Y-89323886D01*
X115029078Y-89331996D01*
X115158659Y-89438341D01*
X115265004Y-89567922D01*
X115265005Y-89567924D01*
X115344024Y-89715758D01*
X115392687Y-89876177D01*
X115409117Y-90043000D01*
X115392687Y-90209823D01*
X115344024Y-90370242D01*
X115273114Y-90502906D01*
X115265004Y-90518078D01*
X115158659Y-90647659D01*
X115029078Y-90754004D01*
X115029076Y-90754005D01*
X114881242Y-90833024D01*
X114720823Y-90881687D01*
X114595804Y-90894000D01*
X114512196Y-90894000D01*
X114387177Y-90881687D01*
X114226758Y-90833024D01*
X114078924Y-90754005D01*
X114078922Y-90754004D01*
X113949341Y-90647659D01*
X113842996Y-90518078D01*
X113834886Y-90502906D01*
X113763976Y-90370242D01*
X113715313Y-90209823D01*
X113698883Y-90043000D01*
X113715313Y-89876177D01*
X113763976Y-89715758D01*
X113842995Y-89567924D01*
X113842996Y-89567922D01*
X113949341Y-89438341D01*
X114078922Y-89331996D01*
X114094094Y-89323886D01*
X114226758Y-89252976D01*
X114387177Y-89204313D01*
X114512196Y-89192000D01*
X114595804Y-89192000D01*
X114720823Y-89204313D01*
X114720823Y-89204313D01*
G37*
G36*
X117260823Y-89204313D02*
G01*
X117421242Y-89252976D01*
X117553906Y-89323886D01*
X117569078Y-89331996D01*
X117698659Y-89438341D01*
X117805004Y-89567922D01*
X117805005Y-89567924D01*
X117884024Y-89715758D01*
X117932687Y-89876177D01*
X117949117Y-90043000D01*
X117932687Y-90209823D01*
X117884024Y-90370242D01*
X117813114Y-90502906D01*
X117805004Y-90518078D01*
X117698659Y-90647659D01*
X117569078Y-90754004D01*
X117569076Y-90754005D01*
X117421242Y-90833024D01*
X117260823Y-90881687D01*
X117135804Y-90894000D01*
X117052196Y-90894000D01*
X116927177Y-90881687D01*
X116766758Y-90833024D01*
X116618924Y-90754005D01*
X116618922Y-90754004D01*
X116489341Y-90647659D01*
X116382996Y-90518078D01*
X116374886Y-90502906D01*
X116303976Y-90370242D01*
X116255313Y-90209823D01*
X116238883Y-90043000D01*
X116255313Y-89876177D01*
X116303976Y-89715758D01*
X116382995Y-89567924D01*
X116382996Y-89567922D01*
X116489341Y-89438341D01*
X116618922Y-89331996D01*
X116634094Y-89323886D01*
X116766758Y-89252976D01*
X116927177Y-89204313D01*
X117052196Y-89192000D01*
X117135804Y-89192000D01*
X117260823Y-89204313D01*
X117260823Y-89204313D01*
G37*
G36*
X103499256Y-64991298D02*
G01*
X103605579Y-65012447D01*
X103906042Y-65136903D01*
X104176451Y-65317585D01*
X104406415Y-65547549D01*
X104556709Y-65772480D01*
X104587098Y-65817960D01*
X104711553Y-66118422D01*
X104775000Y-66437389D01*
X104775000Y-66762611D01*
X104732702Y-66975256D01*
X104711553Y-67081579D01*
X104623550Y-67294037D01*
X104599256Y-67352689D01*
X104587097Y-67382042D01*
X104406415Y-67652451D01*
X104176451Y-67882415D01*
X103906042Y-68063097D01*
X103605579Y-68187553D01*
X103499256Y-68208702D01*
X103286611Y-68251000D01*
X102961389Y-68251000D01*
X102748744Y-68208702D01*
X102642421Y-68187553D01*
X102341958Y-68063097D01*
X102071549Y-67882415D01*
X101841585Y-67652451D01*
X101660903Y-67382042D01*
X101648745Y-67352689D01*
X101624450Y-67294037D01*
X101536447Y-67081579D01*
X101515298Y-66975256D01*
X101473000Y-66762611D01*
X101473000Y-66437389D01*
X101536447Y-66118422D01*
X101660902Y-65817960D01*
X101691291Y-65772480D01*
X101841585Y-65547549D01*
X102071549Y-65317585D01*
X102341958Y-65136903D01*
X102642421Y-65012447D01*
X102748744Y-64991298D01*
X102961389Y-64949000D01*
X103286611Y-64949000D01*
X103499256Y-64991298D01*
X103499256Y-64991298D01*
G37*
G36*
X153537256Y-64991298D02*
G01*
X153643579Y-65012447D01*
X153944042Y-65136903D01*
X154214451Y-65317585D01*
X154444415Y-65547549D01*
X154594709Y-65772480D01*
X154625098Y-65817960D01*
X154749553Y-66118422D01*
X154813000Y-66437389D01*
X154813000Y-66762611D01*
X154770702Y-66975256D01*
X154749553Y-67081579D01*
X154661550Y-67294037D01*
X154637256Y-67352689D01*
X154625097Y-67382042D01*
X154444415Y-67652451D01*
X154214451Y-67882415D01*
X153944042Y-68063097D01*
X153643579Y-68187553D01*
X153537256Y-68208702D01*
X153324611Y-68251000D01*
X152999389Y-68251000D01*
X152786744Y-68208702D01*
X152680421Y-68187553D01*
X152379958Y-68063097D01*
X152109549Y-67882415D01*
X151879585Y-67652451D01*
X151698903Y-67382042D01*
X151686745Y-67352689D01*
X151662450Y-67294037D01*
X151574447Y-67081579D01*
X151553298Y-66975256D01*
X151511000Y-66762611D01*
X151511000Y-66437389D01*
X151574447Y-66118422D01*
X151698902Y-65817960D01*
X151729291Y-65772480D01*
X151879585Y-65547549D01*
X152109549Y-65317585D01*
X152379958Y-65136903D01*
X152680421Y-65012447D01*
X152786744Y-64991298D01*
X152999389Y-64949000D01*
X153324611Y-64949000D01*
X153537256Y-64991298D01*
X153537256Y-64991298D01*
G37*
G36*
X139787795Y-65214156D02*
G01*
X139894150Y-65235311D01*
X139994334Y-65276809D01*
X140094520Y-65318307D01*
X140274844Y-65438795D01*
X140428205Y-65592156D01*
X140548693Y-65772480D01*
X140631689Y-65972851D01*
X140674000Y-66185560D01*
X140674000Y-66402440D01*
X140631689Y-66615149D01*
X140548693Y-66815520D01*
X140428205Y-66995844D01*
X140274844Y-67149205D01*
X140094520Y-67269693D01*
X139894150Y-67352689D01*
X139787794Y-67373845D01*
X139681440Y-67395000D01*
X139464560Y-67395000D01*
X139358206Y-67373845D01*
X139251850Y-67352689D01*
X139051480Y-67269693D01*
X138871156Y-67149205D01*
X138717795Y-66995844D01*
X138597307Y-66815520D01*
X138514311Y-66615149D01*
X138472000Y-66402440D01*
X138472000Y-66185560D01*
X138514311Y-65972851D01*
X138597307Y-65772480D01*
X138717795Y-65592156D01*
X138871156Y-65438795D01*
X139051480Y-65318307D01*
X139151666Y-65276809D01*
X139251850Y-65235311D01*
X139358205Y-65214156D01*
X139464560Y-65193000D01*
X139681440Y-65193000D01*
X139787795Y-65214156D01*
X139787795Y-65214156D01*
G37*
G36*
X137287795Y-65214156D02*
G01*
X137394150Y-65235311D01*
X137494334Y-65276809D01*
X137594520Y-65318307D01*
X137774844Y-65438795D01*
X137928205Y-65592156D01*
X138048693Y-65772480D01*
X138131689Y-65972851D01*
X138174000Y-66185560D01*
X138174000Y-66402440D01*
X138131689Y-66615149D01*
X138048693Y-66815520D01*
X137928205Y-66995844D01*
X137774844Y-67149205D01*
X137594520Y-67269693D01*
X137394150Y-67352689D01*
X137287794Y-67373845D01*
X137181440Y-67395000D01*
X136964560Y-67395000D01*
X136858206Y-67373845D01*
X136751850Y-67352689D01*
X136551480Y-67269693D01*
X136371156Y-67149205D01*
X136217795Y-66995844D01*
X136097307Y-66815520D01*
X136014311Y-66615149D01*
X135972000Y-66402440D01*
X135972000Y-66185560D01*
X136014311Y-65972851D01*
X136097307Y-65772480D01*
X136217795Y-65592156D01*
X136371156Y-65438795D01*
X136551480Y-65318307D01*
X136651666Y-65276809D01*
X136751850Y-65235311D01*
X136858205Y-65214156D01*
X136964560Y-65193000D01*
X137181440Y-65193000D01*
X137287795Y-65214156D01*
X137287795Y-65214156D01*
G37*
G36*
X134787795Y-65214156D02*
G01*
X134894150Y-65235311D01*
X134994334Y-65276809D01*
X135094520Y-65318307D01*
X135274844Y-65438795D01*
X135428205Y-65592156D01*
X135548693Y-65772480D01*
X135631689Y-65972851D01*
X135674000Y-66185560D01*
X135674000Y-66402440D01*
X135631689Y-66615149D01*
X135548693Y-66815520D01*
X135428205Y-66995844D01*
X135274844Y-67149205D01*
X135094520Y-67269693D01*
X134894150Y-67352689D01*
X134787794Y-67373845D01*
X134681440Y-67395000D01*
X134464560Y-67395000D01*
X134358206Y-67373845D01*
X134251850Y-67352689D01*
X134051480Y-67269693D01*
X133871156Y-67149205D01*
X133717795Y-66995844D01*
X133597307Y-66815520D01*
X133514311Y-66615149D01*
X133472000Y-66402440D01*
X133472000Y-66185560D01*
X133514311Y-65972851D01*
X133597307Y-65772480D01*
X133717795Y-65592156D01*
X133871156Y-65438795D01*
X134051480Y-65318307D01*
X134151666Y-65276809D01*
X134251850Y-65235311D01*
X134358205Y-65214156D01*
X134464560Y-65193000D01*
X134681440Y-65193000D01*
X134787795Y-65214156D01*
X134787795Y-65214156D01*
G37*
G36*
X122515795Y-65214156D02*
G01*
X122622150Y-65235311D01*
X122722334Y-65276809D01*
X122822520Y-65318307D01*
X123002844Y-65438795D01*
X123156205Y-65592156D01*
X123276693Y-65772480D01*
X123359689Y-65972851D01*
X123402000Y-66185560D01*
X123402000Y-66402440D01*
X123359689Y-66615149D01*
X123276693Y-66815520D01*
X123156205Y-66995844D01*
X123002844Y-67149205D01*
X122822520Y-67269693D01*
X122622150Y-67352689D01*
X122515794Y-67373845D01*
X122409440Y-67395000D01*
X122192560Y-67395000D01*
X122086206Y-67373845D01*
X121979850Y-67352689D01*
X121779480Y-67269693D01*
X121599156Y-67149205D01*
X121445795Y-66995844D01*
X121325307Y-66815520D01*
X121242311Y-66615149D01*
X121200000Y-66402440D01*
X121200000Y-66185560D01*
X121242311Y-65972851D01*
X121325307Y-65772480D01*
X121445795Y-65592156D01*
X121599156Y-65438795D01*
X121779480Y-65318307D01*
X121879666Y-65276809D01*
X121979850Y-65235311D01*
X122086205Y-65214156D01*
X122192560Y-65193000D01*
X122409440Y-65193000D01*
X122515795Y-65214156D01*
X122515795Y-65214156D01*
G37*
G36*
X120015795Y-65214156D02*
G01*
X120122150Y-65235311D01*
X120222334Y-65276809D01*
X120322520Y-65318307D01*
X120502844Y-65438795D01*
X120656205Y-65592156D01*
X120776693Y-65772480D01*
X120859689Y-65972851D01*
X120902000Y-66185560D01*
X120902000Y-66402440D01*
X120859689Y-66615149D01*
X120776693Y-66815520D01*
X120656205Y-66995844D01*
X120502844Y-67149205D01*
X120322520Y-67269693D01*
X120122150Y-67352689D01*
X120015794Y-67373845D01*
X119909440Y-67395000D01*
X119692560Y-67395000D01*
X119586206Y-67373845D01*
X119479850Y-67352689D01*
X119279480Y-67269693D01*
X119099156Y-67149205D01*
X118945795Y-66995844D01*
X118825307Y-66815520D01*
X118742311Y-66615149D01*
X118700000Y-66402440D01*
X118700000Y-66185560D01*
X118742311Y-65972851D01*
X118825307Y-65772480D01*
X118945795Y-65592156D01*
X119099156Y-65438795D01*
X119279480Y-65318307D01*
X119379666Y-65276809D01*
X119479850Y-65235311D01*
X119586205Y-65214156D01*
X119692560Y-65193000D01*
X119909440Y-65193000D01*
X120015795Y-65214156D01*
X120015795Y-65214156D01*
G37*
G36*
X117515795Y-65214156D02*
G01*
X117622150Y-65235311D01*
X117722334Y-65276809D01*
X117822520Y-65318307D01*
X118002844Y-65438795D01*
X118156205Y-65592156D01*
X118276693Y-65772480D01*
X118359689Y-65972851D01*
X118402000Y-66185560D01*
X118402000Y-66402440D01*
X118359689Y-66615149D01*
X118276693Y-66815520D01*
X118156205Y-66995844D01*
X118002844Y-67149205D01*
X117822520Y-67269693D01*
X117622150Y-67352689D01*
X117515794Y-67373845D01*
X117409440Y-67395000D01*
X117192560Y-67395000D01*
X117086206Y-67373845D01*
X116979850Y-67352689D01*
X116779480Y-67269693D01*
X116599156Y-67149205D01*
X116445795Y-66995844D01*
X116325307Y-66815520D01*
X116242311Y-66615149D01*
X116200000Y-66402440D01*
X116200000Y-66185560D01*
X116242311Y-65972851D01*
X116325307Y-65772480D01*
X116445795Y-65592156D01*
X116599156Y-65438795D01*
X116779480Y-65318307D01*
X116879666Y-65276809D01*
X116979850Y-65235311D01*
X117086205Y-65214156D01*
X117192560Y-65193000D01*
X117409440Y-65193000D01*
X117515795Y-65214156D01*
X117515795Y-65214156D01*
G37*
M02*
