M48
; DRILL file {KiCad (5.1.2-1)-1} date Saturday, 15 June 2019 at 18:23:27
; FORMAT={-:-/ absolute / inch / decimal}
; #@! TF.CreationDate,2019-06-15T18:23:27+02:00
; #@! TF.GenerationSoftware,Kicad,Pcbnew,(5.1.2-1)-1
; #@! TF.FileFunction,Plated,1,2,PTH
FMAT,2
INCH
T1C0.0118
T2C0.0315
T3C0.0394
T4C0.0402
T5C0.0433
%
G90
G05
T1
X4.01Y-4.58
X4.085Y-4.315
X4.22Y-4.865
X4.2214Y-4.605
X4.26Y-4.405
X4.2669Y-2.955
X4.2669Y-3.0131
X4.33Y-3.145
X4.33Y-3.245
X4.33Y-3.295
X4.385Y-4.505
X4.395Y-3.145
X4.395Y-3.34
X4.395Y-3.415
X4.395Y-4.405
X4.46Y-2.955
X4.46Y-3.015
X4.46Y-4.305
X4.56Y-3.645
X4.585Y-4.505
X4.65Y-3.115
X4.6994Y-2.885
X4.78Y-4.605
X4.7994Y-3.25
X4.855Y-3.115
X4.86Y-4.275
X4.8994Y-3.25
X4.955Y-4.285
X5.1737Y-3.3487
X5.175Y-3.435
X5.4Y-2.955
X5.4Y-3.035
X5.4737Y-3.165
X5.4737Y-3.265
X5.525Y-3.165
X5.525Y-3.365
X5.525Y-3.435
X5.529Y-4.6554
X5.5297Y-4.3046
X5.5301Y-4.5693
X5.564Y-4.3046
X5.5644Y-4.655
X5.5651Y-4.5693
X5.6Y-2.95
X5.6Y-3.035
X5.73Y-4.625
X5.7344Y-4.48
X5.7794Y-4.48
X5.8337Y-2.9
X5.8337Y-3.085
X5.8337Y-4.7087
X5.86Y-4.625
X5.9387Y-3.08
X5.9387Y-3.265
X6.0387Y-3.265
X6.085Y-4.48
X6.09Y-3.585
X6.09Y-4.14
T2
X4.01Y-3.545
X4.01Y-4.145
X4.11Y-3.545
X4.11Y-4.145
X4.21Y-3.545
X4.21Y-4.145
X4.31Y-3.545
X4.31Y-4.145
X4.41Y-3.545
X4.41Y-4.145
X4.51Y-3.545
X4.51Y-4.145
X4.61Y-3.545
X4.61Y-4.145
X4.71Y-3.545
X4.71Y-4.145
X4.81Y-3.545
X4.81Y-4.145
X4.91Y-3.545
X4.91Y-4.145
X5.01Y-3.545
X5.01Y-4.145
X5.11Y-3.545
X5.11Y-4.145
X5.21Y-3.545
X5.21Y-4.145
X5.31Y-3.545
X5.31Y-4.145
X5.41Y-3.545
X5.41Y-4.145
T3
X5.015Y-4.55
X5.015Y-4.65
X4.31Y-4.775
X4.41Y-4.775
X4.51Y-4.775
X4.61Y-4.775
T4
X5.9241Y-3.76
X5.9241Y-3.86
X5.9241Y-3.96
T5
X5.2981Y-2.61
X5.3966Y-2.61
X5.495Y-2.61
X4.6181Y-2.61
X4.7166Y-2.61
X4.815Y-2.61
T0
M30
