G04 #@! TF.GenerationSoftware,KiCad,Pcbnew,(5.1.2-1)-1*
G04 #@! TF.CreationDate,2019-06-15T18:23:21+02:00*
G04 #@! TF.ProjectId,laser_control,6c617365-725f-4636-9f6e-74726f6c2e6b,rev?*
G04 #@! TF.SameCoordinates,Original*
G04 #@! TF.FileFunction,Drawing*
%FSLAX46Y46*%
G04 Gerber Fmt 4.6, Leading zero omitted, Abs format (unit mm)*
G04 Created by KiCad (PCBNEW (5.1.2-1)-1) date 2019-06-15 18:23:21*
%MOMM*%
%LPD*%
G04 APERTURE LIST*
%ADD10C,0.150000*%
G04 APERTURE END LIST*
D10*
X161407380Y-67240357D02*
X161407380Y-67716547D01*
X161883571Y-67764166D01*
X161835952Y-67716547D01*
X161788333Y-67621309D01*
X161788333Y-67383214D01*
X161835952Y-67287976D01*
X161883571Y-67240357D01*
X161978809Y-67192738D01*
X162216904Y-67192738D01*
X162312142Y-67240357D01*
X162359761Y-67287976D01*
X162407380Y-67383214D01*
X162407380Y-67621309D01*
X162359761Y-67716547D01*
X162312142Y-67764166D01*
X162312142Y-66764166D02*
X162359761Y-66716547D01*
X162407380Y-66764166D01*
X162359761Y-66811785D01*
X162312142Y-66764166D01*
X162407380Y-66764166D01*
X161407380Y-66097500D02*
X161407380Y-66002261D01*
X161455000Y-65907023D01*
X161502619Y-65859404D01*
X161597857Y-65811785D01*
X161788333Y-65764166D01*
X162026428Y-65764166D01*
X162216904Y-65811785D01*
X162312142Y-65859404D01*
X162359761Y-65907023D01*
X162407380Y-66002261D01*
X162407380Y-66097500D01*
X162359761Y-66192738D01*
X162312142Y-66240357D01*
X162216904Y-66287976D01*
X162026428Y-66335595D01*
X161788333Y-66335595D01*
X161597857Y-66287976D01*
X161502619Y-66240357D01*
X161455000Y-66192738D01*
X161407380Y-66097500D01*
X161407380Y-65145119D02*
X161407380Y-65049880D01*
X161455000Y-64954642D01*
X161502619Y-64907023D01*
X161597857Y-64859404D01*
X161788333Y-64811785D01*
X162026428Y-64811785D01*
X162216904Y-64859404D01*
X162312142Y-64907023D01*
X162359761Y-64954642D01*
X162407380Y-65049880D01*
X162407380Y-65145119D01*
X162359761Y-65240357D01*
X162312142Y-65287976D01*
X162216904Y-65335595D01*
X162026428Y-65383214D01*
X161788333Y-65383214D01*
X161597857Y-65335595D01*
X161502619Y-65287976D01*
X161455000Y-65240357D01*
X161407380Y-65145119D01*
X161407380Y-63907023D02*
X161407380Y-64383214D01*
X161883571Y-64430833D01*
X161835952Y-64383214D01*
X161788333Y-64287976D01*
X161788333Y-64049880D01*
X161835952Y-63954642D01*
X161883571Y-63907023D01*
X161978809Y-63859404D01*
X162216904Y-63859404D01*
X162312142Y-63907023D01*
X162359761Y-63954642D01*
X162407380Y-64049880D01*
X162407380Y-64287976D01*
X162359761Y-64383214D01*
X162312142Y-64430833D01*
X162407380Y-62668928D02*
X161740714Y-62668928D01*
X161835952Y-62668928D02*
X161788333Y-62621309D01*
X161740714Y-62526071D01*
X161740714Y-62383214D01*
X161788333Y-62287976D01*
X161883571Y-62240357D01*
X162407380Y-62240357D01*
X161883571Y-62240357D02*
X161788333Y-62192738D01*
X161740714Y-62097500D01*
X161740714Y-61954642D01*
X161788333Y-61859404D01*
X161883571Y-61811785D01*
X162407380Y-61811785D01*
X162407380Y-61335595D02*
X161740714Y-61335595D01*
X161835952Y-61335595D02*
X161788333Y-61287976D01*
X161740714Y-61192738D01*
X161740714Y-61049880D01*
X161788333Y-60954642D01*
X161883571Y-60907023D01*
X162407380Y-60907023D01*
X161883571Y-60907023D02*
X161788333Y-60859404D01*
X161740714Y-60764166D01*
X161740714Y-60621309D01*
X161788333Y-60526071D01*
X161883571Y-60478452D01*
X162407380Y-60478452D01*
X160655000Y-66600000D02*
X160655000Y-61595000D01*
X153162000Y-66600000D02*
X161241421Y-66600000D01*
X153162000Y-61595000D02*
X161241421Y-61595000D01*
X160655000Y-61595000D02*
X161241421Y-62721504D01*
X160655000Y-61595000D02*
X160068579Y-62721504D01*
X160655000Y-66600000D02*
X161241421Y-65473496D01*
X160655000Y-66600000D02*
X160068579Y-65473496D01*
X152590892Y-55302380D02*
X152114702Y-55302380D01*
X152067083Y-55778571D01*
X152114702Y-55730952D01*
X152209940Y-55683333D01*
X152448035Y-55683333D01*
X152543273Y-55730952D01*
X152590892Y-55778571D01*
X152638511Y-55873809D01*
X152638511Y-56111904D01*
X152590892Y-56207142D01*
X152543273Y-56254761D01*
X152448035Y-56302380D01*
X152209940Y-56302380D01*
X152114702Y-56254761D01*
X152067083Y-56207142D01*
X153067083Y-56207142D02*
X153114702Y-56254761D01*
X153067083Y-56302380D01*
X153019464Y-56254761D01*
X153067083Y-56207142D01*
X153067083Y-56302380D01*
X154067083Y-56302380D02*
X153495654Y-56302380D01*
X153781369Y-56302380D02*
X153781369Y-55302380D01*
X153686130Y-55445238D01*
X153590892Y-55540476D01*
X153495654Y-55588095D01*
X154924226Y-55635714D02*
X154924226Y-56302380D01*
X154686130Y-55254761D02*
X154448035Y-55969047D01*
X155067083Y-55969047D01*
X155876607Y-55635714D02*
X155876607Y-56302380D01*
X155638511Y-55254761D02*
X155400416Y-55969047D01*
X156019464Y-55969047D01*
X157162321Y-56302380D02*
X157162321Y-55635714D01*
X157162321Y-55730952D02*
X157209940Y-55683333D01*
X157305178Y-55635714D01*
X157448035Y-55635714D01*
X157543273Y-55683333D01*
X157590892Y-55778571D01*
X157590892Y-56302380D01*
X157590892Y-55778571D02*
X157638511Y-55683333D01*
X157733750Y-55635714D01*
X157876607Y-55635714D01*
X157971845Y-55683333D01*
X158019464Y-55778571D01*
X158019464Y-56302380D01*
X158495654Y-56302380D02*
X158495654Y-55635714D01*
X158495654Y-55730952D02*
X158543273Y-55683333D01*
X158638511Y-55635714D01*
X158781369Y-55635714D01*
X158876607Y-55683333D01*
X158924226Y-55778571D01*
X158924226Y-56302380D01*
X158924226Y-55778571D02*
X158971845Y-55683333D01*
X159067083Y-55635714D01*
X159209940Y-55635714D01*
X159305178Y-55683333D01*
X159352797Y-55778571D01*
X159352797Y-56302380D01*
X153162000Y-57150000D02*
X158305500Y-57150000D01*
X153162000Y-66548000D02*
X153162000Y-56563579D01*
X158305500Y-66548000D02*
X158305500Y-56563579D01*
X158305500Y-57150000D02*
X157178996Y-57736421D01*
X158305500Y-57150000D02*
X157178996Y-56563579D01*
X153162000Y-57150000D02*
X154288504Y-57736421D01*
X153162000Y-57150000D02*
X154288504Y-56563579D01*
X97457023Y-131324214D02*
X97457023Y-131990880D01*
X97218928Y-130943261D02*
X96980833Y-131657547D01*
X97599880Y-131657547D01*
X97980833Y-131895642D02*
X98028452Y-131943261D01*
X97980833Y-131990880D01*
X97933214Y-131943261D01*
X97980833Y-131895642D01*
X97980833Y-131990880D01*
X98504642Y-131990880D02*
X98695119Y-131990880D01*
X98790357Y-131943261D01*
X98837976Y-131895642D01*
X98933214Y-131752785D01*
X98980833Y-131562309D01*
X98980833Y-131181357D01*
X98933214Y-131086119D01*
X98885595Y-131038500D01*
X98790357Y-130990880D01*
X98599880Y-130990880D01*
X98504642Y-131038500D01*
X98457023Y-131086119D01*
X98409404Y-131181357D01*
X98409404Y-131419452D01*
X98457023Y-131514690D01*
X98504642Y-131562309D01*
X98599880Y-131609928D01*
X98790357Y-131609928D01*
X98885595Y-131562309D01*
X98933214Y-131514690D01*
X98980833Y-131419452D01*
X99885595Y-130990880D02*
X99409404Y-130990880D01*
X99361785Y-131467071D01*
X99409404Y-131419452D01*
X99504642Y-131371833D01*
X99742738Y-131371833D01*
X99837976Y-131419452D01*
X99885595Y-131467071D01*
X99933214Y-131562309D01*
X99933214Y-131800404D01*
X99885595Y-131895642D01*
X99837976Y-131943261D01*
X99742738Y-131990880D01*
X99504642Y-131990880D01*
X99409404Y-131943261D01*
X99361785Y-131895642D01*
X100266547Y-130990880D02*
X100885595Y-130990880D01*
X100552261Y-131371833D01*
X100695119Y-131371833D01*
X100790357Y-131419452D01*
X100837976Y-131467071D01*
X100885595Y-131562309D01*
X100885595Y-131800404D01*
X100837976Y-131895642D01*
X100790357Y-131943261D01*
X100695119Y-131990880D01*
X100409404Y-131990880D01*
X100314166Y-131943261D01*
X100266547Y-131895642D01*
X102076071Y-131990880D02*
X102076071Y-131324214D01*
X102076071Y-131419452D02*
X102123690Y-131371833D01*
X102218928Y-131324214D01*
X102361785Y-131324214D01*
X102457023Y-131371833D01*
X102504642Y-131467071D01*
X102504642Y-131990880D01*
X102504642Y-131467071D02*
X102552261Y-131371833D01*
X102647500Y-131324214D01*
X102790357Y-131324214D01*
X102885595Y-131371833D01*
X102933214Y-131467071D01*
X102933214Y-131990880D01*
X103409404Y-131990880D02*
X103409404Y-131324214D01*
X103409404Y-131419452D02*
X103457023Y-131371833D01*
X103552261Y-131324214D01*
X103695119Y-131324214D01*
X103790357Y-131371833D01*
X103837976Y-131467071D01*
X103837976Y-131990880D01*
X103837976Y-131467071D02*
X103885595Y-131371833D01*
X103980833Y-131324214D01*
X104123690Y-131324214D01*
X104218928Y-131371833D01*
X104266547Y-131467071D01*
X104266547Y-131990880D01*
X103124000Y-130238500D02*
X98171000Y-130238500D01*
X103124000Y-121600000D02*
X103124000Y-130824921D01*
X98171000Y-121600000D02*
X98171000Y-130824921D01*
X98171000Y-130238500D02*
X99297504Y-129652079D01*
X98171000Y-130238500D02*
X99297504Y-130824921D01*
X103124000Y-130238500D02*
X101997496Y-129652079D01*
X103124000Y-130238500D02*
X101997496Y-130824921D01*
X94942119Y-120966642D02*
X94942119Y-120490452D01*
X94465928Y-120442833D01*
X94513547Y-120490452D01*
X94561166Y-120585690D01*
X94561166Y-120823785D01*
X94513547Y-120919023D01*
X94465928Y-120966642D01*
X94370690Y-121014261D01*
X94132595Y-121014261D01*
X94037357Y-120966642D01*
X93989738Y-120919023D01*
X93942119Y-120823785D01*
X93942119Y-120585690D01*
X93989738Y-120490452D01*
X94037357Y-120442833D01*
X94037357Y-121442833D02*
X93989738Y-121490452D01*
X93942119Y-121442833D01*
X93989738Y-121395214D01*
X94037357Y-121442833D01*
X93942119Y-121442833D01*
X94942119Y-122109500D02*
X94942119Y-122204738D01*
X94894500Y-122299976D01*
X94846880Y-122347595D01*
X94751642Y-122395214D01*
X94561166Y-122442833D01*
X94323071Y-122442833D01*
X94132595Y-122395214D01*
X94037357Y-122347595D01*
X93989738Y-122299976D01*
X93942119Y-122204738D01*
X93942119Y-122109500D01*
X93989738Y-122014261D01*
X94037357Y-121966642D01*
X94132595Y-121919023D01*
X94323071Y-121871404D01*
X94561166Y-121871404D01*
X94751642Y-121919023D01*
X94846880Y-121966642D01*
X94894500Y-122014261D01*
X94942119Y-122109500D01*
X93942119Y-123395214D02*
X93942119Y-122823785D01*
X93942119Y-123109500D02*
X94942119Y-123109500D01*
X94799261Y-123014261D01*
X94704023Y-122919023D01*
X94656404Y-122823785D01*
X93942119Y-123871404D02*
X93942119Y-124061880D01*
X93989738Y-124157119D01*
X94037357Y-124204738D01*
X94180214Y-124299976D01*
X94370690Y-124347595D01*
X94751642Y-124347595D01*
X94846880Y-124299976D01*
X94894500Y-124252357D01*
X94942119Y-124157119D01*
X94942119Y-123966642D01*
X94894500Y-123871404D01*
X94846880Y-123823785D01*
X94751642Y-123776166D01*
X94513547Y-123776166D01*
X94418309Y-123823785D01*
X94370690Y-123871404D01*
X94323071Y-123966642D01*
X94323071Y-124157119D01*
X94370690Y-124252357D01*
X94418309Y-124299976D01*
X94513547Y-124347595D01*
X93942119Y-125538071D02*
X94608785Y-125538071D01*
X94513547Y-125538071D02*
X94561166Y-125585690D01*
X94608785Y-125680928D01*
X94608785Y-125823785D01*
X94561166Y-125919023D01*
X94465928Y-125966642D01*
X93942119Y-125966642D01*
X94465928Y-125966642D02*
X94561166Y-126014261D01*
X94608785Y-126109500D01*
X94608785Y-126252357D01*
X94561166Y-126347595D01*
X94465928Y-126395214D01*
X93942119Y-126395214D01*
X93942119Y-126871404D02*
X94608785Y-126871404D01*
X94513547Y-126871404D02*
X94561166Y-126919023D01*
X94608785Y-127014261D01*
X94608785Y-127157119D01*
X94561166Y-127252357D01*
X94465928Y-127299976D01*
X93942119Y-127299976D01*
X94465928Y-127299976D02*
X94561166Y-127347595D01*
X94608785Y-127442833D01*
X94608785Y-127585690D01*
X94561166Y-127680928D01*
X94465928Y-127728547D01*
X93942119Y-127728547D01*
X95694500Y-121600000D02*
X95694500Y-126619000D01*
X103124000Y-121600000D02*
X95108079Y-121600000D01*
X103124000Y-126619000D02*
X95108079Y-126619000D01*
X95694500Y-126619000D02*
X95108079Y-125492496D01*
X95694500Y-126619000D02*
X96280921Y-125492496D01*
X95694500Y-121600000D02*
X95108079Y-122726504D01*
X95694500Y-121600000D02*
X96280921Y-122726504D01*
X93592880Y-67240357D02*
X93592880Y-67716547D01*
X94069071Y-67764166D01*
X94021452Y-67716547D01*
X93973833Y-67621309D01*
X93973833Y-67383214D01*
X94021452Y-67287976D01*
X94069071Y-67240357D01*
X94164309Y-67192738D01*
X94402404Y-67192738D01*
X94497642Y-67240357D01*
X94545261Y-67287976D01*
X94592880Y-67383214D01*
X94592880Y-67621309D01*
X94545261Y-67716547D01*
X94497642Y-67764166D01*
X94497642Y-66764166D02*
X94545261Y-66716547D01*
X94592880Y-66764166D01*
X94545261Y-66811785D01*
X94497642Y-66764166D01*
X94592880Y-66764166D01*
X93592880Y-66097500D02*
X93592880Y-66002261D01*
X93640500Y-65907023D01*
X93688119Y-65859404D01*
X93783357Y-65811785D01*
X93973833Y-65764166D01*
X94211928Y-65764166D01*
X94402404Y-65811785D01*
X94497642Y-65859404D01*
X94545261Y-65907023D01*
X94592880Y-66002261D01*
X94592880Y-66097500D01*
X94545261Y-66192738D01*
X94497642Y-66240357D01*
X94402404Y-66287976D01*
X94211928Y-66335595D01*
X93973833Y-66335595D01*
X93783357Y-66287976D01*
X93688119Y-66240357D01*
X93640500Y-66192738D01*
X93592880Y-66097500D01*
X93592880Y-65145119D02*
X93592880Y-65049880D01*
X93640500Y-64954642D01*
X93688119Y-64907023D01*
X93783357Y-64859404D01*
X93973833Y-64811785D01*
X94211928Y-64811785D01*
X94402404Y-64859404D01*
X94497642Y-64907023D01*
X94545261Y-64954642D01*
X94592880Y-65049880D01*
X94592880Y-65145119D01*
X94545261Y-65240357D01*
X94497642Y-65287976D01*
X94402404Y-65335595D01*
X94211928Y-65383214D01*
X93973833Y-65383214D01*
X93783357Y-65335595D01*
X93688119Y-65287976D01*
X93640500Y-65240357D01*
X93592880Y-65145119D01*
X93592880Y-63907023D02*
X93592880Y-64383214D01*
X94069071Y-64430833D01*
X94021452Y-64383214D01*
X93973833Y-64287976D01*
X93973833Y-64049880D01*
X94021452Y-63954642D01*
X94069071Y-63907023D01*
X94164309Y-63859404D01*
X94402404Y-63859404D01*
X94497642Y-63907023D01*
X94545261Y-63954642D01*
X94592880Y-64049880D01*
X94592880Y-64287976D01*
X94545261Y-64383214D01*
X94497642Y-64430833D01*
X94592880Y-62668928D02*
X93926214Y-62668928D01*
X94021452Y-62668928D02*
X93973833Y-62621309D01*
X93926214Y-62526071D01*
X93926214Y-62383214D01*
X93973833Y-62287976D01*
X94069071Y-62240357D01*
X94592880Y-62240357D01*
X94069071Y-62240357D02*
X93973833Y-62192738D01*
X93926214Y-62097500D01*
X93926214Y-61954642D01*
X93973833Y-61859404D01*
X94069071Y-61811785D01*
X94592880Y-61811785D01*
X94592880Y-61335595D02*
X93926214Y-61335595D01*
X94021452Y-61335595D02*
X93973833Y-61287976D01*
X93926214Y-61192738D01*
X93926214Y-61049880D01*
X93973833Y-60954642D01*
X94069071Y-60907023D01*
X94592880Y-60907023D01*
X94069071Y-60907023D02*
X93973833Y-60859404D01*
X93926214Y-60764166D01*
X93926214Y-60621309D01*
X93973833Y-60526071D01*
X94069071Y-60478452D01*
X94592880Y-60478452D01*
X95440500Y-66600000D02*
X95440500Y-61595000D01*
X103124000Y-66600000D02*
X94854079Y-66600000D01*
X103124000Y-61595000D02*
X94854079Y-61595000D01*
X95440500Y-61595000D02*
X96026921Y-62721504D01*
X95440500Y-61595000D02*
X94854079Y-62721504D01*
X95440500Y-66600000D02*
X96026921Y-65473496D01*
X95440500Y-66600000D02*
X94854079Y-65473496D01*
X97438478Y-58621893D02*
X97440026Y-59288558D01*
X97199499Y-58241495D02*
X96963063Y-58956331D01*
X97582109Y-58954894D01*
X97963613Y-59192104D02*
X98011343Y-59239612D01*
X97963834Y-59287342D01*
X97916105Y-59239833D01*
X97963613Y-59192104D01*
X97963834Y-59287342D01*
X98487642Y-59286126D02*
X98678118Y-59285683D01*
X98773245Y-59237843D01*
X98820754Y-59190114D01*
X98915660Y-59047036D01*
X98962837Y-58856450D01*
X98961952Y-58475498D01*
X98914112Y-58380371D01*
X98866383Y-58332863D01*
X98771034Y-58285465D01*
X98580558Y-58285907D01*
X98485431Y-58333747D01*
X98437923Y-58381477D01*
X98390525Y-58476825D01*
X98391078Y-58714920D01*
X98438918Y-58810047D01*
X98486647Y-58857555D01*
X98581996Y-58904953D01*
X98772471Y-58904511D01*
X98867599Y-58856671D01*
X98915107Y-58808941D01*
X98962505Y-58713593D01*
X99866269Y-58282922D02*
X99390080Y-58284028D01*
X99343567Y-58760327D01*
X99391075Y-58712598D01*
X99486202Y-58664758D01*
X99724297Y-58664205D01*
X99819645Y-58711603D01*
X99867375Y-58759111D01*
X99915215Y-58854238D01*
X99915768Y-59092333D01*
X99868370Y-59187681D01*
X99820862Y-59235411D01*
X99725734Y-59283251D01*
X99487640Y-59283804D01*
X99392291Y-59236406D01*
X99344562Y-59188898D01*
X100247221Y-58282037D02*
X100866267Y-58280600D01*
X100533819Y-58662325D01*
X100676675Y-58661994D01*
X100772024Y-58709392D01*
X100819753Y-58756900D01*
X100867593Y-58852027D01*
X100868146Y-59090122D01*
X100820748Y-59185470D01*
X100773240Y-59233200D01*
X100678113Y-59281040D01*
X100392399Y-59281703D01*
X100297051Y-59234305D01*
X100249321Y-59186797D01*
X102059061Y-59277833D02*
X102057514Y-58611168D01*
X102057735Y-58706406D02*
X102105243Y-58658677D01*
X102200370Y-58610837D01*
X102343227Y-58610505D01*
X102438575Y-58657903D01*
X102486416Y-58753030D01*
X102487632Y-59276838D01*
X102486416Y-58753030D02*
X102533813Y-58657682D01*
X102628941Y-58609842D01*
X102771797Y-58609510D01*
X102867146Y-58656908D01*
X102914986Y-58752035D01*
X102916202Y-59275843D01*
X103392391Y-59274738D02*
X103390843Y-58608073D01*
X103391064Y-58703311D02*
X103438573Y-58655581D01*
X103533700Y-58607741D01*
X103676557Y-58607409D01*
X103771905Y-58654807D01*
X103819745Y-58749934D01*
X103820961Y-59273743D01*
X103819745Y-58749934D02*
X103867143Y-58654586D01*
X103962270Y-58606746D01*
X104105127Y-58606414D01*
X104200475Y-58653812D01*
X104248316Y-58748939D01*
X104249532Y-59272747D01*
X103108962Y-60123017D02*
X98155962Y-60134517D01*
X103124000Y-66600000D02*
X103107600Y-59536598D01*
X98171000Y-66611500D02*
X98154600Y-59548098D01*
X98155962Y-60134517D02*
X99281101Y-59545482D01*
X98155962Y-60134517D02*
X99283824Y-60718321D01*
X103108962Y-60123017D02*
X101981100Y-59539213D01*
X103108962Y-60123017D02*
X101983823Y-60712052D01*
X162502619Y-90454952D02*
X162502619Y-89978761D01*
X162026428Y-89931142D01*
X162074047Y-89978761D01*
X162121666Y-90074000D01*
X162121666Y-90312095D01*
X162074047Y-90407333D01*
X162026428Y-90454952D01*
X161931190Y-90502571D01*
X161693095Y-90502571D01*
X161597857Y-90454952D01*
X161550238Y-90407333D01*
X161502619Y-90312095D01*
X161502619Y-90074000D01*
X161550238Y-89978761D01*
X161597857Y-89931142D01*
X162502619Y-91407333D02*
X162502619Y-90931142D01*
X162026428Y-90883523D01*
X162074047Y-90931142D01*
X162121666Y-91026380D01*
X162121666Y-91264476D01*
X162074047Y-91359714D01*
X162026428Y-91407333D01*
X161931190Y-91454952D01*
X161693095Y-91454952D01*
X161597857Y-91407333D01*
X161550238Y-91359714D01*
X161502619Y-91264476D01*
X161502619Y-91026380D01*
X161550238Y-90931142D01*
X161597857Y-90883523D01*
X161597857Y-91883523D02*
X161550238Y-91931142D01*
X161502619Y-91883523D01*
X161550238Y-91835904D01*
X161597857Y-91883523D01*
X161502619Y-91883523D01*
X162502619Y-92550190D02*
X162502619Y-92645428D01*
X162455000Y-92740666D01*
X162407380Y-92788285D01*
X162312142Y-92835904D01*
X162121666Y-92883523D01*
X161883571Y-92883523D01*
X161693095Y-92835904D01*
X161597857Y-92788285D01*
X161550238Y-92740666D01*
X161502619Y-92645428D01*
X161502619Y-92550190D01*
X161550238Y-92454952D01*
X161597857Y-92407333D01*
X161693095Y-92359714D01*
X161883571Y-92312095D01*
X162121666Y-92312095D01*
X162312142Y-92359714D01*
X162407380Y-92407333D01*
X162455000Y-92454952D01*
X162502619Y-92550190D01*
X162502619Y-93788285D02*
X162502619Y-93312095D01*
X162026428Y-93264476D01*
X162074047Y-93312095D01*
X162121666Y-93407333D01*
X162121666Y-93645428D01*
X162074047Y-93740666D01*
X162026428Y-93788285D01*
X161931190Y-93835904D01*
X161693095Y-93835904D01*
X161597857Y-93788285D01*
X161550238Y-93740666D01*
X161502619Y-93645428D01*
X161502619Y-93407333D01*
X161550238Y-93312095D01*
X161597857Y-93264476D01*
X162407380Y-94216857D02*
X162455000Y-94264476D01*
X162502619Y-94359714D01*
X162502619Y-94597809D01*
X162455000Y-94693047D01*
X162407380Y-94740666D01*
X162312142Y-94788285D01*
X162216904Y-94788285D01*
X162074047Y-94740666D01*
X161502619Y-94169238D01*
X161502619Y-94788285D01*
X161502619Y-95978761D02*
X162169285Y-95978761D01*
X162074047Y-95978761D02*
X162121666Y-96026380D01*
X162169285Y-96121619D01*
X162169285Y-96264476D01*
X162121666Y-96359714D01*
X162026428Y-96407333D01*
X161502619Y-96407333D01*
X162026428Y-96407333D02*
X162121666Y-96454952D01*
X162169285Y-96550190D01*
X162169285Y-96693047D01*
X162121666Y-96788285D01*
X162026428Y-96835904D01*
X161502619Y-96835904D01*
X161502619Y-97312095D02*
X162169285Y-97312095D01*
X162074047Y-97312095D02*
X162121666Y-97359714D01*
X162169285Y-97454952D01*
X162169285Y-97597809D01*
X162121666Y-97693047D01*
X162026428Y-97740666D01*
X161502619Y-97740666D01*
X162026428Y-97740666D02*
X162121666Y-97788285D01*
X162169285Y-97883523D01*
X162169285Y-98026380D01*
X162121666Y-98121619D01*
X162026428Y-98169238D01*
X161502619Y-98169238D01*
X160655000Y-66548000D02*
X160655000Y-121600000D01*
X153162000Y-66548000D02*
X161241421Y-66548000D01*
X153162000Y-121600000D02*
X161241421Y-121600000D01*
X160655000Y-121600000D02*
X160068579Y-120473496D01*
X160655000Y-121600000D02*
X161241421Y-120473496D01*
X160655000Y-66548000D02*
X160068579Y-67674504D01*
X160655000Y-66548000D02*
X161241421Y-67674504D01*
X124523952Y-55302354D02*
X124047761Y-55302354D01*
X124000142Y-55778545D01*
X124047761Y-55730926D01*
X124143000Y-55683307D01*
X124381095Y-55683307D01*
X124476333Y-55730926D01*
X124523952Y-55778545D01*
X124571571Y-55873783D01*
X124571571Y-56111878D01*
X124523952Y-56207116D01*
X124476333Y-56254735D01*
X124381095Y-56302354D01*
X124143000Y-56302354D01*
X124047761Y-56254735D01*
X124000142Y-56207116D01*
X125190619Y-55302354D02*
X125285857Y-55302354D01*
X125381095Y-55349974D01*
X125428714Y-55397593D01*
X125476333Y-55492831D01*
X125523952Y-55683307D01*
X125523952Y-55921402D01*
X125476333Y-56111878D01*
X125428714Y-56207116D01*
X125381095Y-56254735D01*
X125285857Y-56302354D01*
X125190619Y-56302354D01*
X125095380Y-56254735D01*
X125047761Y-56207116D01*
X125000142Y-56111878D01*
X124952523Y-55921402D01*
X124952523Y-55683307D01*
X125000142Y-55492831D01*
X125047761Y-55397593D01*
X125095380Y-55349974D01*
X125190619Y-55302354D01*
X125952523Y-56207116D02*
X126000142Y-56254735D01*
X125952523Y-56302354D01*
X125904904Y-56254735D01*
X125952523Y-56207116D01*
X125952523Y-56302354D01*
X126619190Y-55302354D02*
X126714428Y-55302354D01*
X126809666Y-55349974D01*
X126857285Y-55397593D01*
X126904904Y-55492831D01*
X126952523Y-55683307D01*
X126952523Y-55921402D01*
X126904904Y-56111878D01*
X126857285Y-56207116D01*
X126809666Y-56254735D01*
X126714428Y-56302354D01*
X126619190Y-56302354D01*
X126523952Y-56254735D01*
X126476333Y-56207116D01*
X126428714Y-56111878D01*
X126381095Y-55921402D01*
X126381095Y-55683307D01*
X126428714Y-55492831D01*
X126476333Y-55397593D01*
X126523952Y-55349974D01*
X126619190Y-55302354D01*
X127285857Y-55302354D02*
X127904904Y-55302354D01*
X127571571Y-55683307D01*
X127714428Y-55683307D01*
X127809666Y-55730926D01*
X127857285Y-55778545D01*
X127904904Y-55873783D01*
X127904904Y-56111878D01*
X127857285Y-56207116D01*
X127809666Y-56254735D01*
X127714428Y-56302354D01*
X127428714Y-56302354D01*
X127333476Y-56254735D01*
X127285857Y-56207116D01*
X128476333Y-55730926D02*
X128381095Y-55683307D01*
X128333476Y-55635688D01*
X128285857Y-55540450D01*
X128285857Y-55492831D01*
X128333476Y-55397593D01*
X128381095Y-55349974D01*
X128476333Y-55302354D01*
X128666809Y-55302354D01*
X128762047Y-55349974D01*
X128809666Y-55397593D01*
X128857285Y-55492831D01*
X128857285Y-55540450D01*
X128809666Y-55635688D01*
X128762047Y-55683307D01*
X128666809Y-55730926D01*
X128476333Y-55730926D01*
X128381095Y-55778545D01*
X128333476Y-55826164D01*
X128285857Y-55921402D01*
X128285857Y-56111878D01*
X128333476Y-56207116D01*
X128381095Y-56254735D01*
X128476333Y-56302354D01*
X128666809Y-56302354D01*
X128762047Y-56254735D01*
X128809666Y-56207116D01*
X128857285Y-56111878D01*
X128857285Y-55921402D01*
X128809666Y-55826164D01*
X128762047Y-55778545D01*
X128666809Y-55730926D01*
X130047761Y-56302354D02*
X130047761Y-55635688D01*
X130047761Y-55730926D02*
X130095380Y-55683307D01*
X130190619Y-55635688D01*
X130333476Y-55635688D01*
X130428714Y-55683307D01*
X130476333Y-55778545D01*
X130476333Y-56302354D01*
X130476333Y-55778545D02*
X130523952Y-55683307D01*
X130619190Y-55635688D01*
X130762047Y-55635688D01*
X130857285Y-55683307D01*
X130904904Y-55778545D01*
X130904904Y-56302354D01*
X131381095Y-56302354D02*
X131381095Y-55635688D01*
X131381095Y-55730926D02*
X131428714Y-55683307D01*
X131523952Y-55635688D01*
X131666809Y-55635688D01*
X131762047Y-55683307D01*
X131809666Y-55778545D01*
X131809666Y-56302354D01*
X131809666Y-55778545D02*
X131857285Y-55683307D01*
X131952523Y-55635688D01*
X132095380Y-55635688D01*
X132190619Y-55683307D01*
X132238238Y-55778545D01*
X132238238Y-56302354D01*
X103124000Y-57149974D02*
X153162000Y-57149974D01*
X103124000Y-66294000D02*
X103124000Y-56563553D01*
X153162000Y-66294000D02*
X153162000Y-56563553D01*
X153162000Y-57149974D02*
X152035496Y-57736395D01*
X153162000Y-57149974D02*
X152035496Y-56563553D01*
X103124000Y-57149974D02*
X104250504Y-57736395D01*
X103124000Y-57149974D02*
X104250504Y-56563553D01*
X91729020Y-90440333D02*
X91729020Y-90249857D01*
X91681401Y-90154619D01*
X91633781Y-90107000D01*
X91490924Y-90011761D01*
X91300448Y-89964142D01*
X90919496Y-89964142D01*
X90824258Y-90011761D01*
X90776639Y-90059380D01*
X90729020Y-90154619D01*
X90729020Y-90345095D01*
X90776639Y-90440333D01*
X90824258Y-90487952D01*
X90919496Y-90535571D01*
X91157591Y-90535571D01*
X91252829Y-90487952D01*
X91300448Y-90440333D01*
X91348067Y-90345095D01*
X91348067Y-90154619D01*
X91300448Y-90059380D01*
X91252829Y-90011761D01*
X91157591Y-89964142D01*
X91729020Y-91440333D02*
X91729020Y-90964142D01*
X91252829Y-90916523D01*
X91300448Y-90964142D01*
X91348067Y-91059380D01*
X91348067Y-91297476D01*
X91300448Y-91392714D01*
X91252829Y-91440333D01*
X91157591Y-91487952D01*
X90919496Y-91487952D01*
X90824258Y-91440333D01*
X90776639Y-91392714D01*
X90729020Y-91297476D01*
X90729020Y-91059380D01*
X90776639Y-90964142D01*
X90824258Y-90916523D01*
X90824258Y-91916523D02*
X90776639Y-91964142D01*
X90729020Y-91916523D01*
X90776639Y-91868904D01*
X90824258Y-91916523D01*
X90729020Y-91916523D01*
X91729020Y-92583190D02*
X91729020Y-92678428D01*
X91681401Y-92773666D01*
X91633781Y-92821285D01*
X91538543Y-92868904D01*
X91348067Y-92916523D01*
X91109972Y-92916523D01*
X90919496Y-92868904D01*
X90824258Y-92821285D01*
X90776639Y-92773666D01*
X90729020Y-92678428D01*
X90729020Y-92583190D01*
X90776639Y-92487952D01*
X90824258Y-92440333D01*
X90919496Y-92392714D01*
X91109972Y-92345095D01*
X91348067Y-92345095D01*
X91538543Y-92392714D01*
X91633781Y-92440333D01*
X91681401Y-92487952D01*
X91729020Y-92583190D01*
X91633781Y-93297476D02*
X91681401Y-93345095D01*
X91729020Y-93440333D01*
X91729020Y-93678428D01*
X91681401Y-93773666D01*
X91633781Y-93821285D01*
X91538543Y-93868904D01*
X91443305Y-93868904D01*
X91300448Y-93821285D01*
X90729020Y-93249857D01*
X90729020Y-93868904D01*
X91395686Y-94726047D02*
X90729020Y-94726047D01*
X91776639Y-94487952D02*
X91062353Y-94249857D01*
X91062353Y-94868904D01*
X90729020Y-96011761D02*
X91395686Y-96011761D01*
X91300448Y-96011761D02*
X91348067Y-96059380D01*
X91395686Y-96154619D01*
X91395686Y-96297476D01*
X91348067Y-96392714D01*
X91252829Y-96440333D01*
X90729020Y-96440333D01*
X91252829Y-96440333D02*
X91348067Y-96487952D01*
X91395686Y-96583190D01*
X91395686Y-96726047D01*
X91348067Y-96821285D01*
X91252829Y-96868904D01*
X90729020Y-96868904D01*
X90729020Y-97345095D02*
X91395686Y-97345095D01*
X91300448Y-97345095D02*
X91348067Y-97392714D01*
X91395686Y-97487952D01*
X91395686Y-97630809D01*
X91348067Y-97726047D01*
X91252829Y-97773666D01*
X90729020Y-97773666D01*
X91252829Y-97773666D02*
X91348067Y-97821285D01*
X91395686Y-97916523D01*
X91395686Y-98059380D01*
X91348067Y-98154619D01*
X91252829Y-98202238D01*
X90729020Y-98202238D01*
X92481401Y-61595000D02*
X92481401Y-126619000D01*
X98171000Y-61595000D02*
X91894980Y-61595000D01*
X98171000Y-126619000D02*
X91894980Y-126619000D01*
X92481401Y-126619000D02*
X91894980Y-125492496D01*
X92481401Y-126619000D02*
X93067822Y-125492496D01*
X92481401Y-61595000D02*
X91894980Y-62721504D01*
X92481401Y-61595000D02*
X93067822Y-62721504D01*
X124584283Y-51238380D02*
X124393807Y-51238380D01*
X124298569Y-51286000D01*
X124250950Y-51333619D01*
X124155711Y-51476476D01*
X124108092Y-51666952D01*
X124108092Y-52047904D01*
X124155711Y-52143142D01*
X124203330Y-52190761D01*
X124298569Y-52238380D01*
X124489045Y-52238380D01*
X124584283Y-52190761D01*
X124631902Y-52143142D01*
X124679521Y-52047904D01*
X124679521Y-51809809D01*
X124631902Y-51714571D01*
X124584283Y-51666952D01*
X124489045Y-51619333D01*
X124298569Y-51619333D01*
X124203330Y-51666952D01*
X124155711Y-51714571D01*
X124108092Y-51809809D01*
X125298569Y-51238380D02*
X125393807Y-51238380D01*
X125489045Y-51286000D01*
X125536664Y-51333619D01*
X125584283Y-51428857D01*
X125631902Y-51619333D01*
X125631902Y-51857428D01*
X125584283Y-52047904D01*
X125536664Y-52143142D01*
X125489045Y-52190761D01*
X125393807Y-52238380D01*
X125298569Y-52238380D01*
X125203330Y-52190761D01*
X125155711Y-52143142D01*
X125108092Y-52047904D01*
X125060473Y-51857428D01*
X125060473Y-51619333D01*
X125108092Y-51428857D01*
X125155711Y-51333619D01*
X125203330Y-51286000D01*
X125298569Y-51238380D01*
X126060473Y-52143142D02*
X126108092Y-52190761D01*
X126060473Y-52238380D01*
X126012854Y-52190761D01*
X126060473Y-52143142D01*
X126060473Y-52238380D01*
X127060473Y-52238380D02*
X126489045Y-52238380D01*
X126774759Y-52238380D02*
X126774759Y-51238380D01*
X126679521Y-51381238D01*
X126584283Y-51476476D01*
X126489045Y-51524095D01*
X127679521Y-51238380D02*
X127774759Y-51238380D01*
X127869997Y-51286000D01*
X127917616Y-51333619D01*
X127965235Y-51428857D01*
X128012854Y-51619333D01*
X128012854Y-51857428D01*
X127965235Y-52047904D01*
X127917616Y-52143142D01*
X127869997Y-52190761D01*
X127774759Y-52238380D01*
X127679521Y-52238380D01*
X127584283Y-52190761D01*
X127536664Y-52143142D01*
X127489045Y-52047904D01*
X127441426Y-51857428D01*
X127441426Y-51619333D01*
X127489045Y-51428857D01*
X127536664Y-51333619D01*
X127584283Y-51286000D01*
X127679521Y-51238380D01*
X128489045Y-52238380D02*
X128679521Y-52238380D01*
X128774759Y-52190761D01*
X128822378Y-52143142D01*
X128917616Y-52000285D01*
X128965235Y-51809809D01*
X128965235Y-51428857D01*
X128917616Y-51333619D01*
X128869997Y-51286000D01*
X128774759Y-51238380D01*
X128584283Y-51238380D01*
X128489045Y-51286000D01*
X128441426Y-51333619D01*
X128393807Y-51428857D01*
X128393807Y-51666952D01*
X128441426Y-51762190D01*
X128489045Y-51809809D01*
X128584283Y-51857428D01*
X128774759Y-51857428D01*
X128869997Y-51809809D01*
X128917616Y-51762190D01*
X128965235Y-51666952D01*
X130155711Y-52238380D02*
X130155711Y-51571714D01*
X130155711Y-51666952D02*
X130203330Y-51619333D01*
X130298569Y-51571714D01*
X130441426Y-51571714D01*
X130536664Y-51619333D01*
X130584283Y-51714571D01*
X130584283Y-52238380D01*
X130584283Y-51714571D02*
X130631902Y-51619333D01*
X130727140Y-51571714D01*
X130869997Y-51571714D01*
X130965235Y-51619333D01*
X131012854Y-51714571D01*
X131012854Y-52238380D01*
X131489045Y-52238380D02*
X131489045Y-51571714D01*
X131489045Y-51666952D02*
X131536664Y-51619333D01*
X131631902Y-51571714D01*
X131774759Y-51571714D01*
X131869997Y-51619333D01*
X131917616Y-51714571D01*
X131917616Y-52238380D01*
X131917616Y-51714571D02*
X131965235Y-51619333D01*
X132060473Y-51571714D01*
X132203330Y-51571714D01*
X132298569Y-51619333D01*
X132346188Y-51714571D01*
X132346188Y-52238380D01*
X98196400Y-53086000D02*
X158305500Y-53086000D01*
X98196400Y-61595000D02*
X98196400Y-52499579D01*
X158305500Y-61595000D02*
X158305500Y-52499579D01*
X158305500Y-53086000D02*
X157178996Y-53672421D01*
X158305500Y-53086000D02*
X157178996Y-52499579D01*
X98196400Y-53086000D02*
X99322904Y-53672421D01*
X98196400Y-53086000D02*
X99322904Y-52499579D01*
M02*
