G04 #@! TF.GenerationSoftware,KiCad,Pcbnew,(5.1.2-1)-1*
G04 #@! TF.CreationDate,2019-06-15T18:23:21+02:00*
G04 #@! TF.ProjectId,laser_control,6c617365-725f-4636-9f6e-74726f6c2e6b,rev?*
G04 #@! TF.SameCoordinates,Original*
G04 #@! TF.FileFunction,Soldermask,Top*
G04 #@! TF.FilePolarity,Negative*
%FSLAX46Y46*%
G04 Gerber Fmt 4.6, Leading zero omitted, Abs format (unit mm)*
G04 Created by KiCad (PCBNEW (5.1.2-1)-1) date 2019-06-15 18:23:21*
%MOMM*%
%LPD*%
G04 APERTURE LIST*
%ADD10C,0.100000*%
G04 APERTURE END LIST*
D10*
G36*
X153537256Y-119991298D02*
G01*
X153643579Y-120012447D01*
X153944042Y-120136903D01*
X154214451Y-120317585D01*
X154444415Y-120547549D01*
X154625097Y-120817958D01*
X154745392Y-121108375D01*
X154749553Y-121118422D01*
X154813000Y-121437389D01*
X154813000Y-121762611D01*
X154770702Y-121975256D01*
X154749553Y-122081579D01*
X154625097Y-122382042D01*
X154444415Y-122652451D01*
X154214451Y-122882415D01*
X153944042Y-123063097D01*
X153643579Y-123187553D01*
X153537256Y-123208702D01*
X153324611Y-123251000D01*
X152999389Y-123251000D01*
X152786744Y-123208702D01*
X152680421Y-123187553D01*
X152379958Y-123063097D01*
X152109549Y-122882415D01*
X151879585Y-122652451D01*
X151698903Y-122382042D01*
X151574447Y-122081579D01*
X151553298Y-121975256D01*
X151511000Y-121762611D01*
X151511000Y-121437389D01*
X151574447Y-121118422D01*
X151578609Y-121108375D01*
X151698903Y-120817958D01*
X151879585Y-120547549D01*
X152109549Y-120317585D01*
X152379958Y-120136903D01*
X152680421Y-120012447D01*
X152786744Y-119991298D01*
X152999389Y-119949000D01*
X153324611Y-119949000D01*
X153537256Y-119991298D01*
X153537256Y-119991298D01*
G37*
G36*
X103499256Y-119991298D02*
G01*
X103605579Y-120012447D01*
X103906042Y-120136903D01*
X104176451Y-120317585D01*
X104406415Y-120547549D01*
X104587097Y-120817958D01*
X104707392Y-121108375D01*
X104711553Y-121118422D01*
X104775000Y-121437389D01*
X104775000Y-121762611D01*
X104732702Y-121975256D01*
X104711553Y-122081579D01*
X104587097Y-122382042D01*
X104406415Y-122652451D01*
X104176451Y-122882415D01*
X103906042Y-123063097D01*
X103605579Y-123187553D01*
X103499256Y-123208702D01*
X103286611Y-123251000D01*
X102961389Y-123251000D01*
X102748744Y-123208702D01*
X102642421Y-123187553D01*
X102341958Y-123063097D01*
X102071549Y-122882415D01*
X101841585Y-122652451D01*
X101660903Y-122382042D01*
X101536447Y-122081579D01*
X101515298Y-121975256D01*
X101473000Y-121762611D01*
X101473000Y-121437389D01*
X101536447Y-121118422D01*
X101540609Y-121108375D01*
X101660903Y-120817958D01*
X101841585Y-120547549D01*
X102071549Y-120317585D01*
X102341958Y-120136903D01*
X102642421Y-120012447D01*
X102748744Y-119991298D01*
X102961389Y-119949000D01*
X103286611Y-119949000D01*
X103499256Y-119991298D01*
X103499256Y-119991298D01*
G37*
G36*
X117204443Y-120390519D02*
G01*
X117270627Y-120397037D01*
X117440466Y-120448557D01*
X117596991Y-120532222D01*
X117615669Y-120547551D01*
X117734186Y-120644814D01*
X117817448Y-120746271D01*
X117846778Y-120782009D01*
X117930443Y-120938534D01*
X117981963Y-121108373D01*
X117999359Y-121285000D01*
X117981963Y-121461627D01*
X117930443Y-121631466D01*
X117846778Y-121787991D01*
X117817448Y-121823729D01*
X117734186Y-121925186D01*
X117632729Y-122008448D01*
X117596991Y-122037778D01*
X117440466Y-122121443D01*
X117270627Y-122172963D01*
X117204442Y-122179482D01*
X117138260Y-122186000D01*
X117049740Y-122186000D01*
X116983558Y-122179482D01*
X116917373Y-122172963D01*
X116747534Y-122121443D01*
X116591009Y-122037778D01*
X116555271Y-122008448D01*
X116453814Y-121925186D01*
X116370552Y-121823729D01*
X116341222Y-121787991D01*
X116257557Y-121631466D01*
X116206037Y-121461627D01*
X116188641Y-121285000D01*
X116206037Y-121108373D01*
X116257557Y-120938534D01*
X116341222Y-120782009D01*
X116370552Y-120746271D01*
X116453814Y-120644814D01*
X116572331Y-120547551D01*
X116591009Y-120532222D01*
X116747534Y-120448557D01*
X116917373Y-120397037D01*
X116983557Y-120390519D01*
X117049740Y-120384000D01*
X117138260Y-120384000D01*
X117204443Y-120390519D01*
X117204443Y-120390519D01*
G37*
G36*
X114664443Y-120390519D02*
G01*
X114730627Y-120397037D01*
X114900466Y-120448557D01*
X115056991Y-120532222D01*
X115075669Y-120547551D01*
X115194186Y-120644814D01*
X115277448Y-120746271D01*
X115306778Y-120782009D01*
X115390443Y-120938534D01*
X115441963Y-121108373D01*
X115459359Y-121285000D01*
X115441963Y-121461627D01*
X115390443Y-121631466D01*
X115306778Y-121787991D01*
X115277448Y-121823729D01*
X115194186Y-121925186D01*
X115092729Y-122008448D01*
X115056991Y-122037778D01*
X114900466Y-122121443D01*
X114730627Y-122172963D01*
X114664442Y-122179482D01*
X114598260Y-122186000D01*
X114509740Y-122186000D01*
X114443558Y-122179482D01*
X114377373Y-122172963D01*
X114207534Y-122121443D01*
X114051009Y-122037778D01*
X114015271Y-122008448D01*
X113913814Y-121925186D01*
X113830552Y-121823729D01*
X113801222Y-121787991D01*
X113717557Y-121631466D01*
X113666037Y-121461627D01*
X113648641Y-121285000D01*
X113666037Y-121108373D01*
X113717557Y-120938534D01*
X113801222Y-120782009D01*
X113830552Y-120746271D01*
X113913814Y-120644814D01*
X114032331Y-120547551D01*
X114051009Y-120532222D01*
X114207534Y-120448557D01*
X114377373Y-120397037D01*
X114443557Y-120390519D01*
X114509740Y-120384000D01*
X114598260Y-120384000D01*
X114664443Y-120390519D01*
X114664443Y-120390519D01*
G37*
G36*
X112124443Y-120390519D02*
G01*
X112190627Y-120397037D01*
X112360466Y-120448557D01*
X112516991Y-120532222D01*
X112535669Y-120547551D01*
X112654186Y-120644814D01*
X112737448Y-120746271D01*
X112766778Y-120782009D01*
X112850443Y-120938534D01*
X112901963Y-121108373D01*
X112919359Y-121285000D01*
X112901963Y-121461627D01*
X112850443Y-121631466D01*
X112766778Y-121787991D01*
X112737448Y-121823729D01*
X112654186Y-121925186D01*
X112552729Y-122008448D01*
X112516991Y-122037778D01*
X112360466Y-122121443D01*
X112190627Y-122172963D01*
X112124442Y-122179482D01*
X112058260Y-122186000D01*
X111969740Y-122186000D01*
X111903558Y-122179482D01*
X111837373Y-122172963D01*
X111667534Y-122121443D01*
X111511009Y-122037778D01*
X111475271Y-122008448D01*
X111373814Y-121925186D01*
X111290552Y-121823729D01*
X111261222Y-121787991D01*
X111177557Y-121631466D01*
X111126037Y-121461627D01*
X111108641Y-121285000D01*
X111126037Y-121108373D01*
X111177557Y-120938534D01*
X111261222Y-120782009D01*
X111290552Y-120746271D01*
X111373814Y-120644814D01*
X111492331Y-120547551D01*
X111511009Y-120532222D01*
X111667534Y-120448557D01*
X111837373Y-120397037D01*
X111903557Y-120390519D01*
X111969740Y-120384000D01*
X112058260Y-120384000D01*
X112124443Y-120390519D01*
X112124443Y-120390519D01*
G37*
G36*
X110375000Y-122186000D02*
G01*
X108573000Y-122186000D01*
X108573000Y-120384000D01*
X110375000Y-120384000D01*
X110375000Y-122186000D01*
X110375000Y-122186000D01*
G37*
G36*
X128432000Y-119161000D02*
G01*
X126330000Y-119161000D01*
X126330000Y-117059000D01*
X128432000Y-117059000D01*
X128432000Y-119161000D01*
X128432000Y-119161000D01*
G37*
G36*
X139510674Y-117624465D02*
G01*
X139548367Y-117635899D01*
X139583103Y-117654466D01*
X139613548Y-117679452D01*
X139638534Y-117709897D01*
X139657101Y-117744633D01*
X139668535Y-117782326D01*
X139673000Y-117827661D01*
X139673000Y-118664339D01*
X139668535Y-118709674D01*
X139657101Y-118747367D01*
X139638534Y-118782103D01*
X139613548Y-118812548D01*
X139583103Y-118837534D01*
X139548367Y-118856101D01*
X139510674Y-118867535D01*
X139465339Y-118872000D01*
X138378661Y-118872000D01*
X138333326Y-118867535D01*
X138295633Y-118856101D01*
X138260897Y-118837534D01*
X138230452Y-118812548D01*
X138205466Y-118782103D01*
X138186899Y-118747367D01*
X138175465Y-118709674D01*
X138171000Y-118664339D01*
X138171000Y-117827661D01*
X138175465Y-117782326D01*
X138186899Y-117744633D01*
X138205466Y-117709897D01*
X138230452Y-117679452D01*
X138260897Y-117654466D01*
X138295633Y-117635899D01*
X138333326Y-117624465D01*
X138378661Y-117620000D01*
X139465339Y-117620000D01*
X139510674Y-117624465D01*
X139510674Y-117624465D01*
G37*
G36*
X120487674Y-116220465D02*
G01*
X120525367Y-116231899D01*
X120560103Y-116250466D01*
X120590548Y-116275452D01*
X120615534Y-116305897D01*
X120634101Y-116340633D01*
X120645535Y-116378326D01*
X120650000Y-116423661D01*
X120650000Y-117510339D01*
X120645535Y-117555674D01*
X120634101Y-117593367D01*
X120615534Y-117628103D01*
X120590548Y-117658548D01*
X120560103Y-117683534D01*
X120525367Y-117702101D01*
X120487674Y-117713535D01*
X120442339Y-117718000D01*
X119605661Y-117718000D01*
X119560326Y-117713535D01*
X119522633Y-117702101D01*
X119487897Y-117683534D01*
X119457452Y-117658548D01*
X119432466Y-117628103D01*
X119413899Y-117593367D01*
X119402465Y-117555674D01*
X119398000Y-117510339D01*
X119398000Y-116423661D01*
X119402465Y-116378326D01*
X119413899Y-116340633D01*
X119432466Y-116305897D01*
X119457452Y-116275452D01*
X119487897Y-116250466D01*
X119522633Y-116231899D01*
X119560326Y-116220465D01*
X119605661Y-116216000D01*
X120442339Y-116216000D01*
X120487674Y-116220465D01*
X120487674Y-116220465D01*
G37*
G36*
X118437674Y-116220465D02*
G01*
X118475367Y-116231899D01*
X118510103Y-116250466D01*
X118540548Y-116275452D01*
X118565534Y-116305897D01*
X118584101Y-116340633D01*
X118595535Y-116378326D01*
X118600000Y-116423661D01*
X118600000Y-117510339D01*
X118595535Y-117555674D01*
X118584101Y-117593367D01*
X118565534Y-117628103D01*
X118540548Y-117658548D01*
X118510103Y-117683534D01*
X118475367Y-117702101D01*
X118437674Y-117713535D01*
X118392339Y-117718000D01*
X117555661Y-117718000D01*
X117510326Y-117713535D01*
X117472633Y-117702101D01*
X117437897Y-117683534D01*
X117407452Y-117658548D01*
X117382466Y-117628103D01*
X117363899Y-117593367D01*
X117352465Y-117555674D01*
X117348000Y-117510339D01*
X117348000Y-116423661D01*
X117352465Y-116378326D01*
X117363899Y-116340633D01*
X117382466Y-116305897D01*
X117407452Y-116275452D01*
X117437897Y-116250466D01*
X117472633Y-116231899D01*
X117510326Y-116220465D01*
X117555661Y-116216000D01*
X118392339Y-116216000D01*
X118437674Y-116220465D01*
X118437674Y-116220465D01*
G37*
G36*
X115804928Y-116618764D02*
G01*
X115826009Y-116625160D01*
X115845445Y-116635548D01*
X115862476Y-116649524D01*
X115876452Y-116666555D01*
X115886840Y-116685991D01*
X115893236Y-116707072D01*
X115896000Y-116735140D01*
X115896000Y-117198860D01*
X115893236Y-117226928D01*
X115886840Y-117248009D01*
X115876452Y-117267445D01*
X115862476Y-117284476D01*
X115845445Y-117298452D01*
X115826009Y-117308840D01*
X115804928Y-117315236D01*
X115776860Y-117318000D01*
X113963140Y-117318000D01*
X113935072Y-117315236D01*
X113913991Y-117308840D01*
X113894555Y-117298452D01*
X113877524Y-117284476D01*
X113863548Y-117267445D01*
X113853160Y-117248009D01*
X113846764Y-117226928D01*
X113844000Y-117198860D01*
X113844000Y-116735140D01*
X113846764Y-116707072D01*
X113853160Y-116685991D01*
X113863548Y-116666555D01*
X113877524Y-116649524D01*
X113894555Y-116635548D01*
X113913991Y-116625160D01*
X113935072Y-116618764D01*
X113963140Y-116616000D01*
X115776860Y-116616000D01*
X115804928Y-116618764D01*
X115804928Y-116618764D01*
G37*
G36*
X110854928Y-116618764D02*
G01*
X110876009Y-116625160D01*
X110895445Y-116635548D01*
X110912476Y-116649524D01*
X110926452Y-116666555D01*
X110936840Y-116685991D01*
X110943236Y-116707072D01*
X110946000Y-116735140D01*
X110946000Y-117198860D01*
X110943236Y-117226928D01*
X110936840Y-117248009D01*
X110926452Y-117267445D01*
X110912476Y-117284476D01*
X110895445Y-117298452D01*
X110876009Y-117308840D01*
X110854928Y-117315236D01*
X110826860Y-117318000D01*
X109013140Y-117318000D01*
X108985072Y-117315236D01*
X108963991Y-117308840D01*
X108944555Y-117298452D01*
X108927524Y-117284476D01*
X108913548Y-117267445D01*
X108903160Y-117248009D01*
X108896764Y-117226928D01*
X108894000Y-117198860D01*
X108894000Y-116735140D01*
X108896764Y-116707072D01*
X108903160Y-116685991D01*
X108913548Y-116666555D01*
X108927524Y-116649524D01*
X108944555Y-116635548D01*
X108963991Y-116625160D01*
X108985072Y-116618764D01*
X109013140Y-116616000D01*
X110826860Y-116616000D01*
X110854928Y-116618764D01*
X110854928Y-116618764D01*
G37*
G36*
X145156000Y-116928000D02*
G01*
X142054000Y-116928000D01*
X142054000Y-115226000D01*
X145156000Y-115226000D01*
X145156000Y-116928000D01*
X145156000Y-116928000D01*
G37*
G36*
X139510674Y-115574465D02*
G01*
X139548367Y-115585899D01*
X139583103Y-115604466D01*
X139613548Y-115629452D01*
X139638534Y-115659897D01*
X139657101Y-115694633D01*
X139668535Y-115732326D01*
X139673000Y-115777661D01*
X139673000Y-116614339D01*
X139668535Y-116659674D01*
X139657101Y-116697367D01*
X139638534Y-116732103D01*
X139613548Y-116762548D01*
X139583103Y-116787534D01*
X139548367Y-116806101D01*
X139510674Y-116817535D01*
X139465339Y-116822000D01*
X138378661Y-116822000D01*
X138333326Y-116817535D01*
X138295633Y-116806101D01*
X138260897Y-116787534D01*
X138230452Y-116762548D01*
X138205466Y-116732103D01*
X138186899Y-116697367D01*
X138175465Y-116659674D01*
X138171000Y-116614339D01*
X138171000Y-115777661D01*
X138175465Y-115732326D01*
X138186899Y-115694633D01*
X138205466Y-115659897D01*
X138230452Y-115629452D01*
X138260897Y-115604466D01*
X138295633Y-115585899D01*
X138333326Y-115574465D01*
X138378661Y-115570000D01*
X139465339Y-115570000D01*
X139510674Y-115574465D01*
X139510674Y-115574465D01*
G37*
G36*
X153926000Y-116743000D02*
G01*
X147624000Y-116743000D01*
X147624000Y-110841000D01*
X153926000Y-110841000D01*
X153926000Y-116743000D01*
X153926000Y-116743000D01*
G37*
G36*
X127687564Y-114559389D02*
G01*
X127878833Y-114638615D01*
X127878835Y-114638616D01*
X128050973Y-114753635D01*
X128197365Y-114900027D01*
X128299824Y-115053367D01*
X128312385Y-115072167D01*
X128391611Y-115263436D01*
X128432000Y-115466484D01*
X128432000Y-115673516D01*
X128391611Y-115876564D01*
X128324394Y-116038840D01*
X128312384Y-116067835D01*
X128197365Y-116239973D01*
X128050973Y-116386365D01*
X127878835Y-116501384D01*
X127878834Y-116501385D01*
X127878833Y-116501385D01*
X127687564Y-116580611D01*
X127484516Y-116621000D01*
X127277484Y-116621000D01*
X127074436Y-116580611D01*
X126883167Y-116501385D01*
X126883166Y-116501385D01*
X126883165Y-116501384D01*
X126711027Y-116386365D01*
X126564635Y-116239973D01*
X126449616Y-116067835D01*
X126437606Y-116038840D01*
X126370389Y-115876564D01*
X126330000Y-115673516D01*
X126330000Y-115466484D01*
X126370389Y-115263436D01*
X126449615Y-115072167D01*
X126462177Y-115053367D01*
X126564635Y-114900027D01*
X126711027Y-114753635D01*
X126883165Y-114638616D01*
X126883167Y-114638615D01*
X127074436Y-114559389D01*
X127277484Y-114519000D01*
X127484516Y-114519000D01*
X127687564Y-114559389D01*
X127687564Y-114559389D01*
G37*
G36*
X115804928Y-115348764D02*
G01*
X115826009Y-115355160D01*
X115845445Y-115365548D01*
X115862476Y-115379524D01*
X115876452Y-115396555D01*
X115886840Y-115415991D01*
X115893236Y-115437072D01*
X115896000Y-115465140D01*
X115896000Y-115928860D01*
X115893236Y-115956928D01*
X115886840Y-115978009D01*
X115876452Y-115997445D01*
X115862476Y-116014476D01*
X115845445Y-116028452D01*
X115826009Y-116038840D01*
X115804928Y-116045236D01*
X115776860Y-116048000D01*
X113963140Y-116048000D01*
X113935072Y-116045236D01*
X113913991Y-116038840D01*
X113894555Y-116028452D01*
X113877524Y-116014476D01*
X113863548Y-115997445D01*
X113853160Y-115978009D01*
X113846764Y-115956928D01*
X113844000Y-115928860D01*
X113844000Y-115465140D01*
X113846764Y-115437072D01*
X113853160Y-115415991D01*
X113863548Y-115396555D01*
X113877524Y-115379524D01*
X113894555Y-115365548D01*
X113913991Y-115355160D01*
X113935072Y-115348764D01*
X113963140Y-115346000D01*
X115776860Y-115346000D01*
X115804928Y-115348764D01*
X115804928Y-115348764D01*
G37*
G36*
X110854928Y-115348764D02*
G01*
X110876009Y-115355160D01*
X110895445Y-115365548D01*
X110912476Y-115379524D01*
X110926452Y-115396555D01*
X110936840Y-115415991D01*
X110943236Y-115437072D01*
X110946000Y-115465140D01*
X110946000Y-115928860D01*
X110943236Y-115956928D01*
X110936840Y-115978009D01*
X110926452Y-115997445D01*
X110912476Y-116014476D01*
X110895445Y-116028452D01*
X110876009Y-116038840D01*
X110854928Y-116045236D01*
X110826860Y-116048000D01*
X109013140Y-116048000D01*
X108985072Y-116045236D01*
X108963991Y-116038840D01*
X108944555Y-116028452D01*
X108927524Y-116014476D01*
X108913548Y-115997445D01*
X108903160Y-115978009D01*
X108896764Y-115956928D01*
X108894000Y-115928860D01*
X108894000Y-115465140D01*
X108896764Y-115437072D01*
X108903160Y-115415991D01*
X108913548Y-115396555D01*
X108927524Y-115379524D01*
X108944555Y-115365548D01*
X108963991Y-115355160D01*
X108985072Y-115348764D01*
X109013140Y-115346000D01*
X110826860Y-115346000D01*
X110854928Y-115348764D01*
X110854928Y-115348764D01*
G37*
G36*
X120487674Y-113680465D02*
G01*
X120525367Y-113691899D01*
X120560103Y-113710466D01*
X120590548Y-113735452D01*
X120615534Y-113765897D01*
X120634101Y-113800633D01*
X120645535Y-113838326D01*
X120650000Y-113883661D01*
X120650000Y-114970339D01*
X120645535Y-115015674D01*
X120634101Y-115053367D01*
X120615534Y-115088103D01*
X120590548Y-115118548D01*
X120560103Y-115143534D01*
X120525367Y-115162101D01*
X120487674Y-115173535D01*
X120442339Y-115178000D01*
X119605661Y-115178000D01*
X119560326Y-115173535D01*
X119522633Y-115162101D01*
X119487897Y-115143534D01*
X119457452Y-115118548D01*
X119432466Y-115088103D01*
X119413899Y-115053367D01*
X119402465Y-115015674D01*
X119398000Y-114970339D01*
X119398000Y-113883661D01*
X119402465Y-113838326D01*
X119413899Y-113800633D01*
X119432466Y-113765897D01*
X119457452Y-113735452D01*
X119487897Y-113710466D01*
X119522633Y-113691899D01*
X119560326Y-113680465D01*
X119605661Y-113676000D01*
X120442339Y-113676000D01*
X120487674Y-113680465D01*
X120487674Y-113680465D01*
G37*
G36*
X118437674Y-113680465D02*
G01*
X118475367Y-113691899D01*
X118510103Y-113710466D01*
X118540548Y-113735452D01*
X118565534Y-113765897D01*
X118584101Y-113800633D01*
X118595535Y-113838326D01*
X118600000Y-113883661D01*
X118600000Y-114970339D01*
X118595535Y-115015674D01*
X118584101Y-115053367D01*
X118565534Y-115088103D01*
X118540548Y-115118548D01*
X118510103Y-115143534D01*
X118475367Y-115162101D01*
X118437674Y-115173535D01*
X118392339Y-115178000D01*
X117555661Y-115178000D01*
X117510326Y-115173535D01*
X117472633Y-115162101D01*
X117437897Y-115143534D01*
X117407452Y-115118548D01*
X117382466Y-115088103D01*
X117363899Y-115053367D01*
X117352465Y-115015674D01*
X117348000Y-114970339D01*
X117348000Y-113883661D01*
X117352465Y-113838326D01*
X117363899Y-113800633D01*
X117382466Y-113765897D01*
X117407452Y-113735452D01*
X117437897Y-113710466D01*
X117472633Y-113691899D01*
X117510326Y-113680465D01*
X117555661Y-113676000D01*
X118392339Y-113676000D01*
X118437674Y-113680465D01*
X118437674Y-113680465D01*
G37*
G36*
X110854928Y-114078764D02*
G01*
X110876009Y-114085160D01*
X110895445Y-114095548D01*
X110912476Y-114109524D01*
X110926452Y-114126555D01*
X110936840Y-114145991D01*
X110943236Y-114167072D01*
X110946000Y-114195140D01*
X110946000Y-114658860D01*
X110943236Y-114686928D01*
X110936840Y-114708009D01*
X110926452Y-114727445D01*
X110912476Y-114744476D01*
X110895445Y-114758452D01*
X110876009Y-114768840D01*
X110854928Y-114775236D01*
X110826860Y-114778000D01*
X109013140Y-114778000D01*
X108985072Y-114775236D01*
X108963991Y-114768840D01*
X108944555Y-114758452D01*
X108927524Y-114744476D01*
X108913548Y-114727445D01*
X108903160Y-114708009D01*
X108896764Y-114686928D01*
X108894000Y-114658860D01*
X108894000Y-114195140D01*
X108896764Y-114167072D01*
X108903160Y-114145991D01*
X108913548Y-114126555D01*
X108927524Y-114109524D01*
X108944555Y-114095548D01*
X108963991Y-114085160D01*
X108985072Y-114078764D01*
X109013140Y-114076000D01*
X110826860Y-114076000D01*
X110854928Y-114078764D01*
X110854928Y-114078764D01*
G37*
G36*
X115804928Y-114078764D02*
G01*
X115826009Y-114085160D01*
X115845445Y-114095548D01*
X115862476Y-114109524D01*
X115876452Y-114126555D01*
X115886840Y-114145991D01*
X115893236Y-114167072D01*
X115896000Y-114195140D01*
X115896000Y-114658860D01*
X115893236Y-114686928D01*
X115886840Y-114708009D01*
X115876452Y-114727445D01*
X115862476Y-114744476D01*
X115845445Y-114758452D01*
X115826009Y-114768840D01*
X115804928Y-114775236D01*
X115776860Y-114778000D01*
X113963140Y-114778000D01*
X113935072Y-114775236D01*
X113913991Y-114768840D01*
X113894555Y-114758452D01*
X113877524Y-114744476D01*
X113863548Y-114727445D01*
X113853160Y-114708009D01*
X113846764Y-114686928D01*
X113844000Y-114658860D01*
X113844000Y-114195140D01*
X113846764Y-114167072D01*
X113853160Y-114145991D01*
X113863548Y-114126555D01*
X113877524Y-114109524D01*
X113894555Y-114095548D01*
X113913991Y-114085160D01*
X113935072Y-114078764D01*
X113963140Y-114076000D01*
X115776860Y-114076000D01*
X115804928Y-114078764D01*
X115804928Y-114078764D01*
G37*
G36*
X104347674Y-112417465D02*
G01*
X104385367Y-112428899D01*
X104420103Y-112447466D01*
X104450548Y-112472452D01*
X104475534Y-112502897D01*
X104494101Y-112537633D01*
X104505535Y-112575326D01*
X104510000Y-112620661D01*
X104510000Y-113457339D01*
X104505535Y-113502674D01*
X104494101Y-113540367D01*
X104475534Y-113575103D01*
X104450548Y-113605548D01*
X104420103Y-113630534D01*
X104385367Y-113649101D01*
X104347674Y-113660535D01*
X104302339Y-113665000D01*
X103215661Y-113665000D01*
X103170326Y-113660535D01*
X103132633Y-113649101D01*
X103097897Y-113630534D01*
X103067452Y-113605548D01*
X103042466Y-113575103D01*
X103023899Y-113540367D01*
X103012465Y-113502674D01*
X103008000Y-113457339D01*
X103008000Y-112620661D01*
X103012465Y-112575326D01*
X103023899Y-112537633D01*
X103042466Y-112502897D01*
X103067452Y-112472452D01*
X103097897Y-112447466D01*
X103132633Y-112428899D01*
X103170326Y-112417465D01*
X103215661Y-112413000D01*
X104302339Y-112413000D01*
X104347674Y-112417465D01*
X104347674Y-112417465D01*
G37*
G36*
X107141674Y-112417465D02*
G01*
X107179367Y-112428899D01*
X107214103Y-112447466D01*
X107244548Y-112472452D01*
X107269534Y-112502897D01*
X107288101Y-112537633D01*
X107299535Y-112575326D01*
X107304000Y-112620661D01*
X107304000Y-113457339D01*
X107299535Y-113502674D01*
X107288101Y-113540367D01*
X107269534Y-113575103D01*
X107244548Y-113605548D01*
X107214103Y-113630534D01*
X107179367Y-113649101D01*
X107141674Y-113660535D01*
X107096339Y-113665000D01*
X106009661Y-113665000D01*
X105964326Y-113660535D01*
X105926633Y-113649101D01*
X105891897Y-113630534D01*
X105861452Y-113605548D01*
X105836466Y-113575103D01*
X105817899Y-113540367D01*
X105806465Y-113502674D01*
X105802000Y-113457339D01*
X105802000Y-112620661D01*
X105806465Y-112575326D01*
X105817899Y-112537633D01*
X105836466Y-112502897D01*
X105861452Y-112472452D01*
X105891897Y-112447466D01*
X105926633Y-112428899D01*
X105964326Y-112417465D01*
X106009661Y-112413000D01*
X107096339Y-112413000D01*
X107141674Y-112417465D01*
X107141674Y-112417465D01*
G37*
G36*
X115804928Y-112808764D02*
G01*
X115826009Y-112815160D01*
X115845445Y-112825548D01*
X115862476Y-112839524D01*
X115876452Y-112856555D01*
X115886840Y-112875991D01*
X115893236Y-112897072D01*
X115896000Y-112925140D01*
X115896000Y-113388860D01*
X115893236Y-113416928D01*
X115886840Y-113438009D01*
X115876452Y-113457445D01*
X115862476Y-113474476D01*
X115845445Y-113488452D01*
X115826009Y-113498840D01*
X115804928Y-113505236D01*
X115776860Y-113508000D01*
X113963140Y-113508000D01*
X113935072Y-113505236D01*
X113913991Y-113498840D01*
X113894555Y-113488452D01*
X113877524Y-113474476D01*
X113863548Y-113457445D01*
X113853160Y-113438009D01*
X113846764Y-113416928D01*
X113844000Y-113388860D01*
X113844000Y-112925140D01*
X113846764Y-112897072D01*
X113853160Y-112875991D01*
X113863548Y-112856555D01*
X113877524Y-112839524D01*
X113894555Y-112825548D01*
X113913991Y-112815160D01*
X113935072Y-112808764D01*
X113963140Y-112806000D01*
X115776860Y-112806000D01*
X115804928Y-112808764D01*
X115804928Y-112808764D01*
G37*
G36*
X110854928Y-112808764D02*
G01*
X110876009Y-112815160D01*
X110895445Y-112825548D01*
X110912476Y-112839524D01*
X110926452Y-112856555D01*
X110936840Y-112875991D01*
X110943236Y-112897072D01*
X110946000Y-112925140D01*
X110946000Y-113388860D01*
X110943236Y-113416928D01*
X110936840Y-113438009D01*
X110926452Y-113457445D01*
X110912476Y-113474476D01*
X110895445Y-113488452D01*
X110876009Y-113498840D01*
X110854928Y-113505236D01*
X110826860Y-113508000D01*
X109013140Y-113508000D01*
X108985072Y-113505236D01*
X108963991Y-113498840D01*
X108944555Y-113488452D01*
X108927524Y-113474476D01*
X108913548Y-113457445D01*
X108903160Y-113438009D01*
X108896764Y-113416928D01*
X108894000Y-113388860D01*
X108894000Y-112925140D01*
X108896764Y-112897072D01*
X108903160Y-112875991D01*
X108913548Y-112856555D01*
X108927524Y-112839524D01*
X108944555Y-112825548D01*
X108963991Y-112815160D01*
X108985072Y-112808764D01*
X109013140Y-112806000D01*
X110826860Y-112806000D01*
X110854928Y-112808764D01*
X110854928Y-112808764D01*
G37*
G36*
X126445674Y-111528465D02*
G01*
X126483367Y-111539899D01*
X126518103Y-111558466D01*
X126548548Y-111583452D01*
X126573534Y-111613897D01*
X126592101Y-111648633D01*
X126603535Y-111686326D01*
X126608000Y-111731661D01*
X126608000Y-112568339D01*
X126603535Y-112613674D01*
X126592101Y-112651367D01*
X126573534Y-112686103D01*
X126548548Y-112716548D01*
X126518103Y-112741534D01*
X126483367Y-112760101D01*
X126445674Y-112771535D01*
X126400339Y-112776000D01*
X125313661Y-112776000D01*
X125268326Y-112771535D01*
X125230633Y-112760101D01*
X125195897Y-112741534D01*
X125165452Y-112716548D01*
X125140466Y-112686103D01*
X125121899Y-112651367D01*
X125110465Y-112613674D01*
X125106000Y-112568339D01*
X125106000Y-111731661D01*
X125110465Y-111686326D01*
X125121899Y-111648633D01*
X125140466Y-111613897D01*
X125165452Y-111583452D01*
X125195897Y-111558466D01*
X125230633Y-111539899D01*
X125268326Y-111528465D01*
X125313661Y-111524000D01*
X126400339Y-111524000D01*
X126445674Y-111528465D01*
X126445674Y-111528465D01*
G37*
G36*
X130509674Y-111410465D02*
G01*
X130547367Y-111421899D01*
X130582103Y-111440466D01*
X130612548Y-111465452D01*
X130637534Y-111495897D01*
X130656101Y-111530633D01*
X130667535Y-111568326D01*
X130672000Y-111613661D01*
X130672000Y-112450339D01*
X130667535Y-112495674D01*
X130656101Y-112533367D01*
X130637534Y-112568103D01*
X130612548Y-112598548D01*
X130582103Y-112623534D01*
X130547367Y-112642101D01*
X130509674Y-112653535D01*
X130464339Y-112658000D01*
X129377661Y-112658000D01*
X129332326Y-112653535D01*
X129294633Y-112642101D01*
X129259897Y-112623534D01*
X129229452Y-112598548D01*
X129204466Y-112568103D01*
X129185899Y-112533367D01*
X129174465Y-112495674D01*
X129170000Y-112450339D01*
X129170000Y-111613661D01*
X129174465Y-111568326D01*
X129185899Y-111530633D01*
X129204466Y-111495897D01*
X129229452Y-111465452D01*
X129259897Y-111440466D01*
X129294633Y-111421899D01*
X129332326Y-111410465D01*
X129377661Y-111406000D01*
X130464339Y-111406000D01*
X130509674Y-111410465D01*
X130509674Y-111410465D01*
G37*
G36*
X145156000Y-112358000D02*
G01*
X142054000Y-112358000D01*
X142054000Y-110656000D01*
X145156000Y-110656000D01*
X145156000Y-112358000D01*
X145156000Y-112358000D01*
G37*
G36*
X115804928Y-111538764D02*
G01*
X115826009Y-111545160D01*
X115845445Y-111555548D01*
X115862476Y-111569524D01*
X115876452Y-111586555D01*
X115886840Y-111605991D01*
X115893236Y-111627072D01*
X115896000Y-111655140D01*
X115896000Y-112118860D01*
X115893236Y-112146928D01*
X115886840Y-112168009D01*
X115876452Y-112187445D01*
X115862476Y-112204476D01*
X115845445Y-112218452D01*
X115826009Y-112228840D01*
X115804928Y-112235236D01*
X115776860Y-112238000D01*
X113963140Y-112238000D01*
X113935072Y-112235236D01*
X113913991Y-112228840D01*
X113894555Y-112218452D01*
X113877524Y-112204476D01*
X113863548Y-112187445D01*
X113853160Y-112168009D01*
X113846764Y-112146928D01*
X113844000Y-112118860D01*
X113844000Y-111655140D01*
X113846764Y-111627072D01*
X113853160Y-111605991D01*
X113863548Y-111586555D01*
X113877524Y-111569524D01*
X113894555Y-111555548D01*
X113913991Y-111545160D01*
X113935072Y-111538764D01*
X113963140Y-111536000D01*
X115776860Y-111536000D01*
X115804928Y-111538764D01*
X115804928Y-111538764D01*
G37*
G36*
X110854928Y-111538764D02*
G01*
X110876009Y-111545160D01*
X110895445Y-111555548D01*
X110912476Y-111569524D01*
X110926452Y-111586555D01*
X110936840Y-111605991D01*
X110943236Y-111627072D01*
X110946000Y-111655140D01*
X110946000Y-112118860D01*
X110943236Y-112146928D01*
X110936840Y-112168009D01*
X110926452Y-112187445D01*
X110912476Y-112204476D01*
X110895445Y-112218452D01*
X110876009Y-112228840D01*
X110854928Y-112235236D01*
X110826860Y-112238000D01*
X109013140Y-112238000D01*
X108985072Y-112235236D01*
X108963991Y-112228840D01*
X108944555Y-112218452D01*
X108927524Y-112204476D01*
X108913548Y-112187445D01*
X108903160Y-112168009D01*
X108896764Y-112146928D01*
X108894000Y-112118860D01*
X108894000Y-111655140D01*
X108896764Y-111627072D01*
X108903160Y-111605991D01*
X108913548Y-111586555D01*
X108927524Y-111569524D01*
X108944555Y-111555548D01*
X108963991Y-111545160D01*
X108985072Y-111538764D01*
X109013140Y-111536000D01*
X110826860Y-111536000D01*
X110854928Y-111538764D01*
X110854928Y-111538764D01*
G37*
G36*
X139510674Y-110766465D02*
G01*
X139548367Y-110777899D01*
X139583103Y-110796466D01*
X139613548Y-110821452D01*
X139638534Y-110851897D01*
X139657101Y-110886633D01*
X139668535Y-110924326D01*
X139673000Y-110969661D01*
X139673000Y-111806339D01*
X139668535Y-111851674D01*
X139657101Y-111889367D01*
X139638534Y-111924103D01*
X139613548Y-111954548D01*
X139583103Y-111979534D01*
X139548367Y-111998101D01*
X139510674Y-112009535D01*
X139465339Y-112014000D01*
X138378661Y-112014000D01*
X138333326Y-112009535D01*
X138295633Y-111998101D01*
X138260897Y-111979534D01*
X138230452Y-111954548D01*
X138205466Y-111924103D01*
X138186899Y-111889367D01*
X138175465Y-111851674D01*
X138171000Y-111806339D01*
X138171000Y-110969661D01*
X138175465Y-110924326D01*
X138186899Y-110886633D01*
X138205466Y-110851897D01*
X138230452Y-110821452D01*
X138260897Y-110796466D01*
X138295633Y-110777899D01*
X138333326Y-110766465D01*
X138378661Y-110762000D01*
X139465339Y-110762000D01*
X139510674Y-110766465D01*
X139510674Y-110766465D01*
G37*
G36*
X107141674Y-110367465D02*
G01*
X107179367Y-110378899D01*
X107214103Y-110397466D01*
X107244548Y-110422452D01*
X107269534Y-110452897D01*
X107288101Y-110487633D01*
X107299535Y-110525326D01*
X107304000Y-110570661D01*
X107304000Y-111407339D01*
X107299535Y-111452674D01*
X107288101Y-111490367D01*
X107269534Y-111525103D01*
X107244548Y-111555548D01*
X107214103Y-111580534D01*
X107179367Y-111599101D01*
X107141674Y-111610535D01*
X107096339Y-111615000D01*
X106009661Y-111615000D01*
X105964326Y-111610535D01*
X105926633Y-111599101D01*
X105891897Y-111580534D01*
X105861452Y-111555548D01*
X105836466Y-111525103D01*
X105817899Y-111490367D01*
X105806465Y-111452674D01*
X105802000Y-111407339D01*
X105802000Y-110570661D01*
X105806465Y-110525326D01*
X105817899Y-110487633D01*
X105836466Y-110452897D01*
X105861452Y-110422452D01*
X105891897Y-110397466D01*
X105926633Y-110378899D01*
X105964326Y-110367465D01*
X106009661Y-110363000D01*
X107096339Y-110363000D01*
X107141674Y-110367465D01*
X107141674Y-110367465D01*
G37*
G36*
X104347674Y-110367465D02*
G01*
X104385367Y-110378899D01*
X104420103Y-110397466D01*
X104450548Y-110422452D01*
X104475534Y-110452897D01*
X104494101Y-110487633D01*
X104505535Y-110525326D01*
X104510000Y-110570661D01*
X104510000Y-111407339D01*
X104505535Y-111452674D01*
X104494101Y-111490367D01*
X104475534Y-111525103D01*
X104450548Y-111555548D01*
X104420103Y-111580534D01*
X104385367Y-111599101D01*
X104347674Y-111610535D01*
X104302339Y-111615000D01*
X103215661Y-111615000D01*
X103170326Y-111610535D01*
X103132633Y-111599101D01*
X103097897Y-111580534D01*
X103067452Y-111555548D01*
X103042466Y-111525103D01*
X103023899Y-111490367D01*
X103012465Y-111452674D01*
X103008000Y-111407339D01*
X103008000Y-110570661D01*
X103012465Y-110525326D01*
X103023899Y-110487633D01*
X103042466Y-110452897D01*
X103067452Y-110422452D01*
X103097897Y-110397466D01*
X103132633Y-110378899D01*
X103170326Y-110367465D01*
X103215661Y-110363000D01*
X104302339Y-110363000D01*
X104347674Y-110367465D01*
X104347674Y-110367465D01*
G37*
G36*
X115804928Y-110268764D02*
G01*
X115826009Y-110275160D01*
X115845445Y-110285548D01*
X115862476Y-110299524D01*
X115876452Y-110316555D01*
X115886840Y-110335991D01*
X115893236Y-110357072D01*
X115896000Y-110385140D01*
X115896000Y-110848860D01*
X115893236Y-110876928D01*
X115886840Y-110898009D01*
X115876452Y-110917445D01*
X115862476Y-110934476D01*
X115845445Y-110948452D01*
X115826009Y-110958840D01*
X115804928Y-110965236D01*
X115776860Y-110968000D01*
X113963140Y-110968000D01*
X113935072Y-110965236D01*
X113913991Y-110958840D01*
X113894555Y-110948452D01*
X113877524Y-110934476D01*
X113863548Y-110917445D01*
X113853160Y-110898009D01*
X113846764Y-110876928D01*
X113844000Y-110848860D01*
X113844000Y-110385140D01*
X113846764Y-110357072D01*
X113853160Y-110335991D01*
X113863548Y-110316555D01*
X113877524Y-110299524D01*
X113894555Y-110285548D01*
X113913991Y-110275160D01*
X113935072Y-110268764D01*
X113963140Y-110266000D01*
X115776860Y-110266000D01*
X115804928Y-110268764D01*
X115804928Y-110268764D01*
G37*
G36*
X110854928Y-110268764D02*
G01*
X110876009Y-110275160D01*
X110895445Y-110285548D01*
X110912476Y-110299524D01*
X110926452Y-110316555D01*
X110936840Y-110335991D01*
X110943236Y-110357072D01*
X110946000Y-110385140D01*
X110946000Y-110848860D01*
X110943236Y-110876928D01*
X110936840Y-110898009D01*
X110926452Y-110917445D01*
X110912476Y-110934476D01*
X110895445Y-110948452D01*
X110876009Y-110958840D01*
X110854928Y-110965236D01*
X110826860Y-110968000D01*
X109013140Y-110968000D01*
X108985072Y-110965236D01*
X108963991Y-110958840D01*
X108944555Y-110948452D01*
X108927524Y-110934476D01*
X108913548Y-110917445D01*
X108903160Y-110898009D01*
X108896764Y-110876928D01*
X108894000Y-110848860D01*
X108894000Y-110385140D01*
X108896764Y-110357072D01*
X108903160Y-110335991D01*
X108913548Y-110316555D01*
X108927524Y-110299524D01*
X108944555Y-110285548D01*
X108963991Y-110275160D01*
X108985072Y-110268764D01*
X109013140Y-110266000D01*
X110826860Y-110266000D01*
X110854928Y-110268764D01*
X110854928Y-110268764D01*
G37*
G36*
X126445674Y-109478465D02*
G01*
X126483367Y-109489899D01*
X126518103Y-109508466D01*
X126548548Y-109533452D01*
X126573534Y-109563897D01*
X126592101Y-109598633D01*
X126603535Y-109636326D01*
X126608000Y-109681661D01*
X126608000Y-110518339D01*
X126603535Y-110563674D01*
X126592101Y-110601367D01*
X126573534Y-110636103D01*
X126548548Y-110666548D01*
X126518103Y-110691534D01*
X126483367Y-110710101D01*
X126445674Y-110721535D01*
X126400339Y-110726000D01*
X125313661Y-110726000D01*
X125268326Y-110721535D01*
X125230633Y-110710101D01*
X125195897Y-110691534D01*
X125165452Y-110666548D01*
X125140466Y-110636103D01*
X125121899Y-110601367D01*
X125110465Y-110563674D01*
X125106000Y-110518339D01*
X125106000Y-109681661D01*
X125110465Y-109636326D01*
X125121899Y-109598633D01*
X125140466Y-109563897D01*
X125165452Y-109533452D01*
X125195897Y-109508466D01*
X125230633Y-109489899D01*
X125268326Y-109478465D01*
X125313661Y-109474000D01*
X126400339Y-109474000D01*
X126445674Y-109478465D01*
X126445674Y-109478465D01*
G37*
G36*
X130509674Y-109360465D02*
G01*
X130547367Y-109371899D01*
X130582103Y-109390466D01*
X130612548Y-109415452D01*
X130637534Y-109445897D01*
X130656101Y-109480633D01*
X130667535Y-109518326D01*
X130672000Y-109563661D01*
X130672000Y-110400339D01*
X130667535Y-110445674D01*
X130656101Y-110483367D01*
X130637534Y-110518103D01*
X130612548Y-110548548D01*
X130582103Y-110573534D01*
X130547367Y-110592101D01*
X130509674Y-110603535D01*
X130464339Y-110608000D01*
X129377661Y-110608000D01*
X129332326Y-110603535D01*
X129294633Y-110592101D01*
X129259897Y-110573534D01*
X129229452Y-110548548D01*
X129204466Y-110518103D01*
X129185899Y-110483367D01*
X129174465Y-110445674D01*
X129170000Y-110400339D01*
X129170000Y-109563661D01*
X129174465Y-109518326D01*
X129185899Y-109480633D01*
X129204466Y-109445897D01*
X129229452Y-109415452D01*
X129259897Y-109390466D01*
X129294633Y-109371899D01*
X129332326Y-109360465D01*
X129377661Y-109356000D01*
X130464339Y-109356000D01*
X130509674Y-109360465D01*
X130509674Y-109360465D01*
G37*
G36*
X139510674Y-108716465D02*
G01*
X139548367Y-108727899D01*
X139583103Y-108746466D01*
X139613548Y-108771452D01*
X139638534Y-108801897D01*
X139657101Y-108836633D01*
X139668535Y-108874326D01*
X139673000Y-108919661D01*
X139673000Y-109756339D01*
X139668535Y-109801674D01*
X139657101Y-109839367D01*
X139638534Y-109874103D01*
X139613548Y-109904548D01*
X139583103Y-109929534D01*
X139548367Y-109948101D01*
X139510674Y-109959535D01*
X139465339Y-109964000D01*
X138378661Y-109964000D01*
X138333326Y-109959535D01*
X138295633Y-109948101D01*
X138260897Y-109929534D01*
X138230452Y-109904548D01*
X138205466Y-109874103D01*
X138186899Y-109839367D01*
X138175465Y-109801674D01*
X138171000Y-109756339D01*
X138171000Y-108919661D01*
X138175465Y-108874326D01*
X138186899Y-108836633D01*
X138205466Y-108801897D01*
X138230452Y-108771452D01*
X138260897Y-108746466D01*
X138295633Y-108727899D01*
X138333326Y-108716465D01*
X138378661Y-108712000D01*
X139465339Y-108712000D01*
X139510674Y-108716465D01*
X139510674Y-108716465D01*
G37*
G36*
X115804928Y-108998764D02*
G01*
X115826009Y-109005160D01*
X115845445Y-109015548D01*
X115862476Y-109029524D01*
X115876452Y-109046555D01*
X115886840Y-109065991D01*
X115893236Y-109087072D01*
X115896000Y-109115140D01*
X115896000Y-109578860D01*
X115893236Y-109606928D01*
X115886840Y-109628009D01*
X115876452Y-109647445D01*
X115862476Y-109664476D01*
X115845445Y-109678452D01*
X115826009Y-109688840D01*
X115804928Y-109695236D01*
X115776860Y-109698000D01*
X113963140Y-109698000D01*
X113935072Y-109695236D01*
X113913991Y-109688840D01*
X113894555Y-109678452D01*
X113877524Y-109664476D01*
X113863548Y-109647445D01*
X113853160Y-109628009D01*
X113846764Y-109606928D01*
X113844000Y-109578860D01*
X113844000Y-109115140D01*
X113846764Y-109087072D01*
X113853160Y-109065991D01*
X113863548Y-109046555D01*
X113877524Y-109029524D01*
X113894555Y-109015548D01*
X113913991Y-109005160D01*
X113935072Y-108998764D01*
X113963140Y-108996000D01*
X115776860Y-108996000D01*
X115804928Y-108998764D01*
X115804928Y-108998764D01*
G37*
G36*
X110854928Y-108998764D02*
G01*
X110876009Y-109005160D01*
X110895445Y-109015548D01*
X110912476Y-109029524D01*
X110926452Y-109046555D01*
X110936840Y-109065991D01*
X110943236Y-109087072D01*
X110946000Y-109115140D01*
X110946000Y-109578860D01*
X110943236Y-109606928D01*
X110936840Y-109628009D01*
X110926452Y-109647445D01*
X110912476Y-109664476D01*
X110895445Y-109678452D01*
X110876009Y-109688840D01*
X110854928Y-109695236D01*
X110826860Y-109698000D01*
X109013140Y-109698000D01*
X108985072Y-109695236D01*
X108963991Y-109688840D01*
X108944555Y-109678452D01*
X108927524Y-109664476D01*
X108913548Y-109647445D01*
X108903160Y-109628009D01*
X108896764Y-109606928D01*
X108894000Y-109578860D01*
X108894000Y-109115140D01*
X108896764Y-109087072D01*
X108903160Y-109065991D01*
X108913548Y-109046555D01*
X108927524Y-109029524D01*
X108944555Y-109015548D01*
X108963991Y-109005160D01*
X108985072Y-108998764D01*
X109013140Y-108996000D01*
X110826860Y-108996000D01*
X110854928Y-108998764D01*
X110854928Y-108998764D01*
G37*
G36*
X154095562Y-103784181D02*
G01*
X154130481Y-103794774D01*
X154162663Y-103811976D01*
X154190873Y-103835127D01*
X154214024Y-103863337D01*
X154231226Y-103895519D01*
X154241819Y-103930438D01*
X154246000Y-103972895D01*
X154246000Y-106339105D01*
X154241819Y-106381562D01*
X154231226Y-106416481D01*
X154214024Y-106448663D01*
X154190873Y-106476873D01*
X154162663Y-106500024D01*
X154130481Y-106517226D01*
X154095562Y-106527819D01*
X154053105Y-106532000D01*
X152911895Y-106532000D01*
X152869438Y-106527819D01*
X152834519Y-106517226D01*
X152802337Y-106500024D01*
X152774127Y-106476873D01*
X152750976Y-106448663D01*
X152733774Y-106416481D01*
X152723181Y-106381562D01*
X152719000Y-106339105D01*
X152719000Y-103972895D01*
X152723181Y-103930438D01*
X152733774Y-103895519D01*
X152750976Y-103863337D01*
X152774127Y-103835127D01*
X152802337Y-103811976D01*
X152834519Y-103794774D01*
X152869438Y-103784181D01*
X152911895Y-103780000D01*
X154053105Y-103780000D01*
X154095562Y-103784181D01*
X154095562Y-103784181D01*
G37*
G36*
X151120562Y-103784181D02*
G01*
X151155481Y-103794774D01*
X151187663Y-103811976D01*
X151215873Y-103835127D01*
X151239024Y-103863337D01*
X151256226Y-103895519D01*
X151266819Y-103930438D01*
X151271000Y-103972895D01*
X151271000Y-106339105D01*
X151266819Y-106381562D01*
X151256226Y-106416481D01*
X151239024Y-106448663D01*
X151215873Y-106476873D01*
X151187663Y-106500024D01*
X151155481Y-106517226D01*
X151120562Y-106527819D01*
X151078105Y-106532000D01*
X149936895Y-106532000D01*
X149894438Y-106527819D01*
X149859519Y-106517226D01*
X149827337Y-106500024D01*
X149799127Y-106476873D01*
X149775976Y-106448663D01*
X149758774Y-106416481D01*
X149748181Y-106381562D01*
X149744000Y-106339105D01*
X149744000Y-103972895D01*
X149748181Y-103930438D01*
X149758774Y-103895519D01*
X149775976Y-103863337D01*
X149799127Y-103835127D01*
X149827337Y-103811976D01*
X149859519Y-103794774D01*
X149894438Y-103784181D01*
X149936895Y-103780000D01*
X151078105Y-103780000D01*
X151120562Y-103784181D01*
X151120562Y-103784181D01*
G37*
G36*
X107100823Y-104444313D02*
G01*
X107261242Y-104492976D01*
X107393906Y-104563886D01*
X107409078Y-104571996D01*
X107538659Y-104678341D01*
X107645004Y-104807922D01*
X107645005Y-104807924D01*
X107724024Y-104955758D01*
X107772687Y-105116177D01*
X107789117Y-105283000D01*
X107772687Y-105449823D01*
X107724024Y-105610242D01*
X107653114Y-105742906D01*
X107645004Y-105758078D01*
X107538659Y-105887659D01*
X107409078Y-105994004D01*
X107409076Y-105994005D01*
X107261242Y-106073024D01*
X107100823Y-106121687D01*
X106975804Y-106134000D01*
X106892196Y-106134000D01*
X106767177Y-106121687D01*
X106606758Y-106073024D01*
X106458924Y-105994005D01*
X106458922Y-105994004D01*
X106329341Y-105887659D01*
X106222996Y-105758078D01*
X106214886Y-105742906D01*
X106143976Y-105610242D01*
X106095313Y-105449823D01*
X106078883Y-105283000D01*
X106095313Y-105116177D01*
X106143976Y-104955758D01*
X106222995Y-104807924D01*
X106222996Y-104807922D01*
X106329341Y-104678341D01*
X106458922Y-104571996D01*
X106474094Y-104563886D01*
X106606758Y-104492976D01*
X106767177Y-104444313D01*
X106892196Y-104432000D01*
X106975804Y-104432000D01*
X107100823Y-104444313D01*
X107100823Y-104444313D01*
G37*
G36*
X104560823Y-104444313D02*
G01*
X104721242Y-104492976D01*
X104853906Y-104563886D01*
X104869078Y-104571996D01*
X104998659Y-104678341D01*
X105105004Y-104807922D01*
X105105005Y-104807924D01*
X105184024Y-104955758D01*
X105232687Y-105116177D01*
X105249117Y-105283000D01*
X105232687Y-105449823D01*
X105184024Y-105610242D01*
X105113114Y-105742906D01*
X105105004Y-105758078D01*
X104998659Y-105887659D01*
X104869078Y-105994004D01*
X104869076Y-105994005D01*
X104721242Y-106073024D01*
X104560823Y-106121687D01*
X104435804Y-106134000D01*
X104352196Y-106134000D01*
X104227177Y-106121687D01*
X104066758Y-106073024D01*
X103918924Y-105994005D01*
X103918922Y-105994004D01*
X103789341Y-105887659D01*
X103682996Y-105758078D01*
X103674886Y-105742906D01*
X103603976Y-105610242D01*
X103555313Y-105449823D01*
X103538883Y-105283000D01*
X103555313Y-105116177D01*
X103603976Y-104955758D01*
X103682995Y-104807924D01*
X103682996Y-104807922D01*
X103789341Y-104678341D01*
X103918922Y-104571996D01*
X103934094Y-104563886D01*
X104066758Y-104492976D01*
X104227177Y-104444313D01*
X104352196Y-104432000D01*
X104435804Y-104432000D01*
X104560823Y-104444313D01*
X104560823Y-104444313D01*
G37*
G36*
X124880823Y-104444313D02*
G01*
X125041242Y-104492976D01*
X125173906Y-104563886D01*
X125189078Y-104571996D01*
X125318659Y-104678341D01*
X125425004Y-104807922D01*
X125425005Y-104807924D01*
X125504024Y-104955758D01*
X125552687Y-105116177D01*
X125569117Y-105283000D01*
X125552687Y-105449823D01*
X125504024Y-105610242D01*
X125433114Y-105742906D01*
X125425004Y-105758078D01*
X125318659Y-105887659D01*
X125189078Y-105994004D01*
X125189076Y-105994005D01*
X125041242Y-106073024D01*
X124880823Y-106121687D01*
X124755804Y-106134000D01*
X124672196Y-106134000D01*
X124547177Y-106121687D01*
X124386758Y-106073024D01*
X124238924Y-105994005D01*
X124238922Y-105994004D01*
X124109341Y-105887659D01*
X124002996Y-105758078D01*
X123994886Y-105742906D01*
X123923976Y-105610242D01*
X123875313Y-105449823D01*
X123858883Y-105283000D01*
X123875313Y-105116177D01*
X123923976Y-104955758D01*
X124002995Y-104807924D01*
X124002996Y-104807922D01*
X124109341Y-104678341D01*
X124238922Y-104571996D01*
X124254094Y-104563886D01*
X124386758Y-104492976D01*
X124547177Y-104444313D01*
X124672196Y-104432000D01*
X124755804Y-104432000D01*
X124880823Y-104444313D01*
X124880823Y-104444313D01*
G37*
G36*
X129960823Y-104444313D02*
G01*
X130121242Y-104492976D01*
X130253906Y-104563886D01*
X130269078Y-104571996D01*
X130398659Y-104678341D01*
X130505004Y-104807922D01*
X130505005Y-104807924D01*
X130584024Y-104955758D01*
X130632687Y-105116177D01*
X130649117Y-105283000D01*
X130632687Y-105449823D01*
X130584024Y-105610242D01*
X130513114Y-105742906D01*
X130505004Y-105758078D01*
X130398659Y-105887659D01*
X130269078Y-105994004D01*
X130269076Y-105994005D01*
X130121242Y-106073024D01*
X129960823Y-106121687D01*
X129835804Y-106134000D01*
X129752196Y-106134000D01*
X129627177Y-106121687D01*
X129466758Y-106073024D01*
X129318924Y-105994005D01*
X129318922Y-105994004D01*
X129189341Y-105887659D01*
X129082996Y-105758078D01*
X129074886Y-105742906D01*
X129003976Y-105610242D01*
X128955313Y-105449823D01*
X128938883Y-105283000D01*
X128955313Y-105116177D01*
X129003976Y-104955758D01*
X129082995Y-104807924D01*
X129082996Y-104807922D01*
X129189341Y-104678341D01*
X129318922Y-104571996D01*
X129334094Y-104563886D01*
X129466758Y-104492976D01*
X129627177Y-104444313D01*
X129752196Y-104432000D01*
X129835804Y-104432000D01*
X129960823Y-104444313D01*
X129960823Y-104444313D01*
G37*
G36*
X112180823Y-104444313D02*
G01*
X112341242Y-104492976D01*
X112473906Y-104563886D01*
X112489078Y-104571996D01*
X112618659Y-104678341D01*
X112725004Y-104807922D01*
X112725005Y-104807924D01*
X112804024Y-104955758D01*
X112852687Y-105116177D01*
X112869117Y-105283000D01*
X112852687Y-105449823D01*
X112804024Y-105610242D01*
X112733114Y-105742906D01*
X112725004Y-105758078D01*
X112618659Y-105887659D01*
X112489078Y-105994004D01*
X112489076Y-105994005D01*
X112341242Y-106073024D01*
X112180823Y-106121687D01*
X112055804Y-106134000D01*
X111972196Y-106134000D01*
X111847177Y-106121687D01*
X111686758Y-106073024D01*
X111538924Y-105994005D01*
X111538922Y-105994004D01*
X111409341Y-105887659D01*
X111302996Y-105758078D01*
X111294886Y-105742906D01*
X111223976Y-105610242D01*
X111175313Y-105449823D01*
X111158883Y-105283000D01*
X111175313Y-105116177D01*
X111223976Y-104955758D01*
X111302995Y-104807924D01*
X111302996Y-104807922D01*
X111409341Y-104678341D01*
X111538922Y-104571996D01*
X111554094Y-104563886D01*
X111686758Y-104492976D01*
X111847177Y-104444313D01*
X111972196Y-104432000D01*
X112055804Y-104432000D01*
X112180823Y-104444313D01*
X112180823Y-104444313D01*
G37*
G36*
X135040823Y-104444313D02*
G01*
X135201242Y-104492976D01*
X135333906Y-104563886D01*
X135349078Y-104571996D01*
X135478659Y-104678341D01*
X135585004Y-104807922D01*
X135585005Y-104807924D01*
X135664024Y-104955758D01*
X135712687Y-105116177D01*
X135729117Y-105283000D01*
X135712687Y-105449823D01*
X135664024Y-105610242D01*
X135593114Y-105742906D01*
X135585004Y-105758078D01*
X135478659Y-105887659D01*
X135349078Y-105994004D01*
X135349076Y-105994005D01*
X135201242Y-106073024D01*
X135040823Y-106121687D01*
X134915804Y-106134000D01*
X134832196Y-106134000D01*
X134707177Y-106121687D01*
X134546758Y-106073024D01*
X134398924Y-105994005D01*
X134398922Y-105994004D01*
X134269341Y-105887659D01*
X134162996Y-105758078D01*
X134154886Y-105742906D01*
X134083976Y-105610242D01*
X134035313Y-105449823D01*
X134018883Y-105283000D01*
X134035313Y-105116177D01*
X134083976Y-104955758D01*
X134162995Y-104807924D01*
X134162996Y-104807922D01*
X134269341Y-104678341D01*
X134398922Y-104571996D01*
X134414094Y-104563886D01*
X134546758Y-104492976D01*
X134707177Y-104444313D01*
X134832196Y-104432000D01*
X134915804Y-104432000D01*
X135040823Y-104444313D01*
X135040823Y-104444313D01*
G37*
G36*
X132500823Y-104444313D02*
G01*
X132661242Y-104492976D01*
X132793906Y-104563886D01*
X132809078Y-104571996D01*
X132938659Y-104678341D01*
X133045004Y-104807922D01*
X133045005Y-104807924D01*
X133124024Y-104955758D01*
X133172687Y-105116177D01*
X133189117Y-105283000D01*
X133172687Y-105449823D01*
X133124024Y-105610242D01*
X133053114Y-105742906D01*
X133045004Y-105758078D01*
X132938659Y-105887659D01*
X132809078Y-105994004D01*
X132809076Y-105994005D01*
X132661242Y-106073024D01*
X132500823Y-106121687D01*
X132375804Y-106134000D01*
X132292196Y-106134000D01*
X132167177Y-106121687D01*
X132006758Y-106073024D01*
X131858924Y-105994005D01*
X131858922Y-105994004D01*
X131729341Y-105887659D01*
X131622996Y-105758078D01*
X131614886Y-105742906D01*
X131543976Y-105610242D01*
X131495313Y-105449823D01*
X131478883Y-105283000D01*
X131495313Y-105116177D01*
X131543976Y-104955758D01*
X131622995Y-104807924D01*
X131622996Y-104807922D01*
X131729341Y-104678341D01*
X131858922Y-104571996D01*
X131874094Y-104563886D01*
X132006758Y-104492976D01*
X132167177Y-104444313D01*
X132292196Y-104432000D01*
X132375804Y-104432000D01*
X132500823Y-104444313D01*
X132500823Y-104444313D01*
G37*
G36*
X127420823Y-104444313D02*
G01*
X127581242Y-104492976D01*
X127713906Y-104563886D01*
X127729078Y-104571996D01*
X127858659Y-104678341D01*
X127965004Y-104807922D01*
X127965005Y-104807924D01*
X128044024Y-104955758D01*
X128092687Y-105116177D01*
X128109117Y-105283000D01*
X128092687Y-105449823D01*
X128044024Y-105610242D01*
X127973114Y-105742906D01*
X127965004Y-105758078D01*
X127858659Y-105887659D01*
X127729078Y-105994004D01*
X127729076Y-105994005D01*
X127581242Y-106073024D01*
X127420823Y-106121687D01*
X127295804Y-106134000D01*
X127212196Y-106134000D01*
X127087177Y-106121687D01*
X126926758Y-106073024D01*
X126778924Y-105994005D01*
X126778922Y-105994004D01*
X126649341Y-105887659D01*
X126542996Y-105758078D01*
X126534886Y-105742906D01*
X126463976Y-105610242D01*
X126415313Y-105449823D01*
X126398883Y-105283000D01*
X126415313Y-105116177D01*
X126463976Y-104955758D01*
X126542995Y-104807924D01*
X126542996Y-104807922D01*
X126649341Y-104678341D01*
X126778922Y-104571996D01*
X126794094Y-104563886D01*
X126926758Y-104492976D01*
X127087177Y-104444313D01*
X127212196Y-104432000D01*
X127295804Y-104432000D01*
X127420823Y-104444313D01*
X127420823Y-104444313D01*
G37*
G36*
X122340823Y-104444313D02*
G01*
X122501242Y-104492976D01*
X122633906Y-104563886D01*
X122649078Y-104571996D01*
X122778659Y-104678341D01*
X122885004Y-104807922D01*
X122885005Y-104807924D01*
X122964024Y-104955758D01*
X123012687Y-105116177D01*
X123029117Y-105283000D01*
X123012687Y-105449823D01*
X122964024Y-105610242D01*
X122893114Y-105742906D01*
X122885004Y-105758078D01*
X122778659Y-105887659D01*
X122649078Y-105994004D01*
X122649076Y-105994005D01*
X122501242Y-106073024D01*
X122340823Y-106121687D01*
X122215804Y-106134000D01*
X122132196Y-106134000D01*
X122007177Y-106121687D01*
X121846758Y-106073024D01*
X121698924Y-105994005D01*
X121698922Y-105994004D01*
X121569341Y-105887659D01*
X121462996Y-105758078D01*
X121454886Y-105742906D01*
X121383976Y-105610242D01*
X121335313Y-105449823D01*
X121318883Y-105283000D01*
X121335313Y-105116177D01*
X121383976Y-104955758D01*
X121462995Y-104807924D01*
X121462996Y-104807922D01*
X121569341Y-104678341D01*
X121698922Y-104571996D01*
X121714094Y-104563886D01*
X121846758Y-104492976D01*
X122007177Y-104444313D01*
X122132196Y-104432000D01*
X122215804Y-104432000D01*
X122340823Y-104444313D01*
X122340823Y-104444313D01*
G37*
G36*
X119800823Y-104444313D02*
G01*
X119961242Y-104492976D01*
X120093906Y-104563886D01*
X120109078Y-104571996D01*
X120238659Y-104678341D01*
X120345004Y-104807922D01*
X120345005Y-104807924D01*
X120424024Y-104955758D01*
X120472687Y-105116177D01*
X120489117Y-105283000D01*
X120472687Y-105449823D01*
X120424024Y-105610242D01*
X120353114Y-105742906D01*
X120345004Y-105758078D01*
X120238659Y-105887659D01*
X120109078Y-105994004D01*
X120109076Y-105994005D01*
X119961242Y-106073024D01*
X119800823Y-106121687D01*
X119675804Y-106134000D01*
X119592196Y-106134000D01*
X119467177Y-106121687D01*
X119306758Y-106073024D01*
X119158924Y-105994005D01*
X119158922Y-105994004D01*
X119029341Y-105887659D01*
X118922996Y-105758078D01*
X118914886Y-105742906D01*
X118843976Y-105610242D01*
X118795313Y-105449823D01*
X118778883Y-105283000D01*
X118795313Y-105116177D01*
X118843976Y-104955758D01*
X118922995Y-104807924D01*
X118922996Y-104807922D01*
X119029341Y-104678341D01*
X119158922Y-104571996D01*
X119174094Y-104563886D01*
X119306758Y-104492976D01*
X119467177Y-104444313D01*
X119592196Y-104432000D01*
X119675804Y-104432000D01*
X119800823Y-104444313D01*
X119800823Y-104444313D01*
G37*
G36*
X114720823Y-104444313D02*
G01*
X114881242Y-104492976D01*
X115013906Y-104563886D01*
X115029078Y-104571996D01*
X115158659Y-104678341D01*
X115265004Y-104807922D01*
X115265005Y-104807924D01*
X115344024Y-104955758D01*
X115392687Y-105116177D01*
X115409117Y-105283000D01*
X115392687Y-105449823D01*
X115344024Y-105610242D01*
X115273114Y-105742906D01*
X115265004Y-105758078D01*
X115158659Y-105887659D01*
X115029078Y-105994004D01*
X115029076Y-105994005D01*
X114881242Y-106073024D01*
X114720823Y-106121687D01*
X114595804Y-106134000D01*
X114512196Y-106134000D01*
X114387177Y-106121687D01*
X114226758Y-106073024D01*
X114078924Y-105994005D01*
X114078922Y-105994004D01*
X113949341Y-105887659D01*
X113842996Y-105758078D01*
X113834886Y-105742906D01*
X113763976Y-105610242D01*
X113715313Y-105449823D01*
X113698883Y-105283000D01*
X113715313Y-105116177D01*
X113763976Y-104955758D01*
X113842995Y-104807924D01*
X113842996Y-104807922D01*
X113949341Y-104678341D01*
X114078922Y-104571996D01*
X114094094Y-104563886D01*
X114226758Y-104492976D01*
X114387177Y-104444313D01*
X114512196Y-104432000D01*
X114595804Y-104432000D01*
X114720823Y-104444313D01*
X114720823Y-104444313D01*
G37*
G36*
X117260823Y-104444313D02*
G01*
X117421242Y-104492976D01*
X117553906Y-104563886D01*
X117569078Y-104571996D01*
X117698659Y-104678341D01*
X117805004Y-104807922D01*
X117805005Y-104807924D01*
X117884024Y-104955758D01*
X117932687Y-105116177D01*
X117949117Y-105283000D01*
X117932687Y-105449823D01*
X117884024Y-105610242D01*
X117813114Y-105742906D01*
X117805004Y-105758078D01*
X117698659Y-105887659D01*
X117569078Y-105994004D01*
X117569076Y-105994005D01*
X117421242Y-106073024D01*
X117260823Y-106121687D01*
X117135804Y-106134000D01*
X117052196Y-106134000D01*
X116927177Y-106121687D01*
X116766758Y-106073024D01*
X116618924Y-105994005D01*
X116618922Y-105994004D01*
X116489341Y-105887659D01*
X116382996Y-105758078D01*
X116374886Y-105742906D01*
X116303976Y-105610242D01*
X116255313Y-105449823D01*
X116238883Y-105283000D01*
X116255313Y-105116177D01*
X116303976Y-104955758D01*
X116382995Y-104807924D01*
X116382996Y-104807922D01*
X116489341Y-104678341D01*
X116618922Y-104571996D01*
X116634094Y-104563886D01*
X116766758Y-104492976D01*
X116927177Y-104444313D01*
X117052196Y-104432000D01*
X117135804Y-104432000D01*
X117260823Y-104444313D01*
X117260823Y-104444313D01*
G37*
G36*
X109640823Y-104444313D02*
G01*
X109801242Y-104492976D01*
X109933906Y-104563886D01*
X109949078Y-104571996D01*
X110078659Y-104678341D01*
X110185004Y-104807922D01*
X110185005Y-104807924D01*
X110264024Y-104955758D01*
X110312687Y-105116177D01*
X110329117Y-105283000D01*
X110312687Y-105449823D01*
X110264024Y-105610242D01*
X110193114Y-105742906D01*
X110185004Y-105758078D01*
X110078659Y-105887659D01*
X109949078Y-105994004D01*
X109949076Y-105994005D01*
X109801242Y-106073024D01*
X109640823Y-106121687D01*
X109515804Y-106134000D01*
X109432196Y-106134000D01*
X109307177Y-106121687D01*
X109146758Y-106073024D01*
X108998924Y-105994005D01*
X108998922Y-105994004D01*
X108869341Y-105887659D01*
X108762996Y-105758078D01*
X108754886Y-105742906D01*
X108683976Y-105610242D01*
X108635313Y-105449823D01*
X108618883Y-105283000D01*
X108635313Y-105116177D01*
X108683976Y-104955758D01*
X108762995Y-104807924D01*
X108762996Y-104807922D01*
X108869341Y-104678341D01*
X108998922Y-104571996D01*
X109014094Y-104563886D01*
X109146758Y-104492976D01*
X109307177Y-104444313D01*
X109432196Y-104432000D01*
X109515804Y-104432000D01*
X109640823Y-104444313D01*
X109640823Y-104444313D01*
G37*
G36*
X137580823Y-104444313D02*
G01*
X137741242Y-104492976D01*
X137873906Y-104563886D01*
X137889078Y-104571996D01*
X138018659Y-104678341D01*
X138125004Y-104807922D01*
X138125005Y-104807924D01*
X138204024Y-104955758D01*
X138252687Y-105116177D01*
X138269117Y-105283000D01*
X138252687Y-105449823D01*
X138204024Y-105610242D01*
X138133114Y-105742906D01*
X138125004Y-105758078D01*
X138018659Y-105887659D01*
X137889078Y-105994004D01*
X137889076Y-105994005D01*
X137741242Y-106073024D01*
X137580823Y-106121687D01*
X137455804Y-106134000D01*
X137372196Y-106134000D01*
X137247177Y-106121687D01*
X137086758Y-106073024D01*
X136938924Y-105994005D01*
X136938922Y-105994004D01*
X136809341Y-105887659D01*
X136702996Y-105758078D01*
X136694886Y-105742906D01*
X136623976Y-105610242D01*
X136575313Y-105449823D01*
X136558883Y-105283000D01*
X136575313Y-105116177D01*
X136623976Y-104955758D01*
X136702995Y-104807924D01*
X136702996Y-104807922D01*
X136809341Y-104678341D01*
X136938922Y-104571996D01*
X136954094Y-104563886D01*
X137086758Y-104492976D01*
X137247177Y-104444313D01*
X137372196Y-104432000D01*
X137455804Y-104432000D01*
X137580823Y-104444313D01*
X137580823Y-104444313D01*
G37*
G36*
X102020823Y-104444313D02*
G01*
X102181242Y-104492976D01*
X102313906Y-104563886D01*
X102329078Y-104571996D01*
X102458659Y-104678341D01*
X102565004Y-104807922D01*
X102565005Y-104807924D01*
X102644024Y-104955758D01*
X102692687Y-105116177D01*
X102709117Y-105283000D01*
X102692687Y-105449823D01*
X102644024Y-105610242D01*
X102573114Y-105742906D01*
X102565004Y-105758078D01*
X102458659Y-105887659D01*
X102329078Y-105994004D01*
X102329076Y-105994005D01*
X102181242Y-106073024D01*
X102020823Y-106121687D01*
X101895804Y-106134000D01*
X101812196Y-106134000D01*
X101687177Y-106121687D01*
X101526758Y-106073024D01*
X101378924Y-105994005D01*
X101378922Y-105994004D01*
X101249341Y-105887659D01*
X101142996Y-105758078D01*
X101134886Y-105742906D01*
X101063976Y-105610242D01*
X101015313Y-105449823D01*
X100998883Y-105283000D01*
X101015313Y-105116177D01*
X101063976Y-104955758D01*
X101142995Y-104807924D01*
X101142996Y-104807922D01*
X101249341Y-104678341D01*
X101378922Y-104571996D01*
X101394094Y-104563886D01*
X101526758Y-104492976D01*
X101687177Y-104444313D01*
X101812196Y-104432000D01*
X101895804Y-104432000D01*
X102020823Y-104444313D01*
X102020823Y-104444313D01*
G37*
G36*
X150712154Y-99550182D02*
G01*
X150780482Y-99563773D01*
X150877027Y-99603763D01*
X150973573Y-99643754D01*
X151147346Y-99759865D01*
X151295135Y-99907654D01*
X151411246Y-100081427D01*
X151491227Y-100274519D01*
X151532000Y-100479499D01*
X151532000Y-100688501D01*
X151491227Y-100893481D01*
X151411246Y-101086573D01*
X151295135Y-101260346D01*
X151147346Y-101408135D01*
X150973573Y-101524246D01*
X150877027Y-101564236D01*
X150780482Y-101604227D01*
X150712154Y-101617818D01*
X150575501Y-101645000D01*
X150366499Y-101645000D01*
X150229846Y-101617818D01*
X150161518Y-101604227D01*
X150064973Y-101564236D01*
X149968427Y-101524246D01*
X149794654Y-101408135D01*
X149646865Y-101260346D01*
X149530754Y-101086573D01*
X149450773Y-100893481D01*
X149410000Y-100688501D01*
X149410000Y-100479499D01*
X149450773Y-100274519D01*
X149530754Y-100081427D01*
X149646865Y-99907654D01*
X149794654Y-99759865D01*
X149968427Y-99643754D01*
X150064973Y-99603764D01*
X150161518Y-99563773D01*
X150229846Y-99550182D01*
X150366499Y-99523000D01*
X150575501Y-99523000D01*
X150712154Y-99550182D01*
X150712154Y-99550182D01*
G37*
G36*
X150712154Y-97010182D02*
G01*
X150780482Y-97023773D01*
X150877027Y-97063763D01*
X150973573Y-97103754D01*
X151147346Y-97219865D01*
X151295135Y-97367654D01*
X151411246Y-97541427D01*
X151491227Y-97734519D01*
X151532000Y-97939499D01*
X151532000Y-98148501D01*
X151491227Y-98353481D01*
X151411246Y-98546573D01*
X151295135Y-98720346D01*
X151147346Y-98868135D01*
X150973573Y-98984246D01*
X150877027Y-99024236D01*
X150780482Y-99064227D01*
X150712154Y-99077818D01*
X150575501Y-99105000D01*
X150366499Y-99105000D01*
X150229846Y-99077818D01*
X150161518Y-99064227D01*
X150064973Y-99024236D01*
X149968427Y-98984246D01*
X149794654Y-98868135D01*
X149646865Y-98720346D01*
X149530754Y-98546573D01*
X149450773Y-98353481D01*
X149410000Y-98148501D01*
X149410000Y-97939499D01*
X149450773Y-97734519D01*
X149530754Y-97541427D01*
X149646865Y-97367654D01*
X149794654Y-97219865D01*
X149968427Y-97103754D01*
X150064973Y-97063764D01*
X150161518Y-97023773D01*
X150229846Y-97010182D01*
X150366499Y-96983000D01*
X150575501Y-96983000D01*
X150712154Y-97010182D01*
X150712154Y-97010182D01*
G37*
G36*
X150712154Y-94470182D02*
G01*
X150780482Y-94483773D01*
X150877027Y-94523763D01*
X150973573Y-94563754D01*
X151147346Y-94679865D01*
X151295135Y-94827654D01*
X151411246Y-95001427D01*
X151491227Y-95194519D01*
X151532000Y-95399499D01*
X151532000Y-95608501D01*
X151491227Y-95813481D01*
X151411246Y-96006573D01*
X151295135Y-96180346D01*
X151147346Y-96328135D01*
X150973573Y-96444246D01*
X150877027Y-96484236D01*
X150780482Y-96524227D01*
X150712154Y-96537818D01*
X150575501Y-96565000D01*
X150366499Y-96565000D01*
X150229846Y-96537818D01*
X150161518Y-96524227D01*
X150064973Y-96484236D01*
X149968427Y-96444246D01*
X149794654Y-96328135D01*
X149646865Y-96180346D01*
X149530754Y-96006573D01*
X149450773Y-95813481D01*
X149410000Y-95608501D01*
X149410000Y-95399499D01*
X149450773Y-95194519D01*
X149530754Y-95001427D01*
X149646865Y-94827654D01*
X149794654Y-94679865D01*
X149968427Y-94563754D01*
X150064973Y-94523764D01*
X150161518Y-94483773D01*
X150229846Y-94470182D01*
X150366499Y-94443000D01*
X150575501Y-94443000D01*
X150712154Y-94470182D01*
X150712154Y-94470182D01*
G37*
G36*
X151120562Y-89687181D02*
G01*
X151155481Y-89697774D01*
X151187663Y-89714976D01*
X151215873Y-89738127D01*
X151239024Y-89766337D01*
X151256226Y-89798519D01*
X151266819Y-89833438D01*
X151271000Y-89875895D01*
X151271000Y-92242105D01*
X151266819Y-92284562D01*
X151256226Y-92319481D01*
X151239024Y-92351663D01*
X151215873Y-92379873D01*
X151187663Y-92403024D01*
X151155481Y-92420226D01*
X151120562Y-92430819D01*
X151078105Y-92435000D01*
X149936895Y-92435000D01*
X149894438Y-92430819D01*
X149859519Y-92420226D01*
X149827337Y-92403024D01*
X149799127Y-92379873D01*
X149775976Y-92351663D01*
X149758774Y-92319481D01*
X149748181Y-92284562D01*
X149744000Y-92242105D01*
X149744000Y-89875895D01*
X149748181Y-89833438D01*
X149758774Y-89798519D01*
X149775976Y-89766337D01*
X149799127Y-89738127D01*
X149827337Y-89714976D01*
X149859519Y-89697774D01*
X149894438Y-89687181D01*
X149936895Y-89683000D01*
X151078105Y-89683000D01*
X151120562Y-89687181D01*
X151120562Y-89687181D01*
G37*
G36*
X154095562Y-89687181D02*
G01*
X154130481Y-89697774D01*
X154162663Y-89714976D01*
X154190873Y-89738127D01*
X154214024Y-89766337D01*
X154231226Y-89798519D01*
X154241819Y-89833438D01*
X154246000Y-89875895D01*
X154246000Y-92242105D01*
X154241819Y-92284562D01*
X154231226Y-92319481D01*
X154214024Y-92351663D01*
X154190873Y-92379873D01*
X154162663Y-92403024D01*
X154130481Y-92420226D01*
X154095562Y-92430819D01*
X154053105Y-92435000D01*
X152911895Y-92435000D01*
X152869438Y-92430819D01*
X152834519Y-92420226D01*
X152802337Y-92403024D01*
X152774127Y-92379873D01*
X152750976Y-92351663D01*
X152733774Y-92319481D01*
X152723181Y-92284562D01*
X152719000Y-92242105D01*
X152719000Y-89875895D01*
X152723181Y-89833438D01*
X152733774Y-89798519D01*
X152750976Y-89766337D01*
X152774127Y-89738127D01*
X152802337Y-89714976D01*
X152834519Y-89697774D01*
X152869438Y-89687181D01*
X152911895Y-89683000D01*
X154053105Y-89683000D01*
X154095562Y-89687181D01*
X154095562Y-89687181D01*
G37*
G36*
X114720823Y-89204313D02*
G01*
X114881242Y-89252976D01*
X115013906Y-89323886D01*
X115029078Y-89331996D01*
X115158659Y-89438341D01*
X115265004Y-89567922D01*
X115265005Y-89567924D01*
X115344024Y-89715758D01*
X115344025Y-89715761D01*
X115350810Y-89738127D01*
X115392687Y-89876177D01*
X115409117Y-90043000D01*
X115392687Y-90209823D01*
X115344024Y-90370242D01*
X115273114Y-90502906D01*
X115265004Y-90518078D01*
X115158659Y-90647659D01*
X115029078Y-90754004D01*
X115029076Y-90754005D01*
X114881242Y-90833024D01*
X114720823Y-90881687D01*
X114595804Y-90894000D01*
X114512196Y-90894000D01*
X114387177Y-90881687D01*
X114226758Y-90833024D01*
X114078924Y-90754005D01*
X114078922Y-90754004D01*
X113949341Y-90647659D01*
X113842996Y-90518078D01*
X113834886Y-90502906D01*
X113763976Y-90370242D01*
X113715313Y-90209823D01*
X113698883Y-90043000D01*
X113715313Y-89876177D01*
X113757190Y-89738127D01*
X113763975Y-89715761D01*
X113763976Y-89715758D01*
X113842995Y-89567924D01*
X113842996Y-89567922D01*
X113949341Y-89438341D01*
X114078922Y-89331996D01*
X114094094Y-89323886D01*
X114226758Y-89252976D01*
X114387177Y-89204313D01*
X114512196Y-89192000D01*
X114595804Y-89192000D01*
X114720823Y-89204313D01*
X114720823Y-89204313D01*
G37*
G36*
X112180823Y-89204313D02*
G01*
X112341242Y-89252976D01*
X112473906Y-89323886D01*
X112489078Y-89331996D01*
X112618659Y-89438341D01*
X112725004Y-89567922D01*
X112725005Y-89567924D01*
X112804024Y-89715758D01*
X112804025Y-89715761D01*
X112810810Y-89738127D01*
X112852687Y-89876177D01*
X112869117Y-90043000D01*
X112852687Y-90209823D01*
X112804024Y-90370242D01*
X112733114Y-90502906D01*
X112725004Y-90518078D01*
X112618659Y-90647659D01*
X112489078Y-90754004D01*
X112489076Y-90754005D01*
X112341242Y-90833024D01*
X112180823Y-90881687D01*
X112055804Y-90894000D01*
X111972196Y-90894000D01*
X111847177Y-90881687D01*
X111686758Y-90833024D01*
X111538924Y-90754005D01*
X111538922Y-90754004D01*
X111409341Y-90647659D01*
X111302996Y-90518078D01*
X111294886Y-90502906D01*
X111223976Y-90370242D01*
X111175313Y-90209823D01*
X111158883Y-90043000D01*
X111175313Y-89876177D01*
X111217190Y-89738127D01*
X111223975Y-89715761D01*
X111223976Y-89715758D01*
X111302995Y-89567924D01*
X111302996Y-89567922D01*
X111409341Y-89438341D01*
X111538922Y-89331996D01*
X111554094Y-89323886D01*
X111686758Y-89252976D01*
X111847177Y-89204313D01*
X111972196Y-89192000D01*
X112055804Y-89192000D01*
X112180823Y-89204313D01*
X112180823Y-89204313D01*
G37*
G36*
X117260823Y-89204313D02*
G01*
X117421242Y-89252976D01*
X117553906Y-89323886D01*
X117569078Y-89331996D01*
X117698659Y-89438341D01*
X117805004Y-89567922D01*
X117805005Y-89567924D01*
X117884024Y-89715758D01*
X117884025Y-89715761D01*
X117890810Y-89738127D01*
X117932687Y-89876177D01*
X117949117Y-90043000D01*
X117932687Y-90209823D01*
X117884024Y-90370242D01*
X117813114Y-90502906D01*
X117805004Y-90518078D01*
X117698659Y-90647659D01*
X117569078Y-90754004D01*
X117569076Y-90754005D01*
X117421242Y-90833024D01*
X117260823Y-90881687D01*
X117135804Y-90894000D01*
X117052196Y-90894000D01*
X116927177Y-90881687D01*
X116766758Y-90833024D01*
X116618924Y-90754005D01*
X116618922Y-90754004D01*
X116489341Y-90647659D01*
X116382996Y-90518078D01*
X116374886Y-90502906D01*
X116303976Y-90370242D01*
X116255313Y-90209823D01*
X116238883Y-90043000D01*
X116255313Y-89876177D01*
X116297190Y-89738127D01*
X116303975Y-89715761D01*
X116303976Y-89715758D01*
X116382995Y-89567924D01*
X116382996Y-89567922D01*
X116489341Y-89438341D01*
X116618922Y-89331996D01*
X116634094Y-89323886D01*
X116766758Y-89252976D01*
X116927177Y-89204313D01*
X117052196Y-89192000D01*
X117135804Y-89192000D01*
X117260823Y-89204313D01*
X117260823Y-89204313D01*
G37*
G36*
X119800823Y-89204313D02*
G01*
X119961242Y-89252976D01*
X120093906Y-89323886D01*
X120109078Y-89331996D01*
X120238659Y-89438341D01*
X120345004Y-89567922D01*
X120345005Y-89567924D01*
X120424024Y-89715758D01*
X120424025Y-89715761D01*
X120430810Y-89738127D01*
X120472687Y-89876177D01*
X120489117Y-90043000D01*
X120472687Y-90209823D01*
X120424024Y-90370242D01*
X120353114Y-90502906D01*
X120345004Y-90518078D01*
X120238659Y-90647659D01*
X120109078Y-90754004D01*
X120109076Y-90754005D01*
X119961242Y-90833024D01*
X119800823Y-90881687D01*
X119675804Y-90894000D01*
X119592196Y-90894000D01*
X119467177Y-90881687D01*
X119306758Y-90833024D01*
X119158924Y-90754005D01*
X119158922Y-90754004D01*
X119029341Y-90647659D01*
X118922996Y-90518078D01*
X118914886Y-90502906D01*
X118843976Y-90370242D01*
X118795313Y-90209823D01*
X118778883Y-90043000D01*
X118795313Y-89876177D01*
X118837190Y-89738127D01*
X118843975Y-89715761D01*
X118843976Y-89715758D01*
X118922995Y-89567924D01*
X118922996Y-89567922D01*
X119029341Y-89438341D01*
X119158922Y-89331996D01*
X119174094Y-89323886D01*
X119306758Y-89252976D01*
X119467177Y-89204313D01*
X119592196Y-89192000D01*
X119675804Y-89192000D01*
X119800823Y-89204313D01*
X119800823Y-89204313D01*
G37*
G36*
X107100823Y-89204313D02*
G01*
X107261242Y-89252976D01*
X107393906Y-89323886D01*
X107409078Y-89331996D01*
X107538659Y-89438341D01*
X107645004Y-89567922D01*
X107645005Y-89567924D01*
X107724024Y-89715758D01*
X107724025Y-89715761D01*
X107730810Y-89738127D01*
X107772687Y-89876177D01*
X107789117Y-90043000D01*
X107772687Y-90209823D01*
X107724024Y-90370242D01*
X107653114Y-90502906D01*
X107645004Y-90518078D01*
X107538659Y-90647659D01*
X107409078Y-90754004D01*
X107409076Y-90754005D01*
X107261242Y-90833024D01*
X107100823Y-90881687D01*
X106975804Y-90894000D01*
X106892196Y-90894000D01*
X106767177Y-90881687D01*
X106606758Y-90833024D01*
X106458924Y-90754005D01*
X106458922Y-90754004D01*
X106329341Y-90647659D01*
X106222996Y-90518078D01*
X106214886Y-90502906D01*
X106143976Y-90370242D01*
X106095313Y-90209823D01*
X106078883Y-90043000D01*
X106095313Y-89876177D01*
X106137190Y-89738127D01*
X106143975Y-89715761D01*
X106143976Y-89715758D01*
X106222995Y-89567924D01*
X106222996Y-89567922D01*
X106329341Y-89438341D01*
X106458922Y-89331996D01*
X106474094Y-89323886D01*
X106606758Y-89252976D01*
X106767177Y-89204313D01*
X106892196Y-89192000D01*
X106975804Y-89192000D01*
X107100823Y-89204313D01*
X107100823Y-89204313D01*
G37*
G36*
X122340823Y-89204313D02*
G01*
X122501242Y-89252976D01*
X122633906Y-89323886D01*
X122649078Y-89331996D01*
X122778659Y-89438341D01*
X122885004Y-89567922D01*
X122885005Y-89567924D01*
X122964024Y-89715758D01*
X122964025Y-89715761D01*
X122970810Y-89738127D01*
X123012687Y-89876177D01*
X123029117Y-90043000D01*
X123012687Y-90209823D01*
X122964024Y-90370242D01*
X122893114Y-90502906D01*
X122885004Y-90518078D01*
X122778659Y-90647659D01*
X122649078Y-90754004D01*
X122649076Y-90754005D01*
X122501242Y-90833024D01*
X122340823Y-90881687D01*
X122215804Y-90894000D01*
X122132196Y-90894000D01*
X122007177Y-90881687D01*
X121846758Y-90833024D01*
X121698924Y-90754005D01*
X121698922Y-90754004D01*
X121569341Y-90647659D01*
X121462996Y-90518078D01*
X121454886Y-90502906D01*
X121383976Y-90370242D01*
X121335313Y-90209823D01*
X121318883Y-90043000D01*
X121335313Y-89876177D01*
X121377190Y-89738127D01*
X121383975Y-89715761D01*
X121383976Y-89715758D01*
X121462995Y-89567924D01*
X121462996Y-89567922D01*
X121569341Y-89438341D01*
X121698922Y-89331996D01*
X121714094Y-89323886D01*
X121846758Y-89252976D01*
X122007177Y-89204313D01*
X122132196Y-89192000D01*
X122215804Y-89192000D01*
X122340823Y-89204313D01*
X122340823Y-89204313D01*
G37*
G36*
X104560823Y-89204313D02*
G01*
X104721242Y-89252976D01*
X104853906Y-89323886D01*
X104869078Y-89331996D01*
X104998659Y-89438341D01*
X105105004Y-89567922D01*
X105105005Y-89567924D01*
X105184024Y-89715758D01*
X105184025Y-89715761D01*
X105190810Y-89738127D01*
X105232687Y-89876177D01*
X105249117Y-90043000D01*
X105232687Y-90209823D01*
X105184024Y-90370242D01*
X105113114Y-90502906D01*
X105105004Y-90518078D01*
X104998659Y-90647659D01*
X104869078Y-90754004D01*
X104869076Y-90754005D01*
X104721242Y-90833024D01*
X104560823Y-90881687D01*
X104435804Y-90894000D01*
X104352196Y-90894000D01*
X104227177Y-90881687D01*
X104066758Y-90833024D01*
X103918924Y-90754005D01*
X103918922Y-90754004D01*
X103789341Y-90647659D01*
X103682996Y-90518078D01*
X103674886Y-90502906D01*
X103603976Y-90370242D01*
X103555313Y-90209823D01*
X103538883Y-90043000D01*
X103555313Y-89876177D01*
X103597190Y-89738127D01*
X103603975Y-89715761D01*
X103603976Y-89715758D01*
X103682995Y-89567924D01*
X103682996Y-89567922D01*
X103789341Y-89438341D01*
X103918922Y-89331996D01*
X103934094Y-89323886D01*
X104066758Y-89252976D01*
X104227177Y-89204313D01*
X104352196Y-89192000D01*
X104435804Y-89192000D01*
X104560823Y-89204313D01*
X104560823Y-89204313D01*
G37*
G36*
X124880823Y-89204313D02*
G01*
X125041242Y-89252976D01*
X125173906Y-89323886D01*
X125189078Y-89331996D01*
X125318659Y-89438341D01*
X125425004Y-89567922D01*
X125425005Y-89567924D01*
X125504024Y-89715758D01*
X125504025Y-89715761D01*
X125510810Y-89738127D01*
X125552687Y-89876177D01*
X125569117Y-90043000D01*
X125552687Y-90209823D01*
X125504024Y-90370242D01*
X125433114Y-90502906D01*
X125425004Y-90518078D01*
X125318659Y-90647659D01*
X125189078Y-90754004D01*
X125189076Y-90754005D01*
X125041242Y-90833024D01*
X124880823Y-90881687D01*
X124755804Y-90894000D01*
X124672196Y-90894000D01*
X124547177Y-90881687D01*
X124386758Y-90833024D01*
X124238924Y-90754005D01*
X124238922Y-90754004D01*
X124109341Y-90647659D01*
X124002996Y-90518078D01*
X123994886Y-90502906D01*
X123923976Y-90370242D01*
X123875313Y-90209823D01*
X123858883Y-90043000D01*
X123875313Y-89876177D01*
X123917190Y-89738127D01*
X123923975Y-89715761D01*
X123923976Y-89715758D01*
X124002995Y-89567924D01*
X124002996Y-89567922D01*
X124109341Y-89438341D01*
X124238922Y-89331996D01*
X124254094Y-89323886D01*
X124386758Y-89252976D01*
X124547177Y-89204313D01*
X124672196Y-89192000D01*
X124755804Y-89192000D01*
X124880823Y-89204313D01*
X124880823Y-89204313D01*
G37*
G36*
X102020823Y-89204313D02*
G01*
X102181242Y-89252976D01*
X102313906Y-89323886D01*
X102329078Y-89331996D01*
X102458659Y-89438341D01*
X102565004Y-89567922D01*
X102565005Y-89567924D01*
X102644024Y-89715758D01*
X102644025Y-89715761D01*
X102650810Y-89738127D01*
X102692687Y-89876177D01*
X102709117Y-90043000D01*
X102692687Y-90209823D01*
X102644024Y-90370242D01*
X102573114Y-90502906D01*
X102565004Y-90518078D01*
X102458659Y-90647659D01*
X102329078Y-90754004D01*
X102329076Y-90754005D01*
X102181242Y-90833024D01*
X102020823Y-90881687D01*
X101895804Y-90894000D01*
X101812196Y-90894000D01*
X101687177Y-90881687D01*
X101526758Y-90833024D01*
X101378924Y-90754005D01*
X101378922Y-90754004D01*
X101249341Y-90647659D01*
X101142996Y-90518078D01*
X101134886Y-90502906D01*
X101063976Y-90370242D01*
X101015313Y-90209823D01*
X100998883Y-90043000D01*
X101015313Y-89876177D01*
X101057190Y-89738127D01*
X101063975Y-89715761D01*
X101063976Y-89715758D01*
X101142995Y-89567924D01*
X101142996Y-89567922D01*
X101249341Y-89438341D01*
X101378922Y-89331996D01*
X101394094Y-89323886D01*
X101526758Y-89252976D01*
X101687177Y-89204313D01*
X101812196Y-89192000D01*
X101895804Y-89192000D01*
X102020823Y-89204313D01*
X102020823Y-89204313D01*
G37*
G36*
X127420823Y-89204313D02*
G01*
X127581242Y-89252976D01*
X127713906Y-89323886D01*
X127729078Y-89331996D01*
X127858659Y-89438341D01*
X127965004Y-89567922D01*
X127965005Y-89567924D01*
X128044024Y-89715758D01*
X128044025Y-89715761D01*
X128050810Y-89738127D01*
X128092687Y-89876177D01*
X128109117Y-90043000D01*
X128092687Y-90209823D01*
X128044024Y-90370242D01*
X127973114Y-90502906D01*
X127965004Y-90518078D01*
X127858659Y-90647659D01*
X127729078Y-90754004D01*
X127729076Y-90754005D01*
X127581242Y-90833024D01*
X127420823Y-90881687D01*
X127295804Y-90894000D01*
X127212196Y-90894000D01*
X127087177Y-90881687D01*
X126926758Y-90833024D01*
X126778924Y-90754005D01*
X126778922Y-90754004D01*
X126649341Y-90647659D01*
X126542996Y-90518078D01*
X126534886Y-90502906D01*
X126463976Y-90370242D01*
X126415313Y-90209823D01*
X126398883Y-90043000D01*
X126415313Y-89876177D01*
X126457190Y-89738127D01*
X126463975Y-89715761D01*
X126463976Y-89715758D01*
X126542995Y-89567924D01*
X126542996Y-89567922D01*
X126649341Y-89438341D01*
X126778922Y-89331996D01*
X126794094Y-89323886D01*
X126926758Y-89252976D01*
X127087177Y-89204313D01*
X127212196Y-89192000D01*
X127295804Y-89192000D01*
X127420823Y-89204313D01*
X127420823Y-89204313D01*
G37*
G36*
X129960823Y-89204313D02*
G01*
X130121242Y-89252976D01*
X130253906Y-89323886D01*
X130269078Y-89331996D01*
X130398659Y-89438341D01*
X130505004Y-89567922D01*
X130505005Y-89567924D01*
X130584024Y-89715758D01*
X130584025Y-89715761D01*
X130590810Y-89738127D01*
X130632687Y-89876177D01*
X130649117Y-90043000D01*
X130632687Y-90209823D01*
X130584024Y-90370242D01*
X130513114Y-90502906D01*
X130505004Y-90518078D01*
X130398659Y-90647659D01*
X130269078Y-90754004D01*
X130269076Y-90754005D01*
X130121242Y-90833024D01*
X129960823Y-90881687D01*
X129835804Y-90894000D01*
X129752196Y-90894000D01*
X129627177Y-90881687D01*
X129466758Y-90833024D01*
X129318924Y-90754005D01*
X129318922Y-90754004D01*
X129189341Y-90647659D01*
X129082996Y-90518078D01*
X129074886Y-90502906D01*
X129003976Y-90370242D01*
X128955313Y-90209823D01*
X128938883Y-90043000D01*
X128955313Y-89876177D01*
X128997190Y-89738127D01*
X129003975Y-89715761D01*
X129003976Y-89715758D01*
X129082995Y-89567924D01*
X129082996Y-89567922D01*
X129189341Y-89438341D01*
X129318922Y-89331996D01*
X129334094Y-89323886D01*
X129466758Y-89252976D01*
X129627177Y-89204313D01*
X129752196Y-89192000D01*
X129835804Y-89192000D01*
X129960823Y-89204313D01*
X129960823Y-89204313D01*
G37*
G36*
X132500823Y-89204313D02*
G01*
X132661242Y-89252976D01*
X132793906Y-89323886D01*
X132809078Y-89331996D01*
X132938659Y-89438341D01*
X133045004Y-89567922D01*
X133045005Y-89567924D01*
X133124024Y-89715758D01*
X133124025Y-89715761D01*
X133130810Y-89738127D01*
X133172687Y-89876177D01*
X133189117Y-90043000D01*
X133172687Y-90209823D01*
X133124024Y-90370242D01*
X133053114Y-90502906D01*
X133045004Y-90518078D01*
X132938659Y-90647659D01*
X132809078Y-90754004D01*
X132809076Y-90754005D01*
X132661242Y-90833024D01*
X132500823Y-90881687D01*
X132375804Y-90894000D01*
X132292196Y-90894000D01*
X132167177Y-90881687D01*
X132006758Y-90833024D01*
X131858924Y-90754005D01*
X131858922Y-90754004D01*
X131729341Y-90647659D01*
X131622996Y-90518078D01*
X131614886Y-90502906D01*
X131543976Y-90370242D01*
X131495313Y-90209823D01*
X131478883Y-90043000D01*
X131495313Y-89876177D01*
X131537190Y-89738127D01*
X131543975Y-89715761D01*
X131543976Y-89715758D01*
X131622995Y-89567924D01*
X131622996Y-89567922D01*
X131729341Y-89438341D01*
X131858922Y-89331996D01*
X131874094Y-89323886D01*
X132006758Y-89252976D01*
X132167177Y-89204313D01*
X132292196Y-89192000D01*
X132375804Y-89192000D01*
X132500823Y-89204313D01*
X132500823Y-89204313D01*
G37*
G36*
X135040823Y-89204313D02*
G01*
X135201242Y-89252976D01*
X135333906Y-89323886D01*
X135349078Y-89331996D01*
X135478659Y-89438341D01*
X135585004Y-89567922D01*
X135585005Y-89567924D01*
X135664024Y-89715758D01*
X135664025Y-89715761D01*
X135670810Y-89738127D01*
X135712687Y-89876177D01*
X135729117Y-90043000D01*
X135712687Y-90209823D01*
X135664024Y-90370242D01*
X135593114Y-90502906D01*
X135585004Y-90518078D01*
X135478659Y-90647659D01*
X135349078Y-90754004D01*
X135349076Y-90754005D01*
X135201242Y-90833024D01*
X135040823Y-90881687D01*
X134915804Y-90894000D01*
X134832196Y-90894000D01*
X134707177Y-90881687D01*
X134546758Y-90833024D01*
X134398924Y-90754005D01*
X134398922Y-90754004D01*
X134269341Y-90647659D01*
X134162996Y-90518078D01*
X134154886Y-90502906D01*
X134083976Y-90370242D01*
X134035313Y-90209823D01*
X134018883Y-90043000D01*
X134035313Y-89876177D01*
X134077190Y-89738127D01*
X134083975Y-89715761D01*
X134083976Y-89715758D01*
X134162995Y-89567924D01*
X134162996Y-89567922D01*
X134269341Y-89438341D01*
X134398922Y-89331996D01*
X134414094Y-89323886D01*
X134546758Y-89252976D01*
X134707177Y-89204313D01*
X134832196Y-89192000D01*
X134915804Y-89192000D01*
X135040823Y-89204313D01*
X135040823Y-89204313D01*
G37*
G36*
X138265000Y-90894000D02*
G01*
X136563000Y-90894000D01*
X136563000Y-89192000D01*
X138265000Y-89192000D01*
X138265000Y-90894000D01*
X138265000Y-90894000D01*
G37*
G36*
X109640823Y-89204313D02*
G01*
X109801242Y-89252976D01*
X109933906Y-89323886D01*
X109949078Y-89331996D01*
X110078659Y-89438341D01*
X110185004Y-89567922D01*
X110185005Y-89567924D01*
X110264024Y-89715758D01*
X110264025Y-89715761D01*
X110270810Y-89738127D01*
X110312687Y-89876177D01*
X110329117Y-90043000D01*
X110312687Y-90209823D01*
X110264024Y-90370242D01*
X110193114Y-90502906D01*
X110185004Y-90518078D01*
X110078659Y-90647659D01*
X109949078Y-90754004D01*
X109949076Y-90754005D01*
X109801242Y-90833024D01*
X109640823Y-90881687D01*
X109515804Y-90894000D01*
X109432196Y-90894000D01*
X109307177Y-90881687D01*
X109146758Y-90833024D01*
X108998924Y-90754005D01*
X108998922Y-90754004D01*
X108869341Y-90647659D01*
X108762996Y-90518078D01*
X108754886Y-90502906D01*
X108683976Y-90370242D01*
X108635313Y-90209823D01*
X108618883Y-90043000D01*
X108635313Y-89876177D01*
X108677190Y-89738127D01*
X108683975Y-89715761D01*
X108683976Y-89715758D01*
X108762995Y-89567924D01*
X108762996Y-89567922D01*
X108869341Y-89438341D01*
X108998922Y-89331996D01*
X109014094Y-89323886D01*
X109146758Y-89252976D01*
X109307177Y-89204313D01*
X109432196Y-89192000D01*
X109515804Y-89192000D01*
X109640823Y-89204313D01*
X109640823Y-89204313D01*
G37*
G36*
X153972674Y-85629465D02*
G01*
X154010367Y-85640899D01*
X154045103Y-85659466D01*
X154075548Y-85684452D01*
X154100534Y-85714897D01*
X154119101Y-85749633D01*
X154130535Y-85787326D01*
X154135000Y-85832661D01*
X154135000Y-86669339D01*
X154130535Y-86714674D01*
X154119101Y-86752367D01*
X154100534Y-86787103D01*
X154075548Y-86817548D01*
X154045103Y-86842534D01*
X154010367Y-86861101D01*
X153972674Y-86872535D01*
X153927339Y-86877000D01*
X152840661Y-86877000D01*
X152795326Y-86872535D01*
X152757633Y-86861101D01*
X152722897Y-86842534D01*
X152692452Y-86817548D01*
X152667466Y-86787103D01*
X152648899Y-86752367D01*
X152637465Y-86714674D01*
X152633000Y-86669339D01*
X152633000Y-85832661D01*
X152637465Y-85787326D01*
X152648899Y-85749633D01*
X152667466Y-85714897D01*
X152692452Y-85684452D01*
X152722897Y-85659466D01*
X152757633Y-85640899D01*
X152795326Y-85629465D01*
X152840661Y-85625000D01*
X153927339Y-85625000D01*
X153972674Y-85629465D01*
X153972674Y-85629465D01*
G37*
G36*
X146098674Y-85620465D02*
G01*
X146136367Y-85631899D01*
X146171103Y-85650466D01*
X146201548Y-85675452D01*
X146226534Y-85705897D01*
X146245101Y-85740633D01*
X146256535Y-85778326D01*
X146261000Y-85823661D01*
X146261000Y-86660339D01*
X146256535Y-86705674D01*
X146245101Y-86743367D01*
X146226534Y-86778103D01*
X146201548Y-86808548D01*
X146171103Y-86833534D01*
X146136367Y-86852101D01*
X146098674Y-86863535D01*
X146053339Y-86868000D01*
X144966661Y-86868000D01*
X144921326Y-86863535D01*
X144883633Y-86852101D01*
X144848897Y-86833534D01*
X144818452Y-86808548D01*
X144793466Y-86778103D01*
X144774899Y-86743367D01*
X144763465Y-86705674D01*
X144759000Y-86660339D01*
X144759000Y-85823661D01*
X144763465Y-85778326D01*
X144774899Y-85740633D01*
X144793466Y-85705897D01*
X144818452Y-85675452D01*
X144848897Y-85650466D01*
X144883633Y-85631899D01*
X144921326Y-85620465D01*
X144966661Y-85616000D01*
X146053339Y-85616000D01*
X146098674Y-85620465D01*
X146098674Y-85620465D01*
G37*
G36*
X148765674Y-85620465D02*
G01*
X148803367Y-85631899D01*
X148838103Y-85650466D01*
X148868548Y-85675452D01*
X148893534Y-85705897D01*
X148912101Y-85740633D01*
X148923535Y-85778326D01*
X148928000Y-85823661D01*
X148928000Y-86660339D01*
X148923535Y-86705674D01*
X148912101Y-86743367D01*
X148893534Y-86778103D01*
X148868548Y-86808548D01*
X148838103Y-86833534D01*
X148803367Y-86852101D01*
X148765674Y-86863535D01*
X148720339Y-86868000D01*
X147633661Y-86868000D01*
X147588326Y-86863535D01*
X147550633Y-86852101D01*
X147515897Y-86833534D01*
X147485452Y-86808548D01*
X147460466Y-86778103D01*
X147441899Y-86743367D01*
X147430465Y-86705674D01*
X147426000Y-86660339D01*
X147426000Y-85823661D01*
X147430465Y-85778326D01*
X147441899Y-85740633D01*
X147460466Y-85705897D01*
X147485452Y-85675452D01*
X147515897Y-85650466D01*
X147550633Y-85631899D01*
X147588326Y-85620465D01*
X147633661Y-85616000D01*
X148720339Y-85616000D01*
X148765674Y-85620465D01*
X148765674Y-85620465D01*
G37*
G36*
X151432674Y-85620465D02*
G01*
X151470367Y-85631899D01*
X151505103Y-85650466D01*
X151535548Y-85675452D01*
X151560534Y-85705897D01*
X151579101Y-85740633D01*
X151590535Y-85778326D01*
X151595000Y-85823661D01*
X151595000Y-86660339D01*
X151590535Y-86705674D01*
X151579101Y-86743367D01*
X151560534Y-86778103D01*
X151535548Y-86808548D01*
X151505103Y-86833534D01*
X151470367Y-86852101D01*
X151432674Y-86863535D01*
X151387339Y-86868000D01*
X150300661Y-86868000D01*
X150255326Y-86863535D01*
X150217633Y-86852101D01*
X150182897Y-86833534D01*
X150152452Y-86808548D01*
X150127466Y-86778103D01*
X150108899Y-86743367D01*
X150097465Y-86705674D01*
X150093000Y-86660339D01*
X150093000Y-85823661D01*
X150097465Y-85778326D01*
X150108899Y-85740633D01*
X150127466Y-85705897D01*
X150152452Y-85675452D01*
X150182897Y-85650466D01*
X150217633Y-85631899D01*
X150255326Y-85620465D01*
X150300661Y-85616000D01*
X151387339Y-85616000D01*
X151432674Y-85620465D01*
X151432674Y-85620465D01*
G37*
G36*
X122492674Y-85121465D02*
G01*
X122530367Y-85132899D01*
X122565103Y-85151466D01*
X122595548Y-85176452D01*
X122620534Y-85206897D01*
X122639101Y-85241633D01*
X122650535Y-85279326D01*
X122655000Y-85324661D01*
X122655000Y-86161339D01*
X122650535Y-86206674D01*
X122639101Y-86244367D01*
X122620534Y-86279103D01*
X122595548Y-86309548D01*
X122565103Y-86334534D01*
X122530367Y-86353101D01*
X122492674Y-86364535D01*
X122447339Y-86369000D01*
X121360661Y-86369000D01*
X121315326Y-86364535D01*
X121277633Y-86353101D01*
X121242897Y-86334534D01*
X121212452Y-86309548D01*
X121187466Y-86279103D01*
X121168899Y-86244367D01*
X121157465Y-86206674D01*
X121153000Y-86161339D01*
X121153000Y-85324661D01*
X121157465Y-85279326D01*
X121168899Y-85241633D01*
X121187466Y-85206897D01*
X121212452Y-85176452D01*
X121242897Y-85151466D01*
X121277633Y-85132899D01*
X121315326Y-85121465D01*
X121360661Y-85117000D01*
X122447339Y-85117000D01*
X122492674Y-85121465D01*
X122492674Y-85121465D01*
G37*
G36*
X125159674Y-85121465D02*
G01*
X125197367Y-85132899D01*
X125232103Y-85151466D01*
X125262548Y-85176452D01*
X125287534Y-85206897D01*
X125306101Y-85241633D01*
X125317535Y-85279326D01*
X125322000Y-85324661D01*
X125322000Y-86161339D01*
X125317535Y-86206674D01*
X125306101Y-86244367D01*
X125287534Y-86279103D01*
X125262548Y-86309548D01*
X125232103Y-86334534D01*
X125197367Y-86353101D01*
X125159674Y-86364535D01*
X125114339Y-86369000D01*
X124027661Y-86369000D01*
X123982326Y-86364535D01*
X123944633Y-86353101D01*
X123909897Y-86334534D01*
X123879452Y-86309548D01*
X123854466Y-86279103D01*
X123835899Y-86244367D01*
X123824465Y-86206674D01*
X123820000Y-86161339D01*
X123820000Y-85324661D01*
X123824465Y-85279326D01*
X123835899Y-85241633D01*
X123854466Y-85206897D01*
X123879452Y-85176452D01*
X123909897Y-85151466D01*
X123944633Y-85132899D01*
X123982326Y-85121465D01*
X124027661Y-85117000D01*
X125114339Y-85117000D01*
X125159674Y-85121465D01*
X125159674Y-85121465D01*
G37*
G36*
X119952674Y-85121465D02*
G01*
X119990367Y-85132899D01*
X120025103Y-85151466D01*
X120055548Y-85176452D01*
X120080534Y-85206897D01*
X120099101Y-85241633D01*
X120110535Y-85279326D01*
X120115000Y-85324661D01*
X120115000Y-86161339D01*
X120110535Y-86206674D01*
X120099101Y-86244367D01*
X120080534Y-86279103D01*
X120055548Y-86309548D01*
X120025103Y-86334534D01*
X119990367Y-86353101D01*
X119952674Y-86364535D01*
X119907339Y-86369000D01*
X118820661Y-86369000D01*
X118775326Y-86364535D01*
X118737633Y-86353101D01*
X118702897Y-86334534D01*
X118672452Y-86309548D01*
X118647466Y-86279103D01*
X118628899Y-86244367D01*
X118617465Y-86206674D01*
X118613000Y-86161339D01*
X118613000Y-85324661D01*
X118617465Y-85279326D01*
X118628899Y-85241633D01*
X118647466Y-85206897D01*
X118672452Y-85176452D01*
X118702897Y-85151466D01*
X118737633Y-85132899D01*
X118775326Y-85121465D01*
X118820661Y-85117000D01*
X119907339Y-85117000D01*
X119952674Y-85121465D01*
X119952674Y-85121465D01*
G37*
G36*
X117412674Y-85112465D02*
G01*
X117450367Y-85123899D01*
X117485103Y-85142466D01*
X117515548Y-85167452D01*
X117540534Y-85197897D01*
X117559101Y-85232633D01*
X117570535Y-85270326D01*
X117575000Y-85315661D01*
X117575000Y-86152339D01*
X117570535Y-86197674D01*
X117559101Y-86235367D01*
X117540534Y-86270103D01*
X117515548Y-86300548D01*
X117485103Y-86325534D01*
X117450367Y-86344101D01*
X117412674Y-86355535D01*
X117367339Y-86360000D01*
X116280661Y-86360000D01*
X116235326Y-86355535D01*
X116197633Y-86344101D01*
X116162897Y-86325534D01*
X116132452Y-86300548D01*
X116107466Y-86270103D01*
X116088899Y-86235367D01*
X116077465Y-86197674D01*
X116073000Y-86152339D01*
X116073000Y-85315661D01*
X116077465Y-85270326D01*
X116088899Y-85232633D01*
X116107466Y-85197897D01*
X116132452Y-85167452D01*
X116162897Y-85142466D01*
X116197633Y-85123899D01*
X116235326Y-85112465D01*
X116280661Y-85108000D01*
X117367339Y-85108000D01*
X117412674Y-85112465D01*
X117412674Y-85112465D01*
G37*
G36*
X138254928Y-85122764D02*
G01*
X138276009Y-85129160D01*
X138295445Y-85139548D01*
X138312476Y-85153524D01*
X138326452Y-85170555D01*
X138336840Y-85189991D01*
X138343236Y-85211072D01*
X138346000Y-85239140D01*
X138346000Y-85702860D01*
X138343236Y-85730928D01*
X138336840Y-85752009D01*
X138326452Y-85771445D01*
X138312476Y-85788476D01*
X138295445Y-85802452D01*
X138276009Y-85812840D01*
X138254928Y-85819236D01*
X138226860Y-85822000D01*
X136413140Y-85822000D01*
X136385072Y-85819236D01*
X136363991Y-85812840D01*
X136344555Y-85802452D01*
X136327524Y-85788476D01*
X136313548Y-85771445D01*
X136303160Y-85752009D01*
X136296764Y-85730928D01*
X136294000Y-85702860D01*
X136294000Y-85239140D01*
X136296764Y-85211072D01*
X136303160Y-85189991D01*
X136313548Y-85170555D01*
X136327524Y-85153524D01*
X136344555Y-85139548D01*
X136363991Y-85129160D01*
X136385072Y-85122764D01*
X136413140Y-85120000D01*
X138226860Y-85120000D01*
X138254928Y-85122764D01*
X138254928Y-85122764D01*
G37*
G36*
X143204928Y-85122764D02*
G01*
X143226009Y-85129160D01*
X143245445Y-85139548D01*
X143262476Y-85153524D01*
X143276452Y-85170555D01*
X143286840Y-85189991D01*
X143293236Y-85211072D01*
X143296000Y-85239140D01*
X143296000Y-85702860D01*
X143293236Y-85730928D01*
X143286840Y-85752009D01*
X143276452Y-85771445D01*
X143262476Y-85788476D01*
X143245445Y-85802452D01*
X143226009Y-85812840D01*
X143204928Y-85819236D01*
X143176860Y-85822000D01*
X141363140Y-85822000D01*
X141335072Y-85819236D01*
X141313991Y-85812840D01*
X141294555Y-85802452D01*
X141277524Y-85788476D01*
X141263548Y-85771445D01*
X141253160Y-85752009D01*
X141246764Y-85730928D01*
X141244000Y-85702860D01*
X141244000Y-85239140D01*
X141246764Y-85211072D01*
X141253160Y-85189991D01*
X141263548Y-85170555D01*
X141277524Y-85153524D01*
X141294555Y-85139548D01*
X141313991Y-85129160D01*
X141335072Y-85122764D01*
X141363140Y-85120000D01*
X143176860Y-85120000D01*
X143204928Y-85122764D01*
X143204928Y-85122764D01*
G37*
G36*
X114264928Y-84614764D02*
G01*
X114286009Y-84621160D01*
X114305445Y-84631548D01*
X114322476Y-84645524D01*
X114336452Y-84662555D01*
X114346840Y-84681991D01*
X114353236Y-84703072D01*
X114356000Y-84731140D01*
X114356000Y-85194860D01*
X114353236Y-85222928D01*
X114346840Y-85244009D01*
X114336452Y-85263445D01*
X114322476Y-85280476D01*
X114305445Y-85294452D01*
X114286009Y-85304840D01*
X114264928Y-85311236D01*
X114236860Y-85314000D01*
X112423140Y-85314000D01*
X112395072Y-85311236D01*
X112373991Y-85304840D01*
X112354555Y-85294452D01*
X112337524Y-85280476D01*
X112323548Y-85263445D01*
X112313160Y-85244009D01*
X112306764Y-85222928D01*
X112304000Y-85194860D01*
X112304000Y-84731140D01*
X112306764Y-84703072D01*
X112313160Y-84681991D01*
X112323548Y-84662555D01*
X112337524Y-84645524D01*
X112354555Y-84631548D01*
X112373991Y-84621160D01*
X112395072Y-84614764D01*
X112423140Y-84612000D01*
X114236860Y-84612000D01*
X114264928Y-84614764D01*
X114264928Y-84614764D01*
G37*
G36*
X109314928Y-84614764D02*
G01*
X109336009Y-84621160D01*
X109355445Y-84631548D01*
X109372476Y-84645524D01*
X109386452Y-84662555D01*
X109396840Y-84681991D01*
X109403236Y-84703072D01*
X109406000Y-84731140D01*
X109406000Y-85194860D01*
X109403236Y-85222928D01*
X109396840Y-85244009D01*
X109386452Y-85263445D01*
X109372476Y-85280476D01*
X109355445Y-85294452D01*
X109336009Y-85304840D01*
X109314928Y-85311236D01*
X109286860Y-85314000D01*
X107473140Y-85314000D01*
X107445072Y-85311236D01*
X107423991Y-85304840D01*
X107404555Y-85294452D01*
X107387524Y-85280476D01*
X107373548Y-85263445D01*
X107363160Y-85244009D01*
X107356764Y-85222928D01*
X107354000Y-85194860D01*
X107354000Y-84731140D01*
X107356764Y-84703072D01*
X107363160Y-84681991D01*
X107373548Y-84662555D01*
X107387524Y-84645524D01*
X107404555Y-84631548D01*
X107423991Y-84621160D01*
X107445072Y-84614764D01*
X107473140Y-84612000D01*
X109286860Y-84612000D01*
X109314928Y-84614764D01*
X109314928Y-84614764D01*
G37*
G36*
X153972674Y-83579465D02*
G01*
X154010367Y-83590899D01*
X154045103Y-83609466D01*
X154075548Y-83634452D01*
X154100534Y-83664897D01*
X154119101Y-83699633D01*
X154130535Y-83737326D01*
X154135000Y-83782661D01*
X154135000Y-84619339D01*
X154130535Y-84664674D01*
X154119101Y-84702367D01*
X154100534Y-84737103D01*
X154075548Y-84767548D01*
X154045103Y-84792534D01*
X154010367Y-84811101D01*
X153972674Y-84822535D01*
X153927339Y-84827000D01*
X152840661Y-84827000D01*
X152795326Y-84822535D01*
X152757633Y-84811101D01*
X152722897Y-84792534D01*
X152692452Y-84767548D01*
X152667466Y-84737103D01*
X152648899Y-84702367D01*
X152637465Y-84664674D01*
X152633000Y-84619339D01*
X152633000Y-83782661D01*
X152637465Y-83737326D01*
X152648899Y-83699633D01*
X152667466Y-83664897D01*
X152692452Y-83634452D01*
X152722897Y-83609466D01*
X152757633Y-83590899D01*
X152795326Y-83579465D01*
X152840661Y-83575000D01*
X153927339Y-83575000D01*
X153972674Y-83579465D01*
X153972674Y-83579465D01*
G37*
G36*
X148765674Y-83570465D02*
G01*
X148803367Y-83581899D01*
X148838103Y-83600466D01*
X148868548Y-83625452D01*
X148893534Y-83655897D01*
X148912101Y-83690633D01*
X148923535Y-83728326D01*
X148928000Y-83773661D01*
X148928000Y-84610339D01*
X148923535Y-84655674D01*
X148912101Y-84693367D01*
X148893534Y-84728103D01*
X148868548Y-84758548D01*
X148838103Y-84783534D01*
X148803367Y-84802101D01*
X148765674Y-84813535D01*
X148720339Y-84818000D01*
X147633661Y-84818000D01*
X147588326Y-84813535D01*
X147550633Y-84802101D01*
X147515897Y-84783534D01*
X147485452Y-84758548D01*
X147460466Y-84728103D01*
X147441899Y-84693367D01*
X147430465Y-84655674D01*
X147426000Y-84610339D01*
X147426000Y-83773661D01*
X147430465Y-83728326D01*
X147441899Y-83690633D01*
X147460466Y-83655897D01*
X147485452Y-83625452D01*
X147515897Y-83600466D01*
X147550633Y-83581899D01*
X147588326Y-83570465D01*
X147633661Y-83566000D01*
X148720339Y-83566000D01*
X148765674Y-83570465D01*
X148765674Y-83570465D01*
G37*
G36*
X151432674Y-83570465D02*
G01*
X151470367Y-83581899D01*
X151505103Y-83600466D01*
X151535548Y-83625452D01*
X151560534Y-83655897D01*
X151579101Y-83690633D01*
X151590535Y-83728326D01*
X151595000Y-83773661D01*
X151595000Y-84610339D01*
X151590535Y-84655674D01*
X151579101Y-84693367D01*
X151560534Y-84728103D01*
X151535548Y-84758548D01*
X151505103Y-84783534D01*
X151470367Y-84802101D01*
X151432674Y-84813535D01*
X151387339Y-84818000D01*
X150300661Y-84818000D01*
X150255326Y-84813535D01*
X150217633Y-84802101D01*
X150182897Y-84783534D01*
X150152452Y-84758548D01*
X150127466Y-84728103D01*
X150108899Y-84693367D01*
X150097465Y-84655674D01*
X150093000Y-84610339D01*
X150093000Y-83773661D01*
X150097465Y-83728326D01*
X150108899Y-83690633D01*
X150127466Y-83655897D01*
X150152452Y-83625452D01*
X150182897Y-83600466D01*
X150217633Y-83581899D01*
X150255326Y-83570465D01*
X150300661Y-83566000D01*
X151387339Y-83566000D01*
X151432674Y-83570465D01*
X151432674Y-83570465D01*
G37*
G36*
X146098674Y-83570465D02*
G01*
X146136367Y-83581899D01*
X146171103Y-83600466D01*
X146201548Y-83625452D01*
X146226534Y-83655897D01*
X146245101Y-83690633D01*
X146256535Y-83728326D01*
X146261000Y-83773661D01*
X146261000Y-84610339D01*
X146256535Y-84655674D01*
X146245101Y-84693367D01*
X146226534Y-84728103D01*
X146201548Y-84758548D01*
X146171103Y-84783534D01*
X146136367Y-84802101D01*
X146098674Y-84813535D01*
X146053339Y-84818000D01*
X144966661Y-84818000D01*
X144921326Y-84813535D01*
X144883633Y-84802101D01*
X144848897Y-84783534D01*
X144818452Y-84758548D01*
X144793466Y-84728103D01*
X144774899Y-84693367D01*
X144763465Y-84655674D01*
X144759000Y-84610339D01*
X144759000Y-83773661D01*
X144763465Y-83728326D01*
X144774899Y-83690633D01*
X144793466Y-83655897D01*
X144818452Y-83625452D01*
X144848897Y-83600466D01*
X144883633Y-83581899D01*
X144921326Y-83570465D01*
X144966661Y-83566000D01*
X146053339Y-83566000D01*
X146098674Y-83570465D01*
X146098674Y-83570465D01*
G37*
G36*
X143204928Y-83852764D02*
G01*
X143226009Y-83859160D01*
X143245445Y-83869548D01*
X143262476Y-83883524D01*
X143276452Y-83900555D01*
X143286840Y-83919991D01*
X143293236Y-83941072D01*
X143296000Y-83969140D01*
X143296000Y-84432860D01*
X143293236Y-84460928D01*
X143286840Y-84482009D01*
X143276452Y-84501445D01*
X143262476Y-84518476D01*
X143245445Y-84532452D01*
X143226009Y-84542840D01*
X143204928Y-84549236D01*
X143176860Y-84552000D01*
X141363140Y-84552000D01*
X141335072Y-84549236D01*
X141313991Y-84542840D01*
X141294555Y-84532452D01*
X141277524Y-84518476D01*
X141263548Y-84501445D01*
X141253160Y-84482009D01*
X141246764Y-84460928D01*
X141244000Y-84432860D01*
X141244000Y-83969140D01*
X141246764Y-83941072D01*
X141253160Y-83919991D01*
X141263548Y-83900555D01*
X141277524Y-83883524D01*
X141294555Y-83869548D01*
X141313991Y-83859160D01*
X141335072Y-83852764D01*
X141363140Y-83850000D01*
X143176860Y-83850000D01*
X143204928Y-83852764D01*
X143204928Y-83852764D01*
G37*
G36*
X138254928Y-83852764D02*
G01*
X138276009Y-83859160D01*
X138295445Y-83869548D01*
X138312476Y-83883524D01*
X138326452Y-83900555D01*
X138336840Y-83919991D01*
X138343236Y-83941072D01*
X138346000Y-83969140D01*
X138346000Y-84432860D01*
X138343236Y-84460928D01*
X138336840Y-84482009D01*
X138326452Y-84501445D01*
X138312476Y-84518476D01*
X138295445Y-84532452D01*
X138276009Y-84542840D01*
X138254928Y-84549236D01*
X138226860Y-84552000D01*
X136413140Y-84552000D01*
X136385072Y-84549236D01*
X136363991Y-84542840D01*
X136344555Y-84532452D01*
X136327524Y-84518476D01*
X136313548Y-84501445D01*
X136303160Y-84482009D01*
X136296764Y-84460928D01*
X136294000Y-84432860D01*
X136294000Y-83969140D01*
X136296764Y-83941072D01*
X136303160Y-83919991D01*
X136313548Y-83900555D01*
X136327524Y-83883524D01*
X136344555Y-83869548D01*
X136363991Y-83859160D01*
X136385072Y-83852764D01*
X136413140Y-83850000D01*
X138226860Y-83850000D01*
X138254928Y-83852764D01*
X138254928Y-83852764D01*
G37*
G36*
X134668674Y-83207465D02*
G01*
X134706367Y-83218899D01*
X134741103Y-83237466D01*
X134771548Y-83262452D01*
X134796534Y-83292897D01*
X134815101Y-83327633D01*
X134826535Y-83365326D01*
X134831000Y-83410661D01*
X134831000Y-84247339D01*
X134826535Y-84292674D01*
X134815101Y-84330367D01*
X134796534Y-84365103D01*
X134771548Y-84395548D01*
X134741103Y-84420534D01*
X134706367Y-84439101D01*
X134668674Y-84450535D01*
X134623339Y-84455000D01*
X133536661Y-84455000D01*
X133491326Y-84450535D01*
X133453633Y-84439101D01*
X133418897Y-84420534D01*
X133388452Y-84395548D01*
X133363466Y-84365103D01*
X133344899Y-84330367D01*
X133333465Y-84292674D01*
X133329000Y-84247339D01*
X133329000Y-83410661D01*
X133333465Y-83365326D01*
X133344899Y-83327633D01*
X133363466Y-83292897D01*
X133388452Y-83262452D01*
X133418897Y-83237466D01*
X133453633Y-83218899D01*
X133491326Y-83207465D01*
X133536661Y-83203000D01*
X134623339Y-83203000D01*
X134668674Y-83207465D01*
X134668674Y-83207465D01*
G37*
G36*
X132001674Y-83207465D02*
G01*
X132039367Y-83218899D01*
X132074103Y-83237466D01*
X132104548Y-83262452D01*
X132129534Y-83292897D01*
X132148101Y-83327633D01*
X132159535Y-83365326D01*
X132164000Y-83410661D01*
X132164000Y-84247339D01*
X132159535Y-84292674D01*
X132148101Y-84330367D01*
X132129534Y-84365103D01*
X132104548Y-84395548D01*
X132074103Y-84420534D01*
X132039367Y-84439101D01*
X132001674Y-84450535D01*
X131956339Y-84455000D01*
X130869661Y-84455000D01*
X130824326Y-84450535D01*
X130786633Y-84439101D01*
X130751897Y-84420534D01*
X130721452Y-84395548D01*
X130696466Y-84365103D01*
X130677899Y-84330367D01*
X130666465Y-84292674D01*
X130662000Y-84247339D01*
X130662000Y-83410661D01*
X130666465Y-83365326D01*
X130677899Y-83327633D01*
X130696466Y-83292897D01*
X130721452Y-83262452D01*
X130751897Y-83237466D01*
X130786633Y-83218899D01*
X130824326Y-83207465D01*
X130869661Y-83203000D01*
X131956339Y-83203000D01*
X132001674Y-83207465D01*
X132001674Y-83207465D01*
G37*
G36*
X125159674Y-83071465D02*
G01*
X125197367Y-83082899D01*
X125232103Y-83101466D01*
X125262548Y-83126452D01*
X125287534Y-83156897D01*
X125306101Y-83191633D01*
X125317535Y-83229326D01*
X125322000Y-83274661D01*
X125322000Y-84111339D01*
X125317535Y-84156674D01*
X125306101Y-84194367D01*
X125287534Y-84229103D01*
X125262548Y-84259548D01*
X125232103Y-84284534D01*
X125197367Y-84303101D01*
X125159674Y-84314535D01*
X125114339Y-84319000D01*
X124027661Y-84319000D01*
X123982326Y-84314535D01*
X123944633Y-84303101D01*
X123909897Y-84284534D01*
X123879452Y-84259548D01*
X123854466Y-84229103D01*
X123835899Y-84194367D01*
X123824465Y-84156674D01*
X123820000Y-84111339D01*
X123820000Y-83274661D01*
X123824465Y-83229326D01*
X123835899Y-83191633D01*
X123854466Y-83156897D01*
X123879452Y-83126452D01*
X123909897Y-83101466D01*
X123944633Y-83082899D01*
X123982326Y-83071465D01*
X124027661Y-83067000D01*
X125114339Y-83067000D01*
X125159674Y-83071465D01*
X125159674Y-83071465D01*
G37*
G36*
X122492674Y-83071465D02*
G01*
X122530367Y-83082899D01*
X122565103Y-83101466D01*
X122595548Y-83126452D01*
X122620534Y-83156897D01*
X122639101Y-83191633D01*
X122650535Y-83229326D01*
X122655000Y-83274661D01*
X122655000Y-84111339D01*
X122650535Y-84156674D01*
X122639101Y-84194367D01*
X122620534Y-84229103D01*
X122595548Y-84259548D01*
X122565103Y-84284534D01*
X122530367Y-84303101D01*
X122492674Y-84314535D01*
X122447339Y-84319000D01*
X121360661Y-84319000D01*
X121315326Y-84314535D01*
X121277633Y-84303101D01*
X121242897Y-84284534D01*
X121212452Y-84259548D01*
X121187466Y-84229103D01*
X121168899Y-84194367D01*
X121157465Y-84156674D01*
X121153000Y-84111339D01*
X121153000Y-83274661D01*
X121157465Y-83229326D01*
X121168899Y-83191633D01*
X121187466Y-83156897D01*
X121212452Y-83126452D01*
X121242897Y-83101466D01*
X121277633Y-83082899D01*
X121315326Y-83071465D01*
X121360661Y-83067000D01*
X122447339Y-83067000D01*
X122492674Y-83071465D01*
X122492674Y-83071465D01*
G37*
G36*
X119952674Y-83071465D02*
G01*
X119990367Y-83082899D01*
X120025103Y-83101466D01*
X120055548Y-83126452D01*
X120080534Y-83156897D01*
X120099101Y-83191633D01*
X120110535Y-83229326D01*
X120115000Y-83274661D01*
X120115000Y-84111339D01*
X120110535Y-84156674D01*
X120099101Y-84194367D01*
X120080534Y-84229103D01*
X120055548Y-84259548D01*
X120025103Y-84284534D01*
X119990367Y-84303101D01*
X119952674Y-84314535D01*
X119907339Y-84319000D01*
X118820661Y-84319000D01*
X118775326Y-84314535D01*
X118737633Y-84303101D01*
X118702897Y-84284534D01*
X118672452Y-84259548D01*
X118647466Y-84229103D01*
X118628899Y-84194367D01*
X118617465Y-84156674D01*
X118613000Y-84111339D01*
X118613000Y-83274661D01*
X118617465Y-83229326D01*
X118628899Y-83191633D01*
X118647466Y-83156897D01*
X118672452Y-83126452D01*
X118702897Y-83101466D01*
X118737633Y-83082899D01*
X118775326Y-83071465D01*
X118820661Y-83067000D01*
X119907339Y-83067000D01*
X119952674Y-83071465D01*
X119952674Y-83071465D01*
G37*
G36*
X117412674Y-83062465D02*
G01*
X117450367Y-83073899D01*
X117485103Y-83092466D01*
X117515548Y-83117452D01*
X117540534Y-83147897D01*
X117559101Y-83182633D01*
X117570535Y-83220326D01*
X117575000Y-83265661D01*
X117575000Y-84102339D01*
X117570535Y-84147674D01*
X117559101Y-84185367D01*
X117540534Y-84220103D01*
X117515548Y-84250548D01*
X117485103Y-84275534D01*
X117450367Y-84294101D01*
X117412674Y-84305535D01*
X117367339Y-84310000D01*
X116280661Y-84310000D01*
X116235326Y-84305535D01*
X116197633Y-84294101D01*
X116162897Y-84275534D01*
X116132452Y-84250548D01*
X116107466Y-84220103D01*
X116088899Y-84185367D01*
X116077465Y-84147674D01*
X116073000Y-84102339D01*
X116073000Y-83265661D01*
X116077465Y-83220326D01*
X116088899Y-83182633D01*
X116107466Y-83147897D01*
X116132452Y-83117452D01*
X116162897Y-83092466D01*
X116197633Y-83073899D01*
X116235326Y-83062465D01*
X116280661Y-83058000D01*
X117367339Y-83058000D01*
X117412674Y-83062465D01*
X117412674Y-83062465D01*
G37*
G36*
X105728674Y-82953465D02*
G01*
X105766367Y-82964899D01*
X105801103Y-82983466D01*
X105831548Y-83008452D01*
X105856534Y-83038897D01*
X105875101Y-83073633D01*
X105886535Y-83111326D01*
X105891000Y-83156661D01*
X105891000Y-83993339D01*
X105886535Y-84038674D01*
X105875101Y-84076367D01*
X105856534Y-84111103D01*
X105831548Y-84141548D01*
X105801103Y-84166534D01*
X105766367Y-84185101D01*
X105728674Y-84196535D01*
X105683339Y-84201000D01*
X104596661Y-84201000D01*
X104551326Y-84196535D01*
X104513633Y-84185101D01*
X104478897Y-84166534D01*
X104448452Y-84141548D01*
X104423466Y-84111103D01*
X104404899Y-84076367D01*
X104393465Y-84038674D01*
X104389000Y-83993339D01*
X104389000Y-83156661D01*
X104393465Y-83111326D01*
X104404899Y-83073633D01*
X104423466Y-83038897D01*
X104448452Y-83008452D01*
X104478897Y-82983466D01*
X104513633Y-82964899D01*
X104551326Y-82953465D01*
X104596661Y-82949000D01*
X105683339Y-82949000D01*
X105728674Y-82953465D01*
X105728674Y-82953465D01*
G37*
G36*
X102807674Y-82953465D02*
G01*
X102845367Y-82964899D01*
X102880103Y-82983466D01*
X102910548Y-83008452D01*
X102935534Y-83038897D01*
X102954101Y-83073633D01*
X102965535Y-83111326D01*
X102970000Y-83156661D01*
X102970000Y-83993339D01*
X102965535Y-84038674D01*
X102954101Y-84076367D01*
X102935534Y-84111103D01*
X102910548Y-84141548D01*
X102880103Y-84166534D01*
X102845367Y-84185101D01*
X102807674Y-84196535D01*
X102762339Y-84201000D01*
X101675661Y-84201000D01*
X101630326Y-84196535D01*
X101592633Y-84185101D01*
X101557897Y-84166534D01*
X101527452Y-84141548D01*
X101502466Y-84111103D01*
X101483899Y-84076367D01*
X101472465Y-84038674D01*
X101468000Y-83993339D01*
X101468000Y-83156661D01*
X101472465Y-83111326D01*
X101483899Y-83073633D01*
X101502466Y-83038897D01*
X101527452Y-83008452D01*
X101557897Y-82983466D01*
X101592633Y-82964899D01*
X101630326Y-82953465D01*
X101675661Y-82949000D01*
X102762339Y-82949000D01*
X102807674Y-82953465D01*
X102807674Y-82953465D01*
G37*
G36*
X109314928Y-83344764D02*
G01*
X109336009Y-83351160D01*
X109355445Y-83361548D01*
X109372476Y-83375524D01*
X109386452Y-83392555D01*
X109396840Y-83411991D01*
X109403236Y-83433072D01*
X109406000Y-83461140D01*
X109406000Y-83924860D01*
X109403236Y-83952928D01*
X109396840Y-83974009D01*
X109386452Y-83993445D01*
X109372476Y-84010476D01*
X109355445Y-84024452D01*
X109336009Y-84034840D01*
X109314928Y-84041236D01*
X109286860Y-84044000D01*
X107473140Y-84044000D01*
X107445072Y-84041236D01*
X107423991Y-84034840D01*
X107404555Y-84024452D01*
X107387524Y-84010476D01*
X107373548Y-83993445D01*
X107363160Y-83974009D01*
X107356764Y-83952928D01*
X107354000Y-83924860D01*
X107354000Y-83461140D01*
X107356764Y-83433072D01*
X107363160Y-83411991D01*
X107373548Y-83392555D01*
X107387524Y-83375524D01*
X107404555Y-83361548D01*
X107423991Y-83351160D01*
X107445072Y-83344764D01*
X107473140Y-83342000D01*
X109286860Y-83342000D01*
X109314928Y-83344764D01*
X109314928Y-83344764D01*
G37*
G36*
X114264928Y-83344764D02*
G01*
X114286009Y-83351160D01*
X114305445Y-83361548D01*
X114322476Y-83375524D01*
X114336452Y-83392555D01*
X114346840Y-83411991D01*
X114353236Y-83433072D01*
X114356000Y-83461140D01*
X114356000Y-83924860D01*
X114353236Y-83952928D01*
X114346840Y-83974009D01*
X114336452Y-83993445D01*
X114322476Y-84010476D01*
X114305445Y-84024452D01*
X114286009Y-84034840D01*
X114264928Y-84041236D01*
X114236860Y-84044000D01*
X112423140Y-84044000D01*
X112395072Y-84041236D01*
X112373991Y-84034840D01*
X112354555Y-84024452D01*
X112337524Y-84010476D01*
X112323548Y-83993445D01*
X112313160Y-83974009D01*
X112306764Y-83952928D01*
X112304000Y-83924860D01*
X112304000Y-83461140D01*
X112306764Y-83433072D01*
X112313160Y-83411991D01*
X112323548Y-83392555D01*
X112337524Y-83375524D01*
X112354555Y-83361548D01*
X112373991Y-83351160D01*
X112395072Y-83344764D01*
X112423140Y-83342000D01*
X114236860Y-83342000D01*
X114264928Y-83344764D01*
X114264928Y-83344764D01*
G37*
G36*
X138254928Y-82582764D02*
G01*
X138276009Y-82589160D01*
X138295445Y-82599548D01*
X138312476Y-82613524D01*
X138326452Y-82630555D01*
X138336840Y-82649991D01*
X138343236Y-82671072D01*
X138346000Y-82699140D01*
X138346000Y-83162860D01*
X138343236Y-83190928D01*
X138336840Y-83212009D01*
X138326452Y-83231445D01*
X138312476Y-83248476D01*
X138295445Y-83262452D01*
X138276009Y-83272840D01*
X138254928Y-83279236D01*
X138226860Y-83282000D01*
X136413140Y-83282000D01*
X136385072Y-83279236D01*
X136363991Y-83272840D01*
X136344555Y-83262452D01*
X136327524Y-83248476D01*
X136313548Y-83231445D01*
X136303160Y-83212009D01*
X136296764Y-83190928D01*
X136294000Y-83162860D01*
X136294000Y-82699140D01*
X136296764Y-82671072D01*
X136303160Y-82649991D01*
X136313548Y-82630555D01*
X136327524Y-82613524D01*
X136344555Y-82599548D01*
X136363991Y-82589160D01*
X136385072Y-82582764D01*
X136413140Y-82580000D01*
X138226860Y-82580000D01*
X138254928Y-82582764D01*
X138254928Y-82582764D01*
G37*
G36*
X143204928Y-82582764D02*
G01*
X143226009Y-82589160D01*
X143245445Y-82599548D01*
X143262476Y-82613524D01*
X143276452Y-82630555D01*
X143286840Y-82649991D01*
X143293236Y-82671072D01*
X143296000Y-82699140D01*
X143296000Y-83162860D01*
X143293236Y-83190928D01*
X143286840Y-83212009D01*
X143276452Y-83231445D01*
X143262476Y-83248476D01*
X143245445Y-83262452D01*
X143226009Y-83272840D01*
X143204928Y-83279236D01*
X143176860Y-83282000D01*
X141363140Y-83282000D01*
X141335072Y-83279236D01*
X141313991Y-83272840D01*
X141294555Y-83262452D01*
X141277524Y-83248476D01*
X141263548Y-83231445D01*
X141253160Y-83212009D01*
X141246764Y-83190928D01*
X141244000Y-83162860D01*
X141244000Y-82699140D01*
X141246764Y-82671072D01*
X141253160Y-82649991D01*
X141263548Y-82630555D01*
X141277524Y-82613524D01*
X141294555Y-82599548D01*
X141313991Y-82589160D01*
X141335072Y-82582764D01*
X141363140Y-82580000D01*
X143176860Y-82580000D01*
X143204928Y-82582764D01*
X143204928Y-82582764D01*
G37*
G36*
X114264928Y-82074764D02*
G01*
X114286009Y-82081160D01*
X114305445Y-82091548D01*
X114322476Y-82105524D01*
X114336452Y-82122555D01*
X114346840Y-82141991D01*
X114353236Y-82163072D01*
X114356000Y-82191140D01*
X114356000Y-82654860D01*
X114353236Y-82682928D01*
X114346840Y-82704009D01*
X114336452Y-82723445D01*
X114322476Y-82740476D01*
X114305445Y-82754452D01*
X114286009Y-82764840D01*
X114264928Y-82771236D01*
X114236860Y-82774000D01*
X112423140Y-82774000D01*
X112395072Y-82771236D01*
X112373991Y-82764840D01*
X112354555Y-82754452D01*
X112337524Y-82740476D01*
X112323548Y-82723445D01*
X112313160Y-82704009D01*
X112306764Y-82682928D01*
X112304000Y-82654860D01*
X112304000Y-82191140D01*
X112306764Y-82163072D01*
X112313160Y-82141991D01*
X112323548Y-82122555D01*
X112337524Y-82105524D01*
X112354555Y-82091548D01*
X112373991Y-82081160D01*
X112395072Y-82074764D01*
X112423140Y-82072000D01*
X114236860Y-82072000D01*
X114264928Y-82074764D01*
X114264928Y-82074764D01*
G37*
G36*
X109314928Y-82074764D02*
G01*
X109336009Y-82081160D01*
X109355445Y-82091548D01*
X109372476Y-82105524D01*
X109386452Y-82122555D01*
X109396840Y-82141991D01*
X109403236Y-82163072D01*
X109406000Y-82191140D01*
X109406000Y-82654860D01*
X109403236Y-82682928D01*
X109396840Y-82704009D01*
X109386452Y-82723445D01*
X109372476Y-82740476D01*
X109355445Y-82754452D01*
X109336009Y-82764840D01*
X109314928Y-82771236D01*
X109286860Y-82774000D01*
X107473140Y-82774000D01*
X107445072Y-82771236D01*
X107423991Y-82764840D01*
X107404555Y-82754452D01*
X107387524Y-82740476D01*
X107373548Y-82723445D01*
X107363160Y-82704009D01*
X107356764Y-82682928D01*
X107354000Y-82654860D01*
X107354000Y-82191140D01*
X107356764Y-82163072D01*
X107363160Y-82141991D01*
X107373548Y-82122555D01*
X107387524Y-82105524D01*
X107404555Y-82091548D01*
X107423991Y-82081160D01*
X107445072Y-82074764D01*
X107473140Y-82072000D01*
X109286860Y-82072000D01*
X109314928Y-82074764D01*
X109314928Y-82074764D01*
G37*
G36*
X134668674Y-81157465D02*
G01*
X134706367Y-81168899D01*
X134741103Y-81187466D01*
X134771548Y-81212452D01*
X134796534Y-81242897D01*
X134815101Y-81277633D01*
X134826535Y-81315326D01*
X134831000Y-81360661D01*
X134831000Y-82197339D01*
X134826535Y-82242674D01*
X134815101Y-82280367D01*
X134796534Y-82315103D01*
X134771548Y-82345548D01*
X134741103Y-82370534D01*
X134706367Y-82389101D01*
X134668674Y-82400535D01*
X134623339Y-82405000D01*
X133536661Y-82405000D01*
X133491326Y-82400535D01*
X133453633Y-82389101D01*
X133418897Y-82370534D01*
X133388452Y-82345548D01*
X133363466Y-82315103D01*
X133344899Y-82280367D01*
X133333465Y-82242674D01*
X133329000Y-82197339D01*
X133329000Y-81360661D01*
X133333465Y-81315326D01*
X133344899Y-81277633D01*
X133363466Y-81242897D01*
X133388452Y-81212452D01*
X133418897Y-81187466D01*
X133453633Y-81168899D01*
X133491326Y-81157465D01*
X133536661Y-81153000D01*
X134623339Y-81153000D01*
X134668674Y-81157465D01*
X134668674Y-81157465D01*
G37*
G36*
X132001674Y-81157465D02*
G01*
X132039367Y-81168899D01*
X132074103Y-81187466D01*
X132104548Y-81212452D01*
X132129534Y-81242897D01*
X132148101Y-81277633D01*
X132159535Y-81315326D01*
X132164000Y-81360661D01*
X132164000Y-82197339D01*
X132159535Y-82242674D01*
X132148101Y-82280367D01*
X132129534Y-82315103D01*
X132104548Y-82345548D01*
X132074103Y-82370534D01*
X132039367Y-82389101D01*
X132001674Y-82400535D01*
X131956339Y-82405000D01*
X130869661Y-82405000D01*
X130824326Y-82400535D01*
X130786633Y-82389101D01*
X130751897Y-82370534D01*
X130721452Y-82345548D01*
X130696466Y-82315103D01*
X130677899Y-82280367D01*
X130666465Y-82242674D01*
X130662000Y-82197339D01*
X130662000Y-81360661D01*
X130666465Y-81315326D01*
X130677899Y-81277633D01*
X130696466Y-81242897D01*
X130721452Y-81212452D01*
X130751897Y-81187466D01*
X130786633Y-81168899D01*
X130824326Y-81157465D01*
X130869661Y-81153000D01*
X131956339Y-81153000D01*
X132001674Y-81157465D01*
X132001674Y-81157465D01*
G37*
G36*
X151432674Y-81057465D02*
G01*
X151470367Y-81068899D01*
X151505103Y-81087466D01*
X151535548Y-81112452D01*
X151560534Y-81142897D01*
X151579101Y-81177633D01*
X151590535Y-81215326D01*
X151595000Y-81260661D01*
X151595000Y-82097339D01*
X151590535Y-82142674D01*
X151579102Y-82180364D01*
X151560534Y-82215103D01*
X151535548Y-82245548D01*
X151505103Y-82270534D01*
X151470367Y-82289101D01*
X151432674Y-82300535D01*
X151387339Y-82305000D01*
X150300661Y-82305000D01*
X150255326Y-82300535D01*
X150217633Y-82289101D01*
X150182897Y-82270534D01*
X150152452Y-82245548D01*
X150127466Y-82215103D01*
X150108898Y-82180364D01*
X150097465Y-82142674D01*
X150093000Y-82097339D01*
X150093000Y-81260661D01*
X150097465Y-81215326D01*
X150108899Y-81177633D01*
X150127466Y-81142897D01*
X150152452Y-81112452D01*
X150182897Y-81087466D01*
X150217633Y-81068899D01*
X150255326Y-81057465D01*
X150300661Y-81053000D01*
X151387339Y-81053000D01*
X151432674Y-81057465D01*
X151432674Y-81057465D01*
G37*
G36*
X148765674Y-81057465D02*
G01*
X148803367Y-81068899D01*
X148838103Y-81087466D01*
X148868548Y-81112452D01*
X148893534Y-81142897D01*
X148912101Y-81177633D01*
X148923535Y-81215326D01*
X148928000Y-81260661D01*
X148928000Y-82097339D01*
X148923535Y-82142674D01*
X148912102Y-82180364D01*
X148893534Y-82215103D01*
X148868548Y-82245548D01*
X148838103Y-82270534D01*
X148803367Y-82289101D01*
X148765674Y-82300535D01*
X148720339Y-82305000D01*
X147633661Y-82305000D01*
X147588326Y-82300535D01*
X147550633Y-82289101D01*
X147515897Y-82270534D01*
X147485452Y-82245548D01*
X147460466Y-82215103D01*
X147441898Y-82180364D01*
X147430465Y-82142674D01*
X147426000Y-82097339D01*
X147426000Y-81260661D01*
X147430465Y-81215326D01*
X147441899Y-81177633D01*
X147460466Y-81142897D01*
X147485452Y-81112452D01*
X147515897Y-81087466D01*
X147550633Y-81068899D01*
X147588326Y-81057465D01*
X147633661Y-81053000D01*
X148720339Y-81053000D01*
X148765674Y-81057465D01*
X148765674Y-81057465D01*
G37*
G36*
X146098674Y-81048465D02*
G01*
X146136367Y-81059899D01*
X146171103Y-81078466D01*
X146201548Y-81103452D01*
X146226534Y-81133897D01*
X146245101Y-81168633D01*
X146256535Y-81206326D01*
X146261000Y-81251661D01*
X146261000Y-82088339D01*
X146256535Y-82133674D01*
X146245101Y-82171367D01*
X146226534Y-82206103D01*
X146201548Y-82236548D01*
X146171103Y-82261534D01*
X146136367Y-82280101D01*
X146098674Y-82291535D01*
X146053339Y-82296000D01*
X144966661Y-82296000D01*
X144921326Y-82291535D01*
X144883633Y-82280101D01*
X144848897Y-82261534D01*
X144818452Y-82236548D01*
X144793466Y-82206103D01*
X144774899Y-82171367D01*
X144763465Y-82133674D01*
X144759000Y-82088339D01*
X144759000Y-81251661D01*
X144763465Y-81206326D01*
X144774899Y-81168633D01*
X144793466Y-81133897D01*
X144818452Y-81103452D01*
X144848897Y-81078466D01*
X144883633Y-81059899D01*
X144921326Y-81048465D01*
X144966661Y-81044000D01*
X146053339Y-81044000D01*
X146098674Y-81048465D01*
X146098674Y-81048465D01*
G37*
G36*
X105728674Y-80903465D02*
G01*
X105766367Y-80914899D01*
X105801103Y-80933466D01*
X105831548Y-80958452D01*
X105856534Y-80988897D01*
X105875101Y-81023633D01*
X105886535Y-81061326D01*
X105891000Y-81106661D01*
X105891000Y-81943339D01*
X105886535Y-81988674D01*
X105875101Y-82026367D01*
X105856534Y-82061103D01*
X105831548Y-82091548D01*
X105801103Y-82116534D01*
X105766367Y-82135101D01*
X105728674Y-82146535D01*
X105683339Y-82151000D01*
X104596661Y-82151000D01*
X104551326Y-82146535D01*
X104513633Y-82135101D01*
X104478897Y-82116534D01*
X104448452Y-82091548D01*
X104423466Y-82061103D01*
X104404899Y-82026367D01*
X104393465Y-81988674D01*
X104389000Y-81943339D01*
X104389000Y-81106661D01*
X104393465Y-81061326D01*
X104404899Y-81023633D01*
X104423466Y-80988897D01*
X104448452Y-80958452D01*
X104478897Y-80933466D01*
X104513633Y-80914899D01*
X104551326Y-80903465D01*
X104596661Y-80899000D01*
X105683339Y-80899000D01*
X105728674Y-80903465D01*
X105728674Y-80903465D01*
G37*
G36*
X102807674Y-80903465D02*
G01*
X102845367Y-80914899D01*
X102880103Y-80933466D01*
X102910548Y-80958452D01*
X102935534Y-80988897D01*
X102954101Y-81023633D01*
X102965535Y-81061326D01*
X102970000Y-81106661D01*
X102970000Y-81943339D01*
X102965535Y-81988674D01*
X102954101Y-82026367D01*
X102935534Y-82061103D01*
X102910548Y-82091548D01*
X102880103Y-82116534D01*
X102845367Y-82135101D01*
X102807674Y-82146535D01*
X102762339Y-82151000D01*
X101675661Y-82151000D01*
X101630326Y-82146535D01*
X101592633Y-82135101D01*
X101557897Y-82116534D01*
X101527452Y-82091548D01*
X101502466Y-82061103D01*
X101483899Y-82026367D01*
X101472465Y-81988674D01*
X101468000Y-81943339D01*
X101468000Y-81106661D01*
X101472465Y-81061326D01*
X101483899Y-81023633D01*
X101502466Y-80988897D01*
X101527452Y-80958452D01*
X101557897Y-80933466D01*
X101592633Y-80914899D01*
X101630326Y-80903465D01*
X101675661Y-80899000D01*
X102762339Y-80899000D01*
X102807674Y-80903465D01*
X102807674Y-80903465D01*
G37*
G36*
X143204928Y-81312764D02*
G01*
X143226009Y-81319160D01*
X143245445Y-81329548D01*
X143262476Y-81343524D01*
X143276452Y-81360555D01*
X143286840Y-81379991D01*
X143293236Y-81401072D01*
X143296000Y-81429140D01*
X143296000Y-81892860D01*
X143293236Y-81920928D01*
X143286840Y-81942009D01*
X143276452Y-81961445D01*
X143262476Y-81978476D01*
X143245445Y-81992452D01*
X143226009Y-82002840D01*
X143204928Y-82009236D01*
X143176860Y-82012000D01*
X141363140Y-82012000D01*
X141335072Y-82009236D01*
X141313991Y-82002840D01*
X141294555Y-81992452D01*
X141277524Y-81978476D01*
X141263548Y-81961445D01*
X141253160Y-81942009D01*
X141246764Y-81920928D01*
X141244000Y-81892860D01*
X141244000Y-81429140D01*
X141246764Y-81401072D01*
X141253160Y-81379991D01*
X141263548Y-81360555D01*
X141277524Y-81343524D01*
X141294555Y-81329548D01*
X141313991Y-81319160D01*
X141335072Y-81312764D01*
X141363140Y-81310000D01*
X143176860Y-81310000D01*
X143204928Y-81312764D01*
X143204928Y-81312764D01*
G37*
G36*
X138254928Y-81312764D02*
G01*
X138276009Y-81319160D01*
X138295445Y-81329548D01*
X138312476Y-81343524D01*
X138326452Y-81360555D01*
X138336840Y-81379991D01*
X138343236Y-81401072D01*
X138346000Y-81429140D01*
X138346000Y-81892860D01*
X138343236Y-81920928D01*
X138336840Y-81942009D01*
X138326452Y-81961445D01*
X138312476Y-81978476D01*
X138295445Y-81992452D01*
X138276009Y-82002840D01*
X138254928Y-82009236D01*
X138226860Y-82012000D01*
X136413140Y-82012000D01*
X136385072Y-82009236D01*
X136363991Y-82002840D01*
X136344555Y-81992452D01*
X136327524Y-81978476D01*
X136313548Y-81961445D01*
X136303160Y-81942009D01*
X136296764Y-81920928D01*
X136294000Y-81892860D01*
X136294000Y-81429140D01*
X136296764Y-81401072D01*
X136303160Y-81379991D01*
X136313548Y-81360555D01*
X136327524Y-81343524D01*
X136344555Y-81329548D01*
X136363991Y-81319160D01*
X136385072Y-81312764D01*
X136413140Y-81310000D01*
X138226860Y-81310000D01*
X138254928Y-81312764D01*
X138254928Y-81312764D01*
G37*
G36*
X122492674Y-80549465D02*
G01*
X122530367Y-80560899D01*
X122565103Y-80579466D01*
X122595548Y-80604452D01*
X122620534Y-80634897D01*
X122639101Y-80669633D01*
X122650535Y-80707326D01*
X122655000Y-80752661D01*
X122655000Y-81589339D01*
X122650535Y-81634674D01*
X122639101Y-81672367D01*
X122620534Y-81707103D01*
X122595548Y-81737548D01*
X122565103Y-81762534D01*
X122530367Y-81781101D01*
X122492674Y-81792535D01*
X122447339Y-81797000D01*
X121360661Y-81797000D01*
X121315326Y-81792535D01*
X121277633Y-81781101D01*
X121242897Y-81762534D01*
X121212452Y-81737548D01*
X121187466Y-81707103D01*
X121168899Y-81672367D01*
X121157465Y-81634674D01*
X121153000Y-81589339D01*
X121153000Y-80752661D01*
X121157465Y-80707326D01*
X121168899Y-80669633D01*
X121187466Y-80634897D01*
X121212452Y-80604452D01*
X121242897Y-80579466D01*
X121277633Y-80560899D01*
X121315326Y-80549465D01*
X121360661Y-80545000D01*
X122447339Y-80545000D01*
X122492674Y-80549465D01*
X122492674Y-80549465D01*
G37*
G36*
X117412674Y-80549465D02*
G01*
X117450367Y-80560899D01*
X117485103Y-80579466D01*
X117515548Y-80604452D01*
X117540534Y-80634897D01*
X117559101Y-80669633D01*
X117570535Y-80707326D01*
X117575000Y-80752661D01*
X117575000Y-81589339D01*
X117570535Y-81634674D01*
X117559101Y-81672367D01*
X117540534Y-81707103D01*
X117515548Y-81737548D01*
X117485103Y-81762534D01*
X117450367Y-81781101D01*
X117412674Y-81792535D01*
X117367339Y-81797000D01*
X116280661Y-81797000D01*
X116235326Y-81792535D01*
X116197633Y-81781101D01*
X116162897Y-81762534D01*
X116132452Y-81737548D01*
X116107466Y-81707103D01*
X116088899Y-81672367D01*
X116077465Y-81634674D01*
X116073000Y-81589339D01*
X116073000Y-80752661D01*
X116077465Y-80707326D01*
X116088899Y-80669633D01*
X116107466Y-80634897D01*
X116132452Y-80604452D01*
X116162897Y-80579466D01*
X116197633Y-80560899D01*
X116235326Y-80549465D01*
X116280661Y-80545000D01*
X117367339Y-80545000D01*
X117412674Y-80549465D01*
X117412674Y-80549465D01*
G37*
G36*
X119952674Y-80549465D02*
G01*
X119990367Y-80560899D01*
X120025103Y-80579466D01*
X120055548Y-80604452D01*
X120080534Y-80634897D01*
X120099101Y-80669633D01*
X120110535Y-80707326D01*
X120115000Y-80752661D01*
X120115000Y-81589339D01*
X120110535Y-81634674D01*
X120099101Y-81672367D01*
X120080534Y-81707103D01*
X120055548Y-81737548D01*
X120025103Y-81762534D01*
X119990367Y-81781101D01*
X119952674Y-81792535D01*
X119907339Y-81797000D01*
X118820661Y-81797000D01*
X118775326Y-81792535D01*
X118737633Y-81781101D01*
X118702897Y-81762534D01*
X118672452Y-81737548D01*
X118647466Y-81707103D01*
X118628899Y-81672367D01*
X118617465Y-81634674D01*
X118613000Y-81589339D01*
X118613000Y-80752661D01*
X118617465Y-80707326D01*
X118628899Y-80669633D01*
X118647466Y-80634897D01*
X118672452Y-80604452D01*
X118702897Y-80579466D01*
X118737633Y-80560899D01*
X118775326Y-80549465D01*
X118820661Y-80545000D01*
X119907339Y-80545000D01*
X119952674Y-80549465D01*
X119952674Y-80549465D01*
G37*
G36*
X109314928Y-80804764D02*
G01*
X109336009Y-80811160D01*
X109355445Y-80821548D01*
X109372476Y-80835524D01*
X109386452Y-80852555D01*
X109396840Y-80871991D01*
X109403236Y-80893072D01*
X109406000Y-80921140D01*
X109406000Y-81384860D01*
X109403236Y-81412928D01*
X109396840Y-81434009D01*
X109386452Y-81453445D01*
X109372476Y-81470476D01*
X109355445Y-81484452D01*
X109336009Y-81494840D01*
X109314928Y-81501236D01*
X109286860Y-81504000D01*
X107473140Y-81504000D01*
X107445072Y-81501236D01*
X107423991Y-81494840D01*
X107404555Y-81484452D01*
X107387524Y-81470476D01*
X107373548Y-81453445D01*
X107363160Y-81434009D01*
X107356764Y-81412928D01*
X107354000Y-81384860D01*
X107354000Y-80921140D01*
X107356764Y-80893072D01*
X107363160Y-80871991D01*
X107373548Y-80852555D01*
X107387524Y-80835524D01*
X107404555Y-80821548D01*
X107423991Y-80811160D01*
X107445072Y-80804764D01*
X107473140Y-80802000D01*
X109286860Y-80802000D01*
X109314928Y-80804764D01*
X109314928Y-80804764D01*
G37*
G36*
X114264928Y-80804764D02*
G01*
X114286009Y-80811160D01*
X114305445Y-80821548D01*
X114322476Y-80835524D01*
X114336452Y-80852555D01*
X114346840Y-80871991D01*
X114353236Y-80893072D01*
X114356000Y-80921140D01*
X114356000Y-81384860D01*
X114353236Y-81412928D01*
X114346840Y-81434009D01*
X114336452Y-81453445D01*
X114322476Y-81470476D01*
X114305445Y-81484452D01*
X114286009Y-81494840D01*
X114264928Y-81501236D01*
X114236860Y-81504000D01*
X112423140Y-81504000D01*
X112395072Y-81501236D01*
X112373991Y-81494840D01*
X112354555Y-81484452D01*
X112337524Y-81470476D01*
X112323548Y-81453445D01*
X112313160Y-81434009D01*
X112306764Y-81412928D01*
X112304000Y-81384860D01*
X112304000Y-80921140D01*
X112306764Y-80893072D01*
X112313160Y-80871991D01*
X112323548Y-80852555D01*
X112337524Y-80835524D01*
X112354555Y-80821548D01*
X112373991Y-80811160D01*
X112395072Y-80804764D01*
X112423140Y-80802000D01*
X114236860Y-80802000D01*
X114264928Y-80804764D01*
X114264928Y-80804764D01*
G37*
G36*
X138254928Y-80042764D02*
G01*
X138276009Y-80049160D01*
X138295445Y-80059548D01*
X138312476Y-80073524D01*
X138326452Y-80090555D01*
X138336840Y-80109991D01*
X138343236Y-80131072D01*
X138346000Y-80159140D01*
X138346000Y-80622860D01*
X138343236Y-80650928D01*
X138336840Y-80672009D01*
X138326452Y-80691445D01*
X138312476Y-80708476D01*
X138295445Y-80722452D01*
X138276009Y-80732840D01*
X138254928Y-80739236D01*
X138226860Y-80742000D01*
X136413140Y-80742000D01*
X136385072Y-80739236D01*
X136363991Y-80732840D01*
X136344555Y-80722452D01*
X136327524Y-80708476D01*
X136313548Y-80691445D01*
X136303160Y-80672009D01*
X136296764Y-80650928D01*
X136294000Y-80622860D01*
X136294000Y-80159140D01*
X136296764Y-80131072D01*
X136303160Y-80109991D01*
X136313548Y-80090555D01*
X136327524Y-80073524D01*
X136344555Y-80059548D01*
X136363991Y-80049160D01*
X136385072Y-80042764D01*
X136413140Y-80040000D01*
X138226860Y-80040000D01*
X138254928Y-80042764D01*
X138254928Y-80042764D01*
G37*
G36*
X143204928Y-80042764D02*
G01*
X143226009Y-80049160D01*
X143245445Y-80059548D01*
X143262476Y-80073524D01*
X143276452Y-80090555D01*
X143286840Y-80109991D01*
X143293236Y-80131072D01*
X143296000Y-80159140D01*
X143296000Y-80622860D01*
X143293236Y-80650928D01*
X143286840Y-80672009D01*
X143276452Y-80691445D01*
X143262476Y-80708476D01*
X143245445Y-80722452D01*
X143226009Y-80732840D01*
X143204928Y-80739236D01*
X143176860Y-80742000D01*
X141363140Y-80742000D01*
X141335072Y-80739236D01*
X141313991Y-80732840D01*
X141294555Y-80722452D01*
X141277524Y-80708476D01*
X141263548Y-80691445D01*
X141253160Y-80672009D01*
X141246764Y-80650928D01*
X141244000Y-80622860D01*
X141244000Y-80159140D01*
X141246764Y-80131072D01*
X141253160Y-80109991D01*
X141263548Y-80090555D01*
X141277524Y-80073524D01*
X141294555Y-80059548D01*
X141313991Y-80049160D01*
X141335072Y-80042764D01*
X141363140Y-80040000D01*
X143176860Y-80040000D01*
X143204928Y-80042764D01*
X143204928Y-80042764D01*
G37*
G36*
X151432674Y-79007465D02*
G01*
X151470367Y-79018899D01*
X151505103Y-79037466D01*
X151535548Y-79062452D01*
X151560534Y-79092897D01*
X151579101Y-79127633D01*
X151590535Y-79165326D01*
X151595000Y-79210661D01*
X151595000Y-80047339D01*
X151590535Y-80092674D01*
X151579101Y-80130367D01*
X151560534Y-80165103D01*
X151535548Y-80195548D01*
X151505103Y-80220534D01*
X151470367Y-80239101D01*
X151432674Y-80250535D01*
X151387339Y-80255000D01*
X150300661Y-80255000D01*
X150255326Y-80250535D01*
X150217633Y-80239101D01*
X150182897Y-80220534D01*
X150152452Y-80195548D01*
X150127466Y-80165103D01*
X150108899Y-80130367D01*
X150097465Y-80092674D01*
X150093000Y-80047339D01*
X150093000Y-79210661D01*
X150097465Y-79165326D01*
X150108899Y-79127633D01*
X150127466Y-79092897D01*
X150152452Y-79062452D01*
X150182897Y-79037466D01*
X150217633Y-79018899D01*
X150255326Y-79007465D01*
X150300661Y-79003000D01*
X151387339Y-79003000D01*
X151432674Y-79007465D01*
X151432674Y-79007465D01*
G37*
G36*
X148765674Y-79007465D02*
G01*
X148803367Y-79018899D01*
X148838103Y-79037466D01*
X148868548Y-79062452D01*
X148893534Y-79092897D01*
X148912101Y-79127633D01*
X148923535Y-79165326D01*
X148928000Y-79210661D01*
X148928000Y-80047339D01*
X148923535Y-80092674D01*
X148912101Y-80130367D01*
X148893534Y-80165103D01*
X148868548Y-80195548D01*
X148838103Y-80220534D01*
X148803367Y-80239101D01*
X148765674Y-80250535D01*
X148720339Y-80255000D01*
X147633661Y-80255000D01*
X147588326Y-80250535D01*
X147550633Y-80239101D01*
X147515897Y-80220534D01*
X147485452Y-80195548D01*
X147460466Y-80165103D01*
X147441899Y-80130367D01*
X147430465Y-80092674D01*
X147426000Y-80047339D01*
X147426000Y-79210661D01*
X147430465Y-79165326D01*
X147441899Y-79127633D01*
X147460466Y-79092897D01*
X147485452Y-79062452D01*
X147515897Y-79037466D01*
X147550633Y-79018899D01*
X147588326Y-79007465D01*
X147633661Y-79003000D01*
X148720339Y-79003000D01*
X148765674Y-79007465D01*
X148765674Y-79007465D01*
G37*
G36*
X146098674Y-78998465D02*
G01*
X146136367Y-79009899D01*
X146171103Y-79028466D01*
X146201548Y-79053452D01*
X146226534Y-79083897D01*
X146245101Y-79118633D01*
X146256535Y-79156326D01*
X146261000Y-79201661D01*
X146261000Y-80038339D01*
X146256535Y-80083674D01*
X146245101Y-80121367D01*
X146226534Y-80156103D01*
X146201548Y-80186548D01*
X146171103Y-80211534D01*
X146136367Y-80230101D01*
X146098674Y-80241535D01*
X146053339Y-80246000D01*
X144966661Y-80246000D01*
X144921326Y-80241535D01*
X144883633Y-80230101D01*
X144848897Y-80211534D01*
X144818452Y-80186548D01*
X144793466Y-80156103D01*
X144774899Y-80121367D01*
X144763465Y-80083674D01*
X144759000Y-80038339D01*
X144759000Y-79201661D01*
X144763465Y-79156326D01*
X144774899Y-79118633D01*
X144793466Y-79083897D01*
X144818452Y-79053452D01*
X144848897Y-79028466D01*
X144883633Y-79009899D01*
X144921326Y-78998465D01*
X144966661Y-78994000D01*
X146053339Y-78994000D01*
X146098674Y-78998465D01*
X146098674Y-78998465D01*
G37*
G36*
X109314928Y-79534764D02*
G01*
X109336009Y-79541160D01*
X109355445Y-79551548D01*
X109372476Y-79565524D01*
X109386452Y-79582555D01*
X109396840Y-79601991D01*
X109403236Y-79623072D01*
X109406000Y-79651140D01*
X109406000Y-80114860D01*
X109403236Y-80142928D01*
X109396840Y-80164009D01*
X109386452Y-80183445D01*
X109372476Y-80200476D01*
X109355445Y-80214452D01*
X109336009Y-80224840D01*
X109314928Y-80231236D01*
X109286860Y-80234000D01*
X107473140Y-80234000D01*
X107445072Y-80231236D01*
X107423991Y-80224840D01*
X107404555Y-80214452D01*
X107387524Y-80200476D01*
X107373548Y-80183445D01*
X107363160Y-80164009D01*
X107356764Y-80142928D01*
X107354000Y-80114860D01*
X107354000Y-79651140D01*
X107356764Y-79623072D01*
X107363160Y-79601991D01*
X107373548Y-79582555D01*
X107387524Y-79565524D01*
X107404555Y-79551548D01*
X107423991Y-79541160D01*
X107445072Y-79534764D01*
X107473140Y-79532000D01*
X109286860Y-79532000D01*
X109314928Y-79534764D01*
X109314928Y-79534764D01*
G37*
G36*
X114264928Y-79534764D02*
G01*
X114286009Y-79541160D01*
X114305445Y-79551548D01*
X114322476Y-79565524D01*
X114336452Y-79582555D01*
X114346840Y-79601991D01*
X114353236Y-79623072D01*
X114356000Y-79651140D01*
X114356000Y-80114860D01*
X114353236Y-80142928D01*
X114346840Y-80164009D01*
X114336452Y-80183445D01*
X114322476Y-80200476D01*
X114305445Y-80214452D01*
X114286009Y-80224840D01*
X114264928Y-80231236D01*
X114236860Y-80234000D01*
X112423140Y-80234000D01*
X112395072Y-80231236D01*
X112373991Y-80224840D01*
X112354555Y-80214452D01*
X112337524Y-80200476D01*
X112323548Y-80183445D01*
X112313160Y-80164009D01*
X112306764Y-80142928D01*
X112304000Y-80114860D01*
X112304000Y-79651140D01*
X112306764Y-79623072D01*
X112313160Y-79601991D01*
X112323548Y-79582555D01*
X112337524Y-79565524D01*
X112354555Y-79551548D01*
X112373991Y-79541160D01*
X112395072Y-79534764D01*
X112423140Y-79532000D01*
X114236860Y-79532000D01*
X114264928Y-79534764D01*
X114264928Y-79534764D01*
G37*
G36*
X132001674Y-78889465D02*
G01*
X132039367Y-78900899D01*
X132074103Y-78919466D01*
X132104548Y-78944452D01*
X132129534Y-78974897D01*
X132148101Y-79009633D01*
X132159535Y-79047326D01*
X132164000Y-79092661D01*
X132164000Y-79929339D01*
X132159535Y-79974674D01*
X132148101Y-80012367D01*
X132129534Y-80047103D01*
X132104548Y-80077548D01*
X132074103Y-80102534D01*
X132039367Y-80121101D01*
X132001674Y-80132535D01*
X131956339Y-80137000D01*
X130869661Y-80137000D01*
X130824326Y-80132535D01*
X130786633Y-80121101D01*
X130751897Y-80102534D01*
X130721452Y-80077548D01*
X130696466Y-80047103D01*
X130677899Y-80012367D01*
X130666465Y-79974674D01*
X130662000Y-79929339D01*
X130662000Y-79092661D01*
X130666465Y-79047326D01*
X130677899Y-79009633D01*
X130696466Y-78974897D01*
X130721452Y-78944452D01*
X130751897Y-78919466D01*
X130786633Y-78900899D01*
X130824326Y-78889465D01*
X130869661Y-78885000D01*
X131956339Y-78885000D01*
X132001674Y-78889465D01*
X132001674Y-78889465D01*
G37*
G36*
X122492674Y-78499465D02*
G01*
X122530367Y-78510899D01*
X122565103Y-78529466D01*
X122595548Y-78554452D01*
X122620534Y-78584897D01*
X122639101Y-78619633D01*
X122650535Y-78657326D01*
X122655000Y-78702661D01*
X122655000Y-79539339D01*
X122650535Y-79584674D01*
X122639101Y-79622367D01*
X122620534Y-79657103D01*
X122595548Y-79687548D01*
X122565103Y-79712534D01*
X122530367Y-79731101D01*
X122492674Y-79742535D01*
X122447339Y-79747000D01*
X121360661Y-79747000D01*
X121315326Y-79742535D01*
X121277633Y-79731101D01*
X121242897Y-79712534D01*
X121212452Y-79687548D01*
X121187466Y-79657103D01*
X121168899Y-79622367D01*
X121157465Y-79584674D01*
X121153000Y-79539339D01*
X121153000Y-78702661D01*
X121157465Y-78657326D01*
X121168899Y-78619633D01*
X121187466Y-78584897D01*
X121212452Y-78554452D01*
X121242897Y-78529466D01*
X121277633Y-78510899D01*
X121315326Y-78499465D01*
X121360661Y-78495000D01*
X122447339Y-78495000D01*
X122492674Y-78499465D01*
X122492674Y-78499465D01*
G37*
G36*
X117412674Y-78499465D02*
G01*
X117450367Y-78510899D01*
X117485103Y-78529466D01*
X117515548Y-78554452D01*
X117540534Y-78584897D01*
X117559101Y-78619633D01*
X117570535Y-78657326D01*
X117575000Y-78702661D01*
X117575000Y-79539339D01*
X117570535Y-79584674D01*
X117559101Y-79622367D01*
X117540534Y-79657103D01*
X117515548Y-79687548D01*
X117485103Y-79712534D01*
X117450367Y-79731101D01*
X117412674Y-79742535D01*
X117367339Y-79747000D01*
X116280661Y-79747000D01*
X116235326Y-79742535D01*
X116197633Y-79731101D01*
X116162897Y-79712534D01*
X116132452Y-79687548D01*
X116107466Y-79657103D01*
X116088899Y-79622367D01*
X116077465Y-79584674D01*
X116073000Y-79539339D01*
X116073000Y-78702661D01*
X116077465Y-78657326D01*
X116088899Y-78619633D01*
X116107466Y-78584897D01*
X116132452Y-78554452D01*
X116162897Y-78529466D01*
X116197633Y-78510899D01*
X116235326Y-78499465D01*
X116280661Y-78495000D01*
X117367339Y-78495000D01*
X117412674Y-78499465D01*
X117412674Y-78499465D01*
G37*
G36*
X119952674Y-78499465D02*
G01*
X119990367Y-78510899D01*
X120025103Y-78529466D01*
X120055548Y-78554452D01*
X120080534Y-78584897D01*
X120099101Y-78619633D01*
X120110535Y-78657326D01*
X120115000Y-78702661D01*
X120115000Y-79539339D01*
X120110535Y-79584674D01*
X120099101Y-79622367D01*
X120080534Y-79657103D01*
X120055548Y-79687548D01*
X120025103Y-79712534D01*
X119990367Y-79731101D01*
X119952674Y-79742535D01*
X119907339Y-79747000D01*
X118820661Y-79747000D01*
X118775326Y-79742535D01*
X118737633Y-79731101D01*
X118702897Y-79712534D01*
X118672452Y-79687548D01*
X118647466Y-79657103D01*
X118628899Y-79622367D01*
X118617465Y-79584674D01*
X118613000Y-79539339D01*
X118613000Y-78702661D01*
X118617465Y-78657326D01*
X118628899Y-78619633D01*
X118647466Y-78584897D01*
X118672452Y-78554452D01*
X118702897Y-78529466D01*
X118737633Y-78510899D01*
X118775326Y-78499465D01*
X118820661Y-78495000D01*
X119907339Y-78495000D01*
X119952674Y-78499465D01*
X119952674Y-78499465D01*
G37*
G36*
X102807674Y-78381465D02*
G01*
X102845367Y-78392899D01*
X102880103Y-78411466D01*
X102910548Y-78436452D01*
X102935534Y-78466897D01*
X102954101Y-78501633D01*
X102965535Y-78539326D01*
X102970000Y-78584661D01*
X102970000Y-79421339D01*
X102965535Y-79466674D01*
X102954101Y-79504367D01*
X102935534Y-79539103D01*
X102910548Y-79569548D01*
X102880103Y-79594534D01*
X102845367Y-79613101D01*
X102807674Y-79624535D01*
X102762339Y-79629000D01*
X101675661Y-79629000D01*
X101630326Y-79624535D01*
X101592633Y-79613101D01*
X101557897Y-79594534D01*
X101527452Y-79569548D01*
X101502466Y-79539103D01*
X101483899Y-79504367D01*
X101472465Y-79466674D01*
X101468000Y-79421339D01*
X101468000Y-78584661D01*
X101472465Y-78539326D01*
X101483899Y-78501633D01*
X101502466Y-78466897D01*
X101527452Y-78436452D01*
X101557897Y-78411466D01*
X101592633Y-78392899D01*
X101630326Y-78381465D01*
X101675661Y-78377000D01*
X102762339Y-78377000D01*
X102807674Y-78381465D01*
X102807674Y-78381465D01*
G37*
G36*
X143204928Y-78772764D02*
G01*
X143226009Y-78779160D01*
X143245445Y-78789548D01*
X143262476Y-78803524D01*
X143276452Y-78820555D01*
X143286840Y-78839991D01*
X143293236Y-78861072D01*
X143296000Y-78889140D01*
X143296000Y-79352860D01*
X143293236Y-79380928D01*
X143286840Y-79402009D01*
X143276452Y-79421445D01*
X143262476Y-79438476D01*
X143245445Y-79452452D01*
X143226009Y-79462840D01*
X143204928Y-79469236D01*
X143176860Y-79472000D01*
X141363140Y-79472000D01*
X141335072Y-79469236D01*
X141313991Y-79462840D01*
X141294555Y-79452452D01*
X141277524Y-79438476D01*
X141263548Y-79421445D01*
X141253160Y-79402009D01*
X141246764Y-79380928D01*
X141244000Y-79352860D01*
X141244000Y-78889140D01*
X141246764Y-78861072D01*
X141253160Y-78839991D01*
X141263548Y-78820555D01*
X141277524Y-78803524D01*
X141294555Y-78789548D01*
X141313991Y-78779160D01*
X141335072Y-78772764D01*
X141363140Y-78770000D01*
X143176860Y-78770000D01*
X143204928Y-78772764D01*
X143204928Y-78772764D01*
G37*
G36*
X138254928Y-78772764D02*
G01*
X138276009Y-78779160D01*
X138295445Y-78789548D01*
X138312476Y-78803524D01*
X138326452Y-78820555D01*
X138336840Y-78839991D01*
X138343236Y-78861072D01*
X138346000Y-78889140D01*
X138346000Y-79352860D01*
X138343236Y-79380928D01*
X138336840Y-79402009D01*
X138326452Y-79421445D01*
X138312476Y-79438476D01*
X138295445Y-79452452D01*
X138276009Y-79462840D01*
X138254928Y-79469236D01*
X138226860Y-79472000D01*
X136413140Y-79472000D01*
X136385072Y-79469236D01*
X136363991Y-79462840D01*
X136344555Y-79452452D01*
X136327524Y-79438476D01*
X136313548Y-79421445D01*
X136303160Y-79402009D01*
X136296764Y-79380928D01*
X136294000Y-79352860D01*
X136294000Y-78889140D01*
X136296764Y-78861072D01*
X136303160Y-78839991D01*
X136313548Y-78820555D01*
X136327524Y-78803524D01*
X136344555Y-78789548D01*
X136363991Y-78779160D01*
X136385072Y-78772764D01*
X136413140Y-78770000D01*
X138226860Y-78770000D01*
X138254928Y-78772764D01*
X138254928Y-78772764D01*
G37*
G36*
X109314928Y-78264764D02*
G01*
X109336009Y-78271160D01*
X109355445Y-78281548D01*
X109372476Y-78295524D01*
X109386452Y-78312555D01*
X109396840Y-78331991D01*
X109403236Y-78353072D01*
X109406000Y-78381140D01*
X109406000Y-78844860D01*
X109403236Y-78872928D01*
X109396840Y-78894009D01*
X109386452Y-78913445D01*
X109372476Y-78930476D01*
X109355445Y-78944452D01*
X109336009Y-78954840D01*
X109314928Y-78961236D01*
X109286860Y-78964000D01*
X107473140Y-78964000D01*
X107445072Y-78961236D01*
X107423991Y-78954840D01*
X107404555Y-78944452D01*
X107387524Y-78930476D01*
X107373548Y-78913445D01*
X107363160Y-78894009D01*
X107356764Y-78872928D01*
X107354000Y-78844860D01*
X107354000Y-78381140D01*
X107356764Y-78353072D01*
X107363160Y-78331991D01*
X107373548Y-78312555D01*
X107387524Y-78295524D01*
X107404555Y-78281548D01*
X107423991Y-78271160D01*
X107445072Y-78264764D01*
X107473140Y-78262000D01*
X109286860Y-78262000D01*
X109314928Y-78264764D01*
X109314928Y-78264764D01*
G37*
G36*
X114264928Y-78264764D02*
G01*
X114286009Y-78271160D01*
X114305445Y-78281548D01*
X114322476Y-78295524D01*
X114336452Y-78312555D01*
X114346840Y-78331991D01*
X114353236Y-78353072D01*
X114356000Y-78381140D01*
X114356000Y-78844860D01*
X114353236Y-78872928D01*
X114346840Y-78894009D01*
X114336452Y-78913445D01*
X114322476Y-78930476D01*
X114305445Y-78944452D01*
X114286009Y-78954840D01*
X114264928Y-78961236D01*
X114236860Y-78964000D01*
X112423140Y-78964000D01*
X112395072Y-78961236D01*
X112373991Y-78954840D01*
X112354555Y-78944452D01*
X112337524Y-78930476D01*
X112323548Y-78913445D01*
X112313160Y-78894009D01*
X112306764Y-78872928D01*
X112304000Y-78844860D01*
X112304000Y-78381140D01*
X112306764Y-78353072D01*
X112313160Y-78331991D01*
X112323548Y-78312555D01*
X112337524Y-78295524D01*
X112354555Y-78281548D01*
X112373991Y-78271160D01*
X112395072Y-78264764D01*
X112423140Y-78262000D01*
X114236860Y-78262000D01*
X114264928Y-78264764D01*
X114264928Y-78264764D01*
G37*
G36*
X143204928Y-77502764D02*
G01*
X143226009Y-77509160D01*
X143245445Y-77519548D01*
X143262476Y-77533524D01*
X143276452Y-77550555D01*
X143286840Y-77569991D01*
X143293236Y-77591072D01*
X143296000Y-77619140D01*
X143296000Y-78082860D01*
X143293236Y-78110928D01*
X143286840Y-78132009D01*
X143276452Y-78151445D01*
X143262476Y-78168476D01*
X143245445Y-78182452D01*
X143226009Y-78192840D01*
X143204928Y-78199236D01*
X143176860Y-78202000D01*
X141363140Y-78202000D01*
X141335072Y-78199236D01*
X141313991Y-78192840D01*
X141294555Y-78182452D01*
X141277524Y-78168476D01*
X141263548Y-78151445D01*
X141253160Y-78132009D01*
X141246764Y-78110928D01*
X141244000Y-78082860D01*
X141244000Y-77619140D01*
X141246764Y-77591072D01*
X141253160Y-77569991D01*
X141263548Y-77550555D01*
X141277524Y-77533524D01*
X141294555Y-77519548D01*
X141313991Y-77509160D01*
X141335072Y-77502764D01*
X141363140Y-77500000D01*
X143176860Y-77500000D01*
X143204928Y-77502764D01*
X143204928Y-77502764D01*
G37*
G36*
X138254928Y-77502764D02*
G01*
X138276009Y-77509160D01*
X138295445Y-77519548D01*
X138312476Y-77533524D01*
X138326452Y-77550555D01*
X138336840Y-77569991D01*
X138343236Y-77591072D01*
X138346000Y-77619140D01*
X138346000Y-78082860D01*
X138343236Y-78110928D01*
X138336840Y-78132009D01*
X138326452Y-78151445D01*
X138312476Y-78168476D01*
X138295445Y-78182452D01*
X138276009Y-78192840D01*
X138254928Y-78199236D01*
X138226860Y-78202000D01*
X136413140Y-78202000D01*
X136385072Y-78199236D01*
X136363991Y-78192840D01*
X136344555Y-78182452D01*
X136327524Y-78168476D01*
X136313548Y-78151445D01*
X136303160Y-78132009D01*
X136296764Y-78110928D01*
X136294000Y-78082860D01*
X136294000Y-77619140D01*
X136296764Y-77591072D01*
X136303160Y-77569991D01*
X136313548Y-77550555D01*
X136327524Y-77533524D01*
X136344555Y-77519548D01*
X136363991Y-77509160D01*
X136385072Y-77502764D01*
X136413140Y-77500000D01*
X138226860Y-77500000D01*
X138254928Y-77502764D01*
X138254928Y-77502764D01*
G37*
G36*
X132001674Y-76839465D02*
G01*
X132039367Y-76850899D01*
X132074103Y-76869466D01*
X132104548Y-76894452D01*
X132129534Y-76924897D01*
X132148101Y-76959633D01*
X132159535Y-76997326D01*
X132164000Y-77042661D01*
X132164000Y-77879339D01*
X132159535Y-77924674D01*
X132148101Y-77962367D01*
X132129534Y-77997103D01*
X132104548Y-78027548D01*
X132074103Y-78052534D01*
X132039367Y-78071101D01*
X132001674Y-78082535D01*
X131956339Y-78087000D01*
X130869661Y-78087000D01*
X130824326Y-78082535D01*
X130786633Y-78071101D01*
X130751897Y-78052534D01*
X130721452Y-78027548D01*
X130696466Y-77997103D01*
X130677899Y-77962367D01*
X130666465Y-77924674D01*
X130662000Y-77879339D01*
X130662000Y-77042661D01*
X130666465Y-76997326D01*
X130677899Y-76959633D01*
X130696466Y-76924897D01*
X130721452Y-76894452D01*
X130751897Y-76869466D01*
X130786633Y-76850899D01*
X130824326Y-76839465D01*
X130869661Y-76835000D01*
X131956339Y-76835000D01*
X132001674Y-76839465D01*
X132001674Y-76839465D01*
G37*
G36*
X146098674Y-76485465D02*
G01*
X146136367Y-76496899D01*
X146171103Y-76515466D01*
X146201548Y-76540452D01*
X146226534Y-76570897D01*
X146245101Y-76605633D01*
X146256535Y-76643326D01*
X146261000Y-76688661D01*
X146261000Y-77525339D01*
X146256535Y-77570674D01*
X146245102Y-77608364D01*
X146226534Y-77643103D01*
X146201548Y-77673548D01*
X146171103Y-77698534D01*
X146136367Y-77717101D01*
X146098674Y-77728535D01*
X146053339Y-77733000D01*
X144966661Y-77733000D01*
X144921326Y-77728535D01*
X144883633Y-77717101D01*
X144848897Y-77698534D01*
X144818452Y-77673548D01*
X144793466Y-77643103D01*
X144774898Y-77608364D01*
X144763465Y-77570674D01*
X144759000Y-77525339D01*
X144759000Y-76688661D01*
X144763465Y-76643326D01*
X144774899Y-76605633D01*
X144793466Y-76570897D01*
X144818452Y-76540452D01*
X144848897Y-76515466D01*
X144883633Y-76496899D01*
X144921326Y-76485465D01*
X144966661Y-76481000D01*
X146053339Y-76481000D01*
X146098674Y-76485465D01*
X146098674Y-76485465D01*
G37*
G36*
X148765674Y-76485465D02*
G01*
X148803367Y-76496899D01*
X148838103Y-76515466D01*
X148868548Y-76540452D01*
X148893534Y-76570897D01*
X148912101Y-76605633D01*
X148923535Y-76643326D01*
X148928000Y-76688661D01*
X148928000Y-77525339D01*
X148923535Y-77570674D01*
X148912102Y-77608364D01*
X148893534Y-77643103D01*
X148868548Y-77673548D01*
X148838103Y-77698534D01*
X148803367Y-77717101D01*
X148765674Y-77728535D01*
X148720339Y-77733000D01*
X147633661Y-77733000D01*
X147588326Y-77728535D01*
X147550633Y-77717101D01*
X147515897Y-77698534D01*
X147485452Y-77673548D01*
X147460466Y-77643103D01*
X147441898Y-77608364D01*
X147430465Y-77570674D01*
X147426000Y-77525339D01*
X147426000Y-76688661D01*
X147430465Y-76643326D01*
X147441899Y-76605633D01*
X147460466Y-76570897D01*
X147485452Y-76540452D01*
X147515897Y-76515466D01*
X147550633Y-76496899D01*
X147588326Y-76485465D01*
X147633661Y-76481000D01*
X148720339Y-76481000D01*
X148765674Y-76485465D01*
X148765674Y-76485465D01*
G37*
G36*
X109314928Y-76994764D02*
G01*
X109336009Y-77001160D01*
X109355445Y-77011548D01*
X109372476Y-77025524D01*
X109386452Y-77042555D01*
X109396840Y-77061991D01*
X109403236Y-77083072D01*
X109406000Y-77111140D01*
X109406000Y-77574860D01*
X109403236Y-77602928D01*
X109396840Y-77624009D01*
X109386452Y-77643445D01*
X109372476Y-77660476D01*
X109355445Y-77674452D01*
X109336009Y-77684840D01*
X109314928Y-77691236D01*
X109286860Y-77694000D01*
X107473140Y-77694000D01*
X107445072Y-77691236D01*
X107423991Y-77684840D01*
X107404555Y-77674452D01*
X107387524Y-77660476D01*
X107373548Y-77643445D01*
X107363160Y-77624009D01*
X107356764Y-77602928D01*
X107354000Y-77574860D01*
X107354000Y-77111140D01*
X107356764Y-77083072D01*
X107363160Y-77061991D01*
X107373548Y-77042555D01*
X107387524Y-77025524D01*
X107404555Y-77011548D01*
X107423991Y-77001160D01*
X107445072Y-76994764D01*
X107473140Y-76992000D01*
X109286860Y-76992000D01*
X109314928Y-76994764D01*
X109314928Y-76994764D01*
G37*
G36*
X114264928Y-76994764D02*
G01*
X114286009Y-77001160D01*
X114305445Y-77011548D01*
X114322476Y-77025524D01*
X114336452Y-77042555D01*
X114346840Y-77061991D01*
X114353236Y-77083072D01*
X114356000Y-77111140D01*
X114356000Y-77574860D01*
X114353236Y-77602928D01*
X114346840Y-77624009D01*
X114336452Y-77643445D01*
X114322476Y-77660476D01*
X114305445Y-77674452D01*
X114286009Y-77684840D01*
X114264928Y-77691236D01*
X114236860Y-77694000D01*
X112423140Y-77694000D01*
X112395072Y-77691236D01*
X112373991Y-77684840D01*
X112354555Y-77674452D01*
X112337524Y-77660476D01*
X112323548Y-77643445D01*
X112313160Y-77624009D01*
X112306764Y-77602928D01*
X112304000Y-77574860D01*
X112304000Y-77111140D01*
X112306764Y-77083072D01*
X112313160Y-77061991D01*
X112323548Y-77042555D01*
X112337524Y-77025524D01*
X112354555Y-77011548D01*
X112373991Y-77001160D01*
X112395072Y-76994764D01*
X112423140Y-76992000D01*
X114236860Y-76992000D01*
X114264928Y-76994764D01*
X114264928Y-76994764D01*
G37*
G36*
X102807674Y-76331465D02*
G01*
X102845367Y-76342899D01*
X102880103Y-76361466D01*
X102910548Y-76386452D01*
X102935534Y-76416897D01*
X102954101Y-76451633D01*
X102965535Y-76489326D01*
X102970000Y-76534661D01*
X102970000Y-77371339D01*
X102965535Y-77416674D01*
X102954101Y-77454367D01*
X102935534Y-77489103D01*
X102910548Y-77519548D01*
X102880103Y-77544534D01*
X102845367Y-77563101D01*
X102807674Y-77574535D01*
X102762339Y-77579000D01*
X101675661Y-77579000D01*
X101630326Y-77574535D01*
X101592633Y-77563101D01*
X101557897Y-77544534D01*
X101527452Y-77519548D01*
X101502466Y-77489103D01*
X101483899Y-77454367D01*
X101472465Y-77416674D01*
X101468000Y-77371339D01*
X101468000Y-76534661D01*
X101472465Y-76489326D01*
X101483899Y-76451633D01*
X101502466Y-76416897D01*
X101527452Y-76386452D01*
X101557897Y-76361466D01*
X101592633Y-76342899D01*
X101630326Y-76331465D01*
X101675661Y-76327000D01*
X102762339Y-76327000D01*
X102807674Y-76331465D01*
X102807674Y-76331465D01*
G37*
G36*
X117412674Y-75977465D02*
G01*
X117450367Y-75988899D01*
X117485103Y-76007466D01*
X117515548Y-76032452D01*
X117540534Y-76062897D01*
X117559101Y-76097633D01*
X117570535Y-76135326D01*
X117575000Y-76180661D01*
X117575000Y-77017339D01*
X117570535Y-77062674D01*
X117559101Y-77100367D01*
X117540534Y-77135103D01*
X117515548Y-77165548D01*
X117485103Y-77190534D01*
X117450367Y-77209101D01*
X117412674Y-77220535D01*
X117367339Y-77225000D01*
X116280661Y-77225000D01*
X116235326Y-77220535D01*
X116197633Y-77209101D01*
X116162897Y-77190534D01*
X116132452Y-77165548D01*
X116107466Y-77135103D01*
X116088899Y-77100367D01*
X116077465Y-77062674D01*
X116073000Y-77017339D01*
X116073000Y-76180661D01*
X116077465Y-76135326D01*
X116088899Y-76097633D01*
X116107466Y-76062897D01*
X116132452Y-76032452D01*
X116162897Y-76007466D01*
X116197633Y-75988899D01*
X116235326Y-75977465D01*
X116280661Y-75973000D01*
X117367339Y-75973000D01*
X117412674Y-75977465D01*
X117412674Y-75977465D01*
G37*
G36*
X119952674Y-75977465D02*
G01*
X119990367Y-75988899D01*
X120025103Y-76007466D01*
X120055548Y-76032452D01*
X120080534Y-76062897D01*
X120099101Y-76097633D01*
X120110535Y-76135326D01*
X120115000Y-76180661D01*
X120115000Y-77017339D01*
X120110535Y-77062674D01*
X120099101Y-77100367D01*
X120080534Y-77135103D01*
X120055548Y-77165548D01*
X120025103Y-77190534D01*
X119990367Y-77209101D01*
X119952674Y-77220535D01*
X119907339Y-77225000D01*
X118820661Y-77225000D01*
X118775326Y-77220535D01*
X118737633Y-77209101D01*
X118702897Y-77190534D01*
X118672452Y-77165548D01*
X118647466Y-77135103D01*
X118628899Y-77100367D01*
X118617465Y-77062674D01*
X118613000Y-77017339D01*
X118613000Y-76180661D01*
X118617465Y-76135326D01*
X118628899Y-76097633D01*
X118647466Y-76062897D01*
X118672452Y-76032452D01*
X118702897Y-76007466D01*
X118737633Y-75988899D01*
X118775326Y-75977465D01*
X118820661Y-75973000D01*
X119907339Y-75973000D01*
X119952674Y-75977465D01*
X119952674Y-75977465D01*
G37*
G36*
X146098674Y-74435465D02*
G01*
X146136367Y-74446899D01*
X146171103Y-74465466D01*
X146201548Y-74490452D01*
X146226534Y-74520897D01*
X146245101Y-74555633D01*
X146256535Y-74593326D01*
X146261000Y-74638661D01*
X146261000Y-75475339D01*
X146256535Y-75520674D01*
X146245101Y-75558367D01*
X146226534Y-75593103D01*
X146201548Y-75623548D01*
X146171103Y-75648534D01*
X146136367Y-75667101D01*
X146098674Y-75678535D01*
X146053339Y-75683000D01*
X144966661Y-75683000D01*
X144921326Y-75678535D01*
X144883633Y-75667101D01*
X144848897Y-75648534D01*
X144818452Y-75623548D01*
X144793466Y-75593103D01*
X144774899Y-75558367D01*
X144763465Y-75520674D01*
X144759000Y-75475339D01*
X144759000Y-74638661D01*
X144763465Y-74593326D01*
X144774899Y-74555633D01*
X144793466Y-74520897D01*
X144818452Y-74490452D01*
X144848897Y-74465466D01*
X144883633Y-74446899D01*
X144921326Y-74435465D01*
X144966661Y-74431000D01*
X146053339Y-74431000D01*
X146098674Y-74435465D01*
X146098674Y-74435465D01*
G37*
G36*
X148765674Y-74435465D02*
G01*
X148803367Y-74446899D01*
X148838103Y-74465466D01*
X148868548Y-74490452D01*
X148893534Y-74520897D01*
X148912101Y-74555633D01*
X148923535Y-74593326D01*
X148928000Y-74638661D01*
X148928000Y-75475339D01*
X148923535Y-75520674D01*
X148912101Y-75558367D01*
X148893534Y-75593103D01*
X148868548Y-75623548D01*
X148838103Y-75648534D01*
X148803367Y-75667101D01*
X148765674Y-75678535D01*
X148720339Y-75683000D01*
X147633661Y-75683000D01*
X147588326Y-75678535D01*
X147550633Y-75667101D01*
X147515897Y-75648534D01*
X147485452Y-75623548D01*
X147460466Y-75593103D01*
X147441899Y-75558367D01*
X147430465Y-75520674D01*
X147426000Y-75475339D01*
X147426000Y-74638661D01*
X147430465Y-74593326D01*
X147441899Y-74555633D01*
X147460466Y-74520897D01*
X147485452Y-74490452D01*
X147515897Y-74465466D01*
X147550633Y-74446899D01*
X147588326Y-74435465D01*
X147633661Y-74431000D01*
X148720339Y-74431000D01*
X148765674Y-74435465D01*
X148765674Y-74435465D01*
G37*
G36*
X117412674Y-73927465D02*
G01*
X117450367Y-73938899D01*
X117485103Y-73957466D01*
X117515548Y-73982452D01*
X117540534Y-74012897D01*
X117559101Y-74047633D01*
X117570535Y-74085326D01*
X117575000Y-74130661D01*
X117575000Y-74967339D01*
X117570535Y-75012674D01*
X117559101Y-75050367D01*
X117540534Y-75085103D01*
X117515548Y-75115548D01*
X117485103Y-75140534D01*
X117450367Y-75159101D01*
X117412674Y-75170535D01*
X117367339Y-75175000D01*
X116280661Y-75175000D01*
X116235326Y-75170535D01*
X116197633Y-75159101D01*
X116162897Y-75140534D01*
X116132452Y-75115548D01*
X116107466Y-75085103D01*
X116088899Y-75050367D01*
X116077465Y-75012674D01*
X116073000Y-74967339D01*
X116073000Y-74130661D01*
X116077465Y-74085326D01*
X116088899Y-74047633D01*
X116107466Y-74012897D01*
X116132452Y-73982452D01*
X116162897Y-73957466D01*
X116197633Y-73938899D01*
X116235326Y-73927465D01*
X116280661Y-73923000D01*
X117367339Y-73923000D01*
X117412674Y-73927465D01*
X117412674Y-73927465D01*
G37*
G36*
X119952674Y-73927465D02*
G01*
X119990367Y-73938899D01*
X120025103Y-73957466D01*
X120055548Y-73982452D01*
X120080534Y-74012897D01*
X120099101Y-74047633D01*
X120110535Y-74085326D01*
X120115000Y-74130661D01*
X120115000Y-74967339D01*
X120110535Y-75012674D01*
X120099101Y-75050367D01*
X120080534Y-75085103D01*
X120055548Y-75115548D01*
X120025103Y-75140534D01*
X119990367Y-75159101D01*
X119952674Y-75170535D01*
X119907339Y-75175000D01*
X118820661Y-75175000D01*
X118775326Y-75170535D01*
X118737633Y-75159101D01*
X118702897Y-75140534D01*
X118672452Y-75115548D01*
X118647466Y-75085103D01*
X118628899Y-75050367D01*
X118617465Y-75012674D01*
X118613000Y-74967339D01*
X118613000Y-74130661D01*
X118617465Y-74085326D01*
X118628899Y-74047633D01*
X118647466Y-74012897D01*
X118672452Y-73982452D01*
X118702897Y-73957466D01*
X118737633Y-73938899D01*
X118775326Y-73927465D01*
X118820661Y-73923000D01*
X119907339Y-73923000D01*
X119952674Y-73927465D01*
X119952674Y-73927465D01*
G37*
G36*
X113983674Y-73174465D02*
G01*
X114021367Y-73185899D01*
X114056103Y-73204466D01*
X114086548Y-73229452D01*
X114111534Y-73259897D01*
X114130101Y-73294633D01*
X114141535Y-73332326D01*
X114146000Y-73377661D01*
X114146000Y-74214339D01*
X114141535Y-74259674D01*
X114130101Y-74297367D01*
X114111534Y-74332103D01*
X114086548Y-74362548D01*
X114056103Y-74387534D01*
X114021367Y-74406101D01*
X113983674Y-74417535D01*
X113938339Y-74422000D01*
X112851661Y-74422000D01*
X112806326Y-74417535D01*
X112768633Y-74406101D01*
X112733897Y-74387534D01*
X112703452Y-74362548D01*
X112678466Y-74332103D01*
X112659899Y-74297367D01*
X112648465Y-74259674D01*
X112644000Y-74214339D01*
X112644000Y-73377661D01*
X112648465Y-73332326D01*
X112659899Y-73294633D01*
X112678466Y-73259897D01*
X112703452Y-73229452D01*
X112733897Y-73204466D01*
X112768633Y-73185899D01*
X112806326Y-73174465D01*
X112851661Y-73170000D01*
X113938339Y-73170000D01*
X113983674Y-73174465D01*
X113983674Y-73174465D01*
G37*
G36*
X137748674Y-73174465D02*
G01*
X137786367Y-73185899D01*
X137821103Y-73204466D01*
X137851548Y-73229452D01*
X137876534Y-73259897D01*
X137895101Y-73294633D01*
X137906535Y-73332326D01*
X137911000Y-73377661D01*
X137911000Y-74214339D01*
X137906535Y-74259674D01*
X137895101Y-74297367D01*
X137876534Y-74332103D01*
X137851548Y-74362548D01*
X137821103Y-74387534D01*
X137786367Y-74406101D01*
X137748674Y-74417535D01*
X137703339Y-74422000D01*
X136616661Y-74422000D01*
X136571326Y-74417535D01*
X136533633Y-74406101D01*
X136498897Y-74387534D01*
X136468452Y-74362548D01*
X136443466Y-74332103D01*
X136424899Y-74297367D01*
X136413465Y-74259674D01*
X136409000Y-74214339D01*
X136409000Y-73377661D01*
X136413465Y-73332326D01*
X136424899Y-73294633D01*
X136443466Y-73259897D01*
X136468452Y-73229452D01*
X136498897Y-73204466D01*
X136533633Y-73185899D01*
X136571326Y-73174465D01*
X136616661Y-73170000D01*
X137703339Y-73170000D01*
X137748674Y-73174465D01*
X137748674Y-73174465D01*
G37*
G36*
X142796674Y-73174465D02*
G01*
X142834367Y-73185899D01*
X142869103Y-73204466D01*
X142899548Y-73229452D01*
X142924534Y-73259897D01*
X142943101Y-73294633D01*
X142954535Y-73332326D01*
X142959000Y-73377661D01*
X142959000Y-74214339D01*
X142954535Y-74259674D01*
X142943101Y-74297367D01*
X142924534Y-74332103D01*
X142899548Y-74362548D01*
X142869103Y-74387534D01*
X142834367Y-74406101D01*
X142796674Y-74417535D01*
X142751339Y-74422000D01*
X141664661Y-74422000D01*
X141619326Y-74417535D01*
X141581633Y-74406101D01*
X141546897Y-74387534D01*
X141516452Y-74362548D01*
X141491466Y-74332103D01*
X141472899Y-74297367D01*
X141461465Y-74259674D01*
X141457000Y-74214339D01*
X141457000Y-73377661D01*
X141461465Y-73332326D01*
X141472899Y-73294633D01*
X141491466Y-73259897D01*
X141516452Y-73229452D01*
X141546897Y-73204466D01*
X141581633Y-73185899D01*
X141619326Y-73174465D01*
X141664661Y-73170000D01*
X142751339Y-73170000D01*
X142796674Y-73174465D01*
X142796674Y-73174465D01*
G37*
G36*
X109046674Y-73174465D02*
G01*
X109084367Y-73185899D01*
X109119103Y-73204466D01*
X109149548Y-73229452D01*
X109174534Y-73259897D01*
X109193101Y-73294633D01*
X109204535Y-73332326D01*
X109209000Y-73377661D01*
X109209000Y-74214339D01*
X109204535Y-74259674D01*
X109193101Y-74297367D01*
X109174534Y-74332103D01*
X109149548Y-74362548D01*
X109119103Y-74387534D01*
X109084367Y-74406101D01*
X109046674Y-74417535D01*
X109001339Y-74422000D01*
X107914661Y-74422000D01*
X107869326Y-74417535D01*
X107831633Y-74406101D01*
X107796897Y-74387534D01*
X107766452Y-74362548D01*
X107741466Y-74332103D01*
X107722899Y-74297367D01*
X107711465Y-74259674D01*
X107707000Y-74214339D01*
X107707000Y-73377661D01*
X107711465Y-73332326D01*
X107722899Y-73294633D01*
X107741466Y-73259897D01*
X107766452Y-73229452D01*
X107796897Y-73204466D01*
X107831633Y-73185899D01*
X107869326Y-73174465D01*
X107914661Y-73170000D01*
X109001339Y-73170000D01*
X109046674Y-73174465D01*
X109046674Y-73174465D01*
G37*
G36*
X109046674Y-71124465D02*
G01*
X109084367Y-71135899D01*
X109119103Y-71154466D01*
X109149548Y-71179452D01*
X109174534Y-71209897D01*
X109193101Y-71244633D01*
X109204535Y-71282326D01*
X109209000Y-71327661D01*
X109209000Y-72164339D01*
X109204535Y-72209674D01*
X109193101Y-72247367D01*
X109174534Y-72282103D01*
X109149548Y-72312548D01*
X109119103Y-72337534D01*
X109084367Y-72356101D01*
X109046674Y-72367535D01*
X109001339Y-72372000D01*
X107914661Y-72372000D01*
X107869326Y-72367535D01*
X107831633Y-72356101D01*
X107796897Y-72337534D01*
X107766452Y-72312548D01*
X107741466Y-72282103D01*
X107722899Y-72247367D01*
X107711465Y-72209674D01*
X107707000Y-72164339D01*
X107707000Y-71327661D01*
X107711465Y-71282326D01*
X107722899Y-71244633D01*
X107741466Y-71209897D01*
X107766452Y-71179452D01*
X107796897Y-71154466D01*
X107831633Y-71135899D01*
X107869326Y-71124465D01*
X107914661Y-71120000D01*
X109001339Y-71120000D01*
X109046674Y-71124465D01*
X109046674Y-71124465D01*
G37*
G36*
X113983674Y-71124465D02*
G01*
X114021367Y-71135899D01*
X114056103Y-71154466D01*
X114086548Y-71179452D01*
X114111534Y-71209897D01*
X114130101Y-71244633D01*
X114141535Y-71282326D01*
X114146000Y-71327661D01*
X114146000Y-72164339D01*
X114141535Y-72209674D01*
X114130101Y-72247367D01*
X114111534Y-72282103D01*
X114086548Y-72312548D01*
X114056103Y-72337534D01*
X114021367Y-72356101D01*
X113983674Y-72367535D01*
X113938339Y-72372000D01*
X112851661Y-72372000D01*
X112806326Y-72367535D01*
X112768633Y-72356101D01*
X112733897Y-72337534D01*
X112703452Y-72312548D01*
X112678466Y-72282103D01*
X112659899Y-72247367D01*
X112648465Y-72209674D01*
X112644000Y-72164339D01*
X112644000Y-71327661D01*
X112648465Y-71282326D01*
X112659899Y-71244633D01*
X112678466Y-71209897D01*
X112703452Y-71179452D01*
X112733897Y-71154466D01*
X112768633Y-71135899D01*
X112806326Y-71124465D01*
X112851661Y-71120000D01*
X113938339Y-71120000D01*
X113983674Y-71124465D01*
X113983674Y-71124465D01*
G37*
G36*
X137748674Y-71124465D02*
G01*
X137786367Y-71135899D01*
X137821103Y-71154466D01*
X137851548Y-71179452D01*
X137876534Y-71209897D01*
X137895101Y-71244633D01*
X137906535Y-71282326D01*
X137911000Y-71327661D01*
X137911000Y-72164339D01*
X137906535Y-72209674D01*
X137895101Y-72247367D01*
X137876534Y-72282103D01*
X137851548Y-72312548D01*
X137821103Y-72337534D01*
X137786367Y-72356101D01*
X137748674Y-72367535D01*
X137703339Y-72372000D01*
X136616661Y-72372000D01*
X136571326Y-72367535D01*
X136533633Y-72356101D01*
X136498897Y-72337534D01*
X136468452Y-72312548D01*
X136443466Y-72282103D01*
X136424899Y-72247367D01*
X136413465Y-72209674D01*
X136409000Y-72164339D01*
X136409000Y-71327661D01*
X136413465Y-71282326D01*
X136424899Y-71244633D01*
X136443466Y-71209897D01*
X136468452Y-71179452D01*
X136498897Y-71154466D01*
X136533633Y-71135899D01*
X136571326Y-71124465D01*
X136616661Y-71120000D01*
X137703339Y-71120000D01*
X137748674Y-71124465D01*
X137748674Y-71124465D01*
G37*
G36*
X142796674Y-71124465D02*
G01*
X142834367Y-71135899D01*
X142869103Y-71154466D01*
X142899548Y-71179452D01*
X142924534Y-71209897D01*
X142943101Y-71244633D01*
X142954535Y-71282326D01*
X142959000Y-71327661D01*
X142959000Y-72164339D01*
X142954535Y-72209674D01*
X142943101Y-72247367D01*
X142924534Y-72282103D01*
X142899548Y-72312548D01*
X142869103Y-72337534D01*
X142834367Y-72356101D01*
X142796674Y-72367535D01*
X142751339Y-72372000D01*
X141664661Y-72372000D01*
X141619326Y-72367535D01*
X141581633Y-72356101D01*
X141546897Y-72337534D01*
X141516452Y-72312548D01*
X141491466Y-72282103D01*
X141472899Y-72247367D01*
X141461465Y-72209674D01*
X141457000Y-72164339D01*
X141457000Y-71327661D01*
X141461465Y-71282326D01*
X141472899Y-71244633D01*
X141491466Y-71209897D01*
X141516452Y-71179452D01*
X141546897Y-71154466D01*
X141581633Y-71135899D01*
X141619326Y-71124465D01*
X141664661Y-71120000D01*
X142751339Y-71120000D01*
X142796674Y-71124465D01*
X142796674Y-71124465D01*
G37*
G36*
X153537256Y-64991298D02*
G01*
X153643579Y-65012447D01*
X153944042Y-65136903D01*
X154214451Y-65317585D01*
X154444415Y-65547549D01*
X154594709Y-65772480D01*
X154625098Y-65817960D01*
X154749553Y-66118422D01*
X154813000Y-66437389D01*
X154813000Y-66762611D01*
X154770702Y-66975256D01*
X154749553Y-67081579D01*
X154661550Y-67294037D01*
X154637256Y-67352689D01*
X154625097Y-67382042D01*
X154444415Y-67652451D01*
X154214451Y-67882415D01*
X153944042Y-68063097D01*
X153643579Y-68187553D01*
X153537256Y-68208702D01*
X153324611Y-68251000D01*
X152999389Y-68251000D01*
X152786744Y-68208702D01*
X152680421Y-68187553D01*
X152379958Y-68063097D01*
X152109549Y-67882415D01*
X151879585Y-67652451D01*
X151698903Y-67382042D01*
X151686745Y-67352689D01*
X151662450Y-67294037D01*
X151574447Y-67081579D01*
X151553298Y-66975256D01*
X151511000Y-66762611D01*
X151511000Y-66437389D01*
X151574447Y-66118422D01*
X151698902Y-65817960D01*
X151729291Y-65772480D01*
X151879585Y-65547549D01*
X152109549Y-65317585D01*
X152379958Y-65136903D01*
X152680421Y-65012447D01*
X152786744Y-64991298D01*
X152999389Y-64949000D01*
X153324611Y-64949000D01*
X153537256Y-64991298D01*
X153537256Y-64991298D01*
G37*
G36*
X103499256Y-64991298D02*
G01*
X103605579Y-65012447D01*
X103906042Y-65136903D01*
X104176451Y-65317585D01*
X104406415Y-65547549D01*
X104556709Y-65772480D01*
X104587098Y-65817960D01*
X104711553Y-66118422D01*
X104775000Y-66437389D01*
X104775000Y-66762611D01*
X104732702Y-66975256D01*
X104711553Y-67081579D01*
X104623550Y-67294037D01*
X104599256Y-67352689D01*
X104587097Y-67382042D01*
X104406415Y-67652451D01*
X104176451Y-67882415D01*
X103906042Y-68063097D01*
X103605579Y-68187553D01*
X103499256Y-68208702D01*
X103286611Y-68251000D01*
X102961389Y-68251000D01*
X102748744Y-68208702D01*
X102642421Y-68187553D01*
X102341958Y-68063097D01*
X102071549Y-67882415D01*
X101841585Y-67652451D01*
X101660903Y-67382042D01*
X101648745Y-67352689D01*
X101624450Y-67294037D01*
X101536447Y-67081579D01*
X101515298Y-66975256D01*
X101473000Y-66762611D01*
X101473000Y-66437389D01*
X101536447Y-66118422D01*
X101660902Y-65817960D01*
X101691291Y-65772480D01*
X101841585Y-65547549D01*
X102071549Y-65317585D01*
X102341958Y-65136903D01*
X102642421Y-65012447D01*
X102748744Y-64991298D01*
X102961389Y-64949000D01*
X103286611Y-64949000D01*
X103499256Y-64991298D01*
X103499256Y-64991298D01*
G37*
G36*
X137287795Y-65214156D02*
G01*
X137394150Y-65235311D01*
X137494334Y-65276809D01*
X137594520Y-65318307D01*
X137774844Y-65438795D01*
X137928205Y-65592156D01*
X138048693Y-65772480D01*
X138131689Y-65972851D01*
X138174000Y-66185560D01*
X138174000Y-66402440D01*
X138131689Y-66615149D01*
X138048693Y-66815520D01*
X137928205Y-66995844D01*
X137774844Y-67149205D01*
X137594520Y-67269693D01*
X137394150Y-67352689D01*
X137287794Y-67373845D01*
X137181440Y-67395000D01*
X136964560Y-67395000D01*
X136858206Y-67373845D01*
X136751850Y-67352689D01*
X136551480Y-67269693D01*
X136371156Y-67149205D01*
X136217795Y-66995844D01*
X136097307Y-66815520D01*
X136014311Y-66615149D01*
X135972000Y-66402440D01*
X135972000Y-66185560D01*
X136014311Y-65972851D01*
X136097307Y-65772480D01*
X136217795Y-65592156D01*
X136371156Y-65438795D01*
X136551480Y-65318307D01*
X136651666Y-65276809D01*
X136751850Y-65235311D01*
X136858205Y-65214156D01*
X136964560Y-65193000D01*
X137181440Y-65193000D01*
X137287795Y-65214156D01*
X137287795Y-65214156D01*
G37*
G36*
X139787795Y-65214156D02*
G01*
X139894150Y-65235311D01*
X139994334Y-65276809D01*
X140094520Y-65318307D01*
X140274844Y-65438795D01*
X140428205Y-65592156D01*
X140548693Y-65772480D01*
X140631689Y-65972851D01*
X140674000Y-66185560D01*
X140674000Y-66402440D01*
X140631689Y-66615149D01*
X140548693Y-66815520D01*
X140428205Y-66995844D01*
X140274844Y-67149205D01*
X140094520Y-67269693D01*
X139894150Y-67352689D01*
X139787794Y-67373845D01*
X139681440Y-67395000D01*
X139464560Y-67395000D01*
X139358206Y-67373845D01*
X139251850Y-67352689D01*
X139051480Y-67269693D01*
X138871156Y-67149205D01*
X138717795Y-66995844D01*
X138597307Y-66815520D01*
X138514311Y-66615149D01*
X138472000Y-66402440D01*
X138472000Y-66185560D01*
X138514311Y-65972851D01*
X138597307Y-65772480D01*
X138717795Y-65592156D01*
X138871156Y-65438795D01*
X139051480Y-65318307D01*
X139151666Y-65276809D01*
X139251850Y-65235311D01*
X139358205Y-65214156D01*
X139464560Y-65193000D01*
X139681440Y-65193000D01*
X139787795Y-65214156D01*
X139787795Y-65214156D01*
G37*
G36*
X134787795Y-65214156D02*
G01*
X134894150Y-65235311D01*
X134994334Y-65276809D01*
X135094520Y-65318307D01*
X135274844Y-65438795D01*
X135428205Y-65592156D01*
X135548693Y-65772480D01*
X135631689Y-65972851D01*
X135674000Y-66185560D01*
X135674000Y-66402440D01*
X135631689Y-66615149D01*
X135548693Y-66815520D01*
X135428205Y-66995844D01*
X135274844Y-67149205D01*
X135094520Y-67269693D01*
X134894150Y-67352689D01*
X134787794Y-67373845D01*
X134681440Y-67395000D01*
X134464560Y-67395000D01*
X134358206Y-67373845D01*
X134251850Y-67352689D01*
X134051480Y-67269693D01*
X133871156Y-67149205D01*
X133717795Y-66995844D01*
X133597307Y-66815520D01*
X133514311Y-66615149D01*
X133472000Y-66402440D01*
X133472000Y-66185560D01*
X133514311Y-65972851D01*
X133597307Y-65772480D01*
X133717795Y-65592156D01*
X133871156Y-65438795D01*
X134051480Y-65318307D01*
X134151666Y-65276809D01*
X134251850Y-65235311D01*
X134358205Y-65214156D01*
X134464560Y-65193000D01*
X134681440Y-65193000D01*
X134787795Y-65214156D01*
X134787795Y-65214156D01*
G37*
G36*
X122515795Y-65214156D02*
G01*
X122622150Y-65235311D01*
X122722334Y-65276809D01*
X122822520Y-65318307D01*
X123002844Y-65438795D01*
X123156205Y-65592156D01*
X123276693Y-65772480D01*
X123359689Y-65972851D01*
X123402000Y-66185560D01*
X123402000Y-66402440D01*
X123359689Y-66615149D01*
X123276693Y-66815520D01*
X123156205Y-66995844D01*
X123002844Y-67149205D01*
X122822520Y-67269693D01*
X122622150Y-67352689D01*
X122515794Y-67373845D01*
X122409440Y-67395000D01*
X122192560Y-67395000D01*
X122086206Y-67373845D01*
X121979850Y-67352689D01*
X121779480Y-67269693D01*
X121599156Y-67149205D01*
X121445795Y-66995844D01*
X121325307Y-66815520D01*
X121242311Y-66615149D01*
X121200000Y-66402440D01*
X121200000Y-66185560D01*
X121242311Y-65972851D01*
X121325307Y-65772480D01*
X121445795Y-65592156D01*
X121599156Y-65438795D01*
X121779480Y-65318307D01*
X121879666Y-65276809D01*
X121979850Y-65235311D01*
X122086205Y-65214156D01*
X122192560Y-65193000D01*
X122409440Y-65193000D01*
X122515795Y-65214156D01*
X122515795Y-65214156D01*
G37*
G36*
X120015795Y-65214156D02*
G01*
X120122150Y-65235311D01*
X120222334Y-65276809D01*
X120322520Y-65318307D01*
X120502844Y-65438795D01*
X120656205Y-65592156D01*
X120776693Y-65772480D01*
X120859689Y-65972851D01*
X120902000Y-66185560D01*
X120902000Y-66402440D01*
X120859689Y-66615149D01*
X120776693Y-66815520D01*
X120656205Y-66995844D01*
X120502844Y-67149205D01*
X120322520Y-67269693D01*
X120122150Y-67352689D01*
X120015794Y-67373845D01*
X119909440Y-67395000D01*
X119692560Y-67395000D01*
X119586206Y-67373845D01*
X119479850Y-67352689D01*
X119279480Y-67269693D01*
X119099156Y-67149205D01*
X118945795Y-66995844D01*
X118825307Y-66815520D01*
X118742311Y-66615149D01*
X118700000Y-66402440D01*
X118700000Y-66185560D01*
X118742311Y-65972851D01*
X118825307Y-65772480D01*
X118945795Y-65592156D01*
X119099156Y-65438795D01*
X119279480Y-65318307D01*
X119379666Y-65276809D01*
X119479850Y-65235311D01*
X119586205Y-65214156D01*
X119692560Y-65193000D01*
X119909440Y-65193000D01*
X120015795Y-65214156D01*
X120015795Y-65214156D01*
G37*
G36*
X117515795Y-65214156D02*
G01*
X117622150Y-65235311D01*
X117722334Y-65276809D01*
X117822520Y-65318307D01*
X118002844Y-65438795D01*
X118156205Y-65592156D01*
X118276693Y-65772480D01*
X118359689Y-65972851D01*
X118402000Y-66185560D01*
X118402000Y-66402440D01*
X118359689Y-66615149D01*
X118276693Y-66815520D01*
X118156205Y-66995844D01*
X118002844Y-67149205D01*
X117822520Y-67269693D01*
X117622150Y-67352689D01*
X117515794Y-67373845D01*
X117409440Y-67395000D01*
X117192560Y-67395000D01*
X117086206Y-67373845D01*
X116979850Y-67352689D01*
X116779480Y-67269693D01*
X116599156Y-67149205D01*
X116445795Y-66995844D01*
X116325307Y-66815520D01*
X116242311Y-66615149D01*
X116200000Y-66402440D01*
X116200000Y-66185560D01*
X116242311Y-65972851D01*
X116325307Y-65772480D01*
X116445795Y-65592156D01*
X116599156Y-65438795D01*
X116779480Y-65318307D01*
X116879666Y-65276809D01*
X116979850Y-65235311D01*
X117086205Y-65214156D01*
X117192560Y-65193000D01*
X117409440Y-65193000D01*
X117515795Y-65214156D01*
X117515795Y-65214156D01*
G37*
M02*
